G04 #@! TF.GenerationSoftware,KiCad,Pcbnew,5.1.4-e60b266~84~ubuntu19.04.1*
G04 #@! TF.CreationDate,2019-09-18T16:20:32+02:00*
G04 #@! TF.ProjectId,pro_micro_audio,70726f5f-6d69-4637-926f-5f617564696f,rev?*
G04 #@! TF.SameCoordinates,Original*
G04 #@! TF.FileFunction,Legend,Top*
G04 #@! TF.FilePolarity,Positive*
%FSLAX46Y46*%
G04 Gerber Fmt 4.6, Leading zero omitted, Abs format (unit mm)*
G04 Created by KiCad (PCBNEW 5.1.4-e60b266~84~ubuntu19.04.1) date 2019-09-18 16:20:32*
%MOMM*%
%LPD*%
G04 APERTURE LIST*
%ADD10C,0.150000*%
%ADD11C,0.120000*%
%ADD12C,0.127000*%
%ADD13C,0.250000*%
G04 APERTURE END LIST*
D10*
X142607142Y-102952380D02*
X142607142Y-101952380D01*
X142845238Y-101952380D01*
X142988095Y-102000000D01*
X143083333Y-102095238D01*
X143130952Y-102190476D01*
X143178571Y-102380952D01*
X143178571Y-102523809D01*
X143130952Y-102714285D01*
X143083333Y-102809523D01*
X142988095Y-102904761D01*
X142845238Y-102952380D01*
X142607142Y-102952380D01*
X143464285Y-101952380D02*
X144035714Y-101952380D01*
X143750000Y-102952380D02*
X143750000Y-101952380D01*
X141916666Y-104452380D02*
X142250000Y-105452380D01*
X142583333Y-104452380D01*
X143488095Y-105357142D02*
X143440476Y-105404761D01*
X143297619Y-105452380D01*
X143202380Y-105452380D01*
X143059523Y-105404761D01*
X142964285Y-105309523D01*
X142916666Y-105214285D01*
X142869047Y-105023809D01*
X142869047Y-104880952D01*
X142916666Y-104690476D01*
X142964285Y-104595238D01*
X143059523Y-104500000D01*
X143202380Y-104452380D01*
X143297619Y-104452380D01*
X143440476Y-104500000D01*
X143488095Y-104547619D01*
X144488095Y-105357142D02*
X144440476Y-105404761D01*
X144297619Y-105452380D01*
X144202380Y-105452380D01*
X144059523Y-105404761D01*
X143964285Y-105309523D01*
X143916666Y-105214285D01*
X143869047Y-105023809D01*
X143869047Y-104880952D01*
X143916666Y-104690476D01*
X143964285Y-104595238D01*
X144059523Y-104500000D01*
X144202380Y-104452380D01*
X144297619Y-104452380D01*
X144440476Y-104500000D01*
X144488095Y-104547619D01*
X151988095Y-104500000D02*
X151892857Y-104452380D01*
X151750000Y-104452380D01*
X151607142Y-104500000D01*
X151511904Y-104595238D01*
X151464285Y-104690476D01*
X151416666Y-104880952D01*
X151416666Y-105023809D01*
X151464285Y-105214285D01*
X151511904Y-105309523D01*
X151607142Y-105404761D01*
X151750000Y-105452380D01*
X151845238Y-105452380D01*
X151988095Y-105404761D01*
X152035714Y-105357142D01*
X152035714Y-105023809D01*
X151845238Y-105023809D01*
X152464285Y-105452380D02*
X152464285Y-104452380D01*
X153035714Y-105452380D01*
X153035714Y-104452380D01*
X153511904Y-105452380D02*
X153511904Y-104452380D01*
X153750000Y-104452380D01*
X153892857Y-104500000D01*
X153988095Y-104595238D01*
X154035714Y-104690476D01*
X154083333Y-104880952D01*
X154083333Y-105023809D01*
X154035714Y-105214285D01*
X153988095Y-105309523D01*
X153892857Y-105404761D01*
X153750000Y-105452380D01*
X153511904Y-105452380D01*
X151392857Y-102654761D02*
X151535714Y-102702380D01*
X151773809Y-102702380D01*
X151869047Y-102654761D01*
X151916666Y-102607142D01*
X151964285Y-102511904D01*
X151964285Y-102416666D01*
X151916666Y-102321428D01*
X151869047Y-102273809D01*
X151773809Y-102226190D01*
X151583333Y-102178571D01*
X151488095Y-102130952D01*
X151440476Y-102083333D01*
X151392857Y-101988095D01*
X151392857Y-101892857D01*
X151440476Y-101797619D01*
X151488095Y-101750000D01*
X151583333Y-101702380D01*
X151821428Y-101702380D01*
X151964285Y-101750000D01*
X152297619Y-101702380D02*
X152535714Y-102702380D01*
X152726190Y-101988095D01*
X152916666Y-102702380D01*
X153154761Y-101702380D01*
X151904761Y-100357142D02*
X151857142Y-100404761D01*
X151714285Y-100452380D01*
X151619047Y-100452380D01*
X151476190Y-100404761D01*
X151380952Y-100309523D01*
X151333333Y-100214285D01*
X151285714Y-100023809D01*
X151285714Y-99880952D01*
X151333333Y-99690476D01*
X151380952Y-99595238D01*
X151476190Y-99500000D01*
X151619047Y-99452380D01*
X151714285Y-99452380D01*
X151857142Y-99500000D01*
X151904761Y-99547619D01*
X152809523Y-100452380D02*
X152333333Y-100452380D01*
X152333333Y-99452380D01*
X153142857Y-100452380D02*
X153142857Y-99452380D01*
X153714285Y-100452380D02*
X153285714Y-99880952D01*
X153714285Y-99452380D02*
X153142857Y-100023809D01*
D11*
G04 #@! TO.C,C1*
X151690000Y-87376000D02*
G75*
G03X151690000Y-87376000I-8120000J0D01*
G01*
G04 #@! TO.C,C2*
X158370000Y-87500000D02*
G75*
G03X158370000Y-87500000I-2620000J0D01*
G01*
G04 #@! TO.C,KY-40*
X150580000Y-98590000D02*
X145380000Y-98590000D01*
X150580000Y-103730000D02*
X150580000Y-98590000D01*
X145380000Y-106330000D02*
X145380000Y-98590000D01*
X150580000Y-103730000D02*
X147980000Y-103730000D01*
X147980000Y-103730000D02*
X147980000Y-106330000D01*
X147980000Y-106330000D02*
X145380000Y-106330000D01*
X150580000Y-105000000D02*
X150580000Y-106330000D01*
X150580000Y-106330000D02*
X149250000Y-106330000D01*
G04 #@! TO.C,PinHeader1*
X152670000Y-81870000D02*
X155330000Y-81870000D01*
X152670000Y-76730000D02*
X152670000Y-81870000D01*
X155330000Y-76730000D02*
X155330000Y-81870000D01*
X152670000Y-76730000D02*
X155330000Y-76730000D01*
X152670000Y-75460000D02*
X152670000Y-74130000D01*
X152670000Y-74130000D02*
X154000000Y-74130000D01*
G04 #@! TO.C,R1*
X145190000Y-77370000D02*
X145190000Y-74630000D01*
X145190000Y-74630000D02*
X138650000Y-74630000D01*
X138650000Y-74630000D02*
X138650000Y-77370000D01*
X138650000Y-77370000D02*
X145190000Y-77370000D01*
X145960000Y-76000000D02*
X145190000Y-76000000D01*
X137880000Y-76000000D02*
X138650000Y-76000000D01*
G04 #@! TO.C,R2*
X104418000Y-85852000D02*
X105188000Y-85852000D01*
X112498000Y-85852000D02*
X111728000Y-85852000D01*
X105188000Y-87222000D02*
X111728000Y-87222000D01*
X105188000Y-84482000D02*
X105188000Y-87222000D01*
X111728000Y-84482000D02*
X105188000Y-84482000D01*
X111728000Y-87222000D02*
X111728000Y-84482000D01*
G04 #@! TO.C,R3*
X111728000Y-91540000D02*
X111728000Y-88800000D01*
X111728000Y-88800000D02*
X105188000Y-88800000D01*
X105188000Y-88800000D02*
X105188000Y-91540000D01*
X105188000Y-91540000D02*
X111728000Y-91540000D01*
X112498000Y-90170000D02*
X111728000Y-90170000D01*
X104418000Y-90170000D02*
X105188000Y-90170000D01*
G04 #@! TO.C,ResetButton1*
X108420000Y-94920000D02*
X109750000Y-94920000D01*
X108420000Y-96250000D02*
X108420000Y-94920000D01*
X108420000Y-97520000D02*
X111080000Y-97520000D01*
X111080000Y-97520000D02*
X111080000Y-100120000D01*
X108420000Y-97520000D02*
X108420000Y-100120000D01*
X108420000Y-100120000D02*
X111080000Y-100120000D01*
G04 #@! TO.C,ToggleSwitch1*
X110420000Y-80330000D02*
X113080000Y-80330000D01*
X110420000Y-77730000D02*
X110420000Y-80330000D01*
X113080000Y-77730000D02*
X113080000Y-80330000D01*
X110420000Y-77730000D02*
X113080000Y-77730000D01*
X110420000Y-76460000D02*
X110420000Y-75130000D01*
X110420000Y-75130000D02*
X111750000Y-75130000D01*
G04 #@! TO.C,C1*
D10*
X143403333Y-87733142D02*
X143355714Y-87780761D01*
X143212857Y-87828380D01*
X143117619Y-87828380D01*
X142974761Y-87780761D01*
X142879523Y-87685523D01*
X142831904Y-87590285D01*
X142784285Y-87399809D01*
X142784285Y-87256952D01*
X142831904Y-87066476D01*
X142879523Y-86971238D01*
X142974761Y-86876000D01*
X143117619Y-86828380D01*
X143212857Y-86828380D01*
X143355714Y-86876000D01*
X143403333Y-86923619D01*
X144355714Y-87828380D02*
X143784285Y-87828380D01*
X144070000Y-87828380D02*
X144070000Y-86828380D01*
X143974761Y-86971238D01*
X143879523Y-87066476D01*
X143784285Y-87114095D01*
X138952380Y-90535714D02*
X138952380Y-91202380D01*
X138714285Y-90154761D02*
X138476190Y-90869047D01*
X139095238Y-90869047D01*
X139380952Y-90202380D02*
X140047619Y-90202380D01*
X139619047Y-91202380D01*
X140619047Y-90202380D02*
X140714285Y-90202380D01*
X140809523Y-90250000D01*
X140857142Y-90297619D01*
X140904761Y-90392857D01*
X140952380Y-90583333D01*
X140952380Y-90821428D01*
X140904761Y-91011904D01*
X140857142Y-91107142D01*
X140809523Y-91154761D01*
X140714285Y-91202380D01*
X140619047Y-91202380D01*
X140523809Y-91154761D01*
X140476190Y-91107142D01*
X140428571Y-91011904D01*
X140380952Y-90821428D01*
X140380952Y-90583333D01*
X140428571Y-90392857D01*
X140476190Y-90297619D01*
X140523809Y-90250000D01*
X140619047Y-90202380D01*
X141809523Y-90535714D02*
X141809523Y-91202380D01*
X141380952Y-90535714D02*
X141380952Y-91059523D01*
X141428571Y-91154761D01*
X141523809Y-91202380D01*
X141666666Y-91202380D01*
X141761904Y-91154761D01*
X141809523Y-91107142D01*
X142619047Y-90678571D02*
X142285714Y-90678571D01*
X142285714Y-91202380D02*
X142285714Y-90202380D01*
X142761904Y-90202380D01*
X143142857Y-90821428D02*
X143904761Y-90821428D01*
X144904761Y-91202380D02*
X144333333Y-91202380D01*
X144619047Y-91202380D02*
X144619047Y-90202380D01*
X144523809Y-90345238D01*
X144428571Y-90440476D01*
X144333333Y-90488095D01*
X145523809Y-90202380D02*
X145619047Y-90202380D01*
X145714285Y-90250000D01*
X145761904Y-90297619D01*
X145809523Y-90392857D01*
X145857142Y-90583333D01*
X145857142Y-90821428D01*
X145809523Y-91011904D01*
X145761904Y-91107142D01*
X145714285Y-91154761D01*
X145619047Y-91202380D01*
X145523809Y-91202380D01*
X145428571Y-91154761D01*
X145380952Y-91107142D01*
X145333333Y-91011904D01*
X145285714Y-90821428D01*
X145285714Y-90583333D01*
X145333333Y-90392857D01*
X145380952Y-90297619D01*
X145428571Y-90250000D01*
X145523809Y-90202380D01*
X146476190Y-90202380D02*
X146571428Y-90202380D01*
X146666666Y-90250000D01*
X146714285Y-90297619D01*
X146761904Y-90392857D01*
X146809523Y-90583333D01*
X146809523Y-90821428D01*
X146761904Y-91011904D01*
X146714285Y-91107142D01*
X146666666Y-91154761D01*
X146571428Y-91202380D01*
X146476190Y-91202380D01*
X146380952Y-91154761D01*
X146333333Y-91107142D01*
X146285714Y-91011904D01*
X146238095Y-90821428D01*
X146238095Y-90583333D01*
X146285714Y-90392857D01*
X146333333Y-90297619D01*
X146380952Y-90250000D01*
X146476190Y-90202380D01*
X147428571Y-90202380D02*
X147523809Y-90202380D01*
X147619047Y-90250000D01*
X147666666Y-90297619D01*
X147714285Y-90392857D01*
X147761904Y-90583333D01*
X147761904Y-90821428D01*
X147714285Y-91011904D01*
X147666666Y-91107142D01*
X147619047Y-91154761D01*
X147523809Y-91202380D01*
X147428571Y-91202380D01*
X147333333Y-91154761D01*
X147285714Y-91107142D01*
X147238095Y-91011904D01*
X147190476Y-90821428D01*
X147190476Y-90583333D01*
X147238095Y-90392857D01*
X147285714Y-90297619D01*
X147333333Y-90250000D01*
X147428571Y-90202380D01*
X148619047Y-90535714D02*
X148619047Y-91202380D01*
X148190476Y-90535714D02*
X148190476Y-91059523D01*
X148238095Y-91154761D01*
X148333333Y-91202380D01*
X148476190Y-91202380D01*
X148571428Y-91154761D01*
X148619047Y-91107142D01*
X149428571Y-90678571D02*
X149095238Y-90678571D01*
X149095238Y-91202380D02*
X149095238Y-90202380D01*
X149571428Y-90202380D01*
G04 #@! TO.C,CHEAP_PRO_MICRO1*
D12*
X120220015Y-104958243D02*
X120307101Y-104987272D01*
X120452243Y-104987272D01*
X120510301Y-104958243D01*
X120539329Y-104929215D01*
X120568358Y-104871158D01*
X120568358Y-104813101D01*
X120539329Y-104755043D01*
X120510301Y-104726015D01*
X120452243Y-104696986D01*
X120336129Y-104667958D01*
X120278072Y-104638929D01*
X120249043Y-104609901D01*
X120220015Y-104551843D01*
X120220015Y-104493786D01*
X120249043Y-104435729D01*
X120278072Y-104406701D01*
X120336129Y-104377672D01*
X120481272Y-104377672D01*
X120568358Y-104406701D01*
X120829615Y-104987272D02*
X120829615Y-104377672D01*
X121061843Y-104377672D01*
X121119901Y-104406701D01*
X121148929Y-104435729D01*
X121177958Y-104493786D01*
X121177958Y-104580872D01*
X121148929Y-104638929D01*
X121119901Y-104667958D01*
X121061843Y-104696986D01*
X120829615Y-104696986D01*
X121410186Y-104813101D02*
X121700472Y-104813101D01*
X121352129Y-104987272D02*
X121555329Y-104377672D01*
X121758529Y-104987272D01*
X122310072Y-104987272D02*
X122106872Y-104696986D01*
X121961729Y-104987272D02*
X121961729Y-104377672D01*
X122193958Y-104377672D01*
X122252015Y-104406701D01*
X122281043Y-104435729D01*
X122310072Y-104493786D01*
X122310072Y-104580872D01*
X122281043Y-104638929D01*
X122252015Y-104667958D01*
X122193958Y-104696986D01*
X121961729Y-104696986D01*
X122571329Y-104987272D02*
X122571329Y-104377672D01*
X122919672Y-104987272D02*
X122658415Y-104638929D01*
X122919672Y-104377672D02*
X122571329Y-104726015D01*
X123384129Y-104667958D02*
X123180929Y-104667958D01*
X123180929Y-104987272D02*
X123180929Y-104377672D01*
X123471215Y-104377672D01*
X123703443Y-104377672D02*
X123703443Y-104871158D01*
X123732472Y-104929215D01*
X123761501Y-104958243D01*
X123819558Y-104987272D01*
X123935672Y-104987272D01*
X123993729Y-104958243D01*
X124022758Y-104929215D01*
X124051786Y-104871158D01*
X124051786Y-104377672D01*
X124342072Y-104987272D02*
X124342072Y-104377672D01*
X124690415Y-104987272D01*
X124690415Y-104377672D01*
X124835558Y-105045329D02*
X125300015Y-105045329D01*
X125445158Y-104987272D02*
X125445158Y-104377672D01*
X125677386Y-104377672D01*
X125735443Y-104406701D01*
X125764472Y-104435729D01*
X125793501Y-104493786D01*
X125793501Y-104580872D01*
X125764472Y-104638929D01*
X125735443Y-104667958D01*
X125677386Y-104696986D01*
X125445158Y-104696986D01*
X126403101Y-104987272D02*
X126199901Y-104696986D01*
X126054758Y-104987272D02*
X126054758Y-104377672D01*
X126286986Y-104377672D01*
X126345043Y-104406701D01*
X126374072Y-104435729D01*
X126403101Y-104493786D01*
X126403101Y-104580872D01*
X126374072Y-104638929D01*
X126345043Y-104667958D01*
X126286986Y-104696986D01*
X126054758Y-104696986D01*
X126780472Y-104377672D02*
X126896586Y-104377672D01*
X126954643Y-104406701D01*
X127012701Y-104464758D01*
X127041729Y-104580872D01*
X127041729Y-104784072D01*
X127012701Y-104900186D01*
X126954643Y-104958243D01*
X126896586Y-104987272D01*
X126780472Y-104987272D01*
X126722415Y-104958243D01*
X126664358Y-104900186D01*
X126635329Y-104784072D01*
X126635329Y-104580872D01*
X126664358Y-104464758D01*
X126722415Y-104406701D01*
X126780472Y-104377672D01*
X127157843Y-105045329D02*
X127622301Y-105045329D01*
X127767443Y-104987272D02*
X127767443Y-104377672D01*
X127970643Y-104813101D01*
X128173843Y-104377672D01*
X128173843Y-104987272D01*
X128464129Y-104987272D02*
X128464129Y-104377672D01*
X129102758Y-104929215D02*
X129073729Y-104958243D01*
X128986643Y-104987272D01*
X128928586Y-104987272D01*
X128841501Y-104958243D01*
X128783443Y-104900186D01*
X128754415Y-104842129D01*
X128725386Y-104726015D01*
X128725386Y-104638929D01*
X128754415Y-104522815D01*
X128783443Y-104464758D01*
X128841501Y-104406701D01*
X128928586Y-104377672D01*
X128986643Y-104377672D01*
X129073729Y-104406701D01*
X129102758Y-104435729D01*
X129712358Y-104987272D02*
X129509158Y-104696986D01*
X129364015Y-104987272D02*
X129364015Y-104377672D01*
X129596243Y-104377672D01*
X129654301Y-104406701D01*
X129683329Y-104435729D01*
X129712358Y-104493786D01*
X129712358Y-104580872D01*
X129683329Y-104638929D01*
X129654301Y-104667958D01*
X129596243Y-104696986D01*
X129364015Y-104696986D01*
X130089729Y-104377672D02*
X130205843Y-104377672D01*
X130263901Y-104406701D01*
X130321958Y-104464758D01*
X130350986Y-104580872D01*
X130350986Y-104784072D01*
X130321958Y-104900186D01*
X130263901Y-104958243D01*
X130205843Y-104987272D01*
X130089729Y-104987272D01*
X130031672Y-104958243D01*
X129973615Y-104900186D01*
X129944586Y-104784072D01*
X129944586Y-104580872D01*
X129973615Y-104464758D01*
X130031672Y-104406701D01*
X130089729Y-104377672D01*
G04 #@! TO.C,C2*
D10*
X155333333Y-91607142D02*
X155285714Y-91654761D01*
X155142857Y-91702380D01*
X155047619Y-91702380D01*
X154904761Y-91654761D01*
X154809523Y-91559523D01*
X154761904Y-91464285D01*
X154714285Y-91273809D01*
X154714285Y-91130952D01*
X154761904Y-90940476D01*
X154809523Y-90845238D01*
X154904761Y-90750000D01*
X155047619Y-90702380D01*
X155142857Y-90702380D01*
X155285714Y-90750000D01*
X155333333Y-90797619D01*
X155714285Y-90797619D02*
X155761904Y-90750000D01*
X155857142Y-90702380D01*
X156095238Y-90702380D01*
X156190476Y-90750000D01*
X156238095Y-90797619D01*
X156285714Y-90892857D01*
X156285714Y-90988095D01*
X156238095Y-91130952D01*
X155666666Y-91702380D01*
X156285714Y-91702380D01*
G04 #@! TO.C,KY-40*
X145718095Y-97452380D02*
X145718095Y-96452380D01*
X146289523Y-97452380D02*
X145860952Y-96880952D01*
X146289523Y-96452380D02*
X145718095Y-97023809D01*
X146908571Y-96976190D02*
X146908571Y-97452380D01*
X146575238Y-96452380D02*
X146908571Y-96976190D01*
X147241904Y-96452380D01*
X147575238Y-97071428D02*
X148337142Y-97071428D01*
X149241904Y-96785714D02*
X149241904Y-97452380D01*
X149003809Y-96404761D02*
X148765714Y-97119047D01*
X149384761Y-97119047D01*
X149956190Y-96452380D02*
X150051428Y-96452380D01*
X150146666Y-96500000D01*
X150194285Y-96547619D01*
X150241904Y-96642857D01*
X150289523Y-96833333D01*
X150289523Y-97071428D01*
X150241904Y-97261904D01*
X150194285Y-97357142D01*
X150146666Y-97404761D01*
X150051428Y-97452380D01*
X149956190Y-97452380D01*
X149860952Y-97404761D01*
X149813333Y-97357142D01*
X149765714Y-97261904D01*
X149718095Y-97071428D01*
X149718095Y-96833333D01*
X149765714Y-96642857D01*
X149813333Y-96547619D01*
X149860952Y-96500000D01*
X149956190Y-96452380D01*
G04 #@! TO.C,PinHeader1*
X148773809Y-73202380D02*
X148773809Y-72202380D01*
X149345238Y-73202380D01*
X149345238Y-72202380D01*
X150202380Y-73154761D02*
X150107142Y-73202380D01*
X149916666Y-73202380D01*
X149821428Y-73154761D01*
X149773809Y-73059523D01*
X149773809Y-72678571D01*
X149821428Y-72583333D01*
X149916666Y-72535714D01*
X150107142Y-72535714D01*
X150202380Y-72583333D01*
X150250000Y-72678571D01*
X150250000Y-72773809D01*
X149773809Y-72869047D01*
X150821428Y-73202380D02*
X150726190Y-73154761D01*
X150678571Y-73107142D01*
X150630952Y-73011904D01*
X150630952Y-72726190D01*
X150678571Y-72630952D01*
X150726190Y-72583333D01*
X150821428Y-72535714D01*
X150964285Y-72535714D01*
X151059523Y-72583333D01*
X151107142Y-72630952D01*
X151154761Y-72726190D01*
X151154761Y-73011904D01*
X151107142Y-73107142D01*
X151059523Y-73154761D01*
X150964285Y-73202380D01*
X150821428Y-73202380D01*
X151583333Y-72535714D02*
X151583333Y-73535714D01*
X151583333Y-72583333D02*
X151678571Y-72535714D01*
X151869047Y-72535714D01*
X151964285Y-72583333D01*
X152011904Y-72630952D01*
X152059523Y-72726190D01*
X152059523Y-73011904D01*
X152011904Y-73107142D01*
X151964285Y-73154761D01*
X151869047Y-73202380D01*
X151678571Y-73202380D01*
X151583333Y-73154761D01*
X152488095Y-73202380D02*
X152488095Y-72535714D01*
X152488095Y-72202380D02*
X152440476Y-72250000D01*
X152488095Y-72297619D01*
X152535714Y-72250000D01*
X152488095Y-72202380D01*
X152488095Y-72297619D01*
X152869047Y-73202380D02*
X153392857Y-72535714D01*
X152869047Y-72535714D02*
X153392857Y-73202380D01*
X154154761Y-73154761D02*
X154059523Y-73202380D01*
X153869047Y-73202380D01*
X153773809Y-73154761D01*
X153726190Y-73059523D01*
X153726190Y-72678571D01*
X153773809Y-72583333D01*
X153869047Y-72535714D01*
X154059523Y-72535714D01*
X154154761Y-72583333D01*
X154202380Y-72678571D01*
X154202380Y-72773809D01*
X153726190Y-72869047D01*
X154773809Y-73202380D02*
X154678571Y-73154761D01*
X154630952Y-73059523D01*
X154630952Y-72202380D01*
X156488095Y-73202380D02*
X156154761Y-72726190D01*
X155916666Y-73202380D02*
X155916666Y-72202380D01*
X156297619Y-72202380D01*
X156392857Y-72250000D01*
X156440476Y-72297619D01*
X156488095Y-72392857D01*
X156488095Y-72535714D01*
X156440476Y-72630952D01*
X156392857Y-72678571D01*
X156297619Y-72726190D01*
X155916666Y-72726190D01*
X156916666Y-73202380D02*
X156916666Y-72535714D01*
X156916666Y-72202380D02*
X156869047Y-72250000D01*
X156916666Y-72297619D01*
X156964285Y-72250000D01*
X156916666Y-72202380D01*
X156916666Y-72297619D01*
X157392857Y-72535714D02*
X157392857Y-73202380D01*
X157392857Y-72630952D02*
X157440476Y-72583333D01*
X157535714Y-72535714D01*
X157678571Y-72535714D01*
X157773809Y-72583333D01*
X157821428Y-72678571D01*
X157821428Y-73202380D01*
X158726190Y-72535714D02*
X158726190Y-73345238D01*
X158678571Y-73440476D01*
X158630952Y-73488095D01*
X158535714Y-73535714D01*
X158392857Y-73535714D01*
X158297619Y-73488095D01*
X158726190Y-73154761D02*
X158630952Y-73202380D01*
X158440476Y-73202380D01*
X158345238Y-73154761D01*
X158297619Y-73107142D01*
X158250000Y-73011904D01*
X158250000Y-72726190D01*
X158297619Y-72630952D01*
X158345238Y-72583333D01*
X158440476Y-72535714D01*
X158630952Y-72535714D01*
X158726190Y-72583333D01*
G04 #@! TO.C,R1*
X141753333Y-78822380D02*
X141420000Y-78346190D01*
X141181904Y-78822380D02*
X141181904Y-77822380D01*
X141562857Y-77822380D01*
X141658095Y-77870000D01*
X141705714Y-77917619D01*
X141753333Y-78012857D01*
X141753333Y-78155714D01*
X141705714Y-78250952D01*
X141658095Y-78298571D01*
X141562857Y-78346190D01*
X141181904Y-78346190D01*
X142705714Y-78822380D02*
X142134285Y-78822380D01*
X142420000Y-78822380D02*
X142420000Y-77822380D01*
X142324761Y-77965238D01*
X142229523Y-78060476D01*
X142134285Y-78108095D01*
X141158095Y-75785714D02*
X141158095Y-76452380D01*
X140920000Y-75404761D02*
X140681904Y-76119047D01*
X141300952Y-76119047D01*
X141586666Y-75452380D02*
X142253333Y-75452380D01*
X141824761Y-76452380D01*
X142824761Y-75452380D02*
X142920000Y-75452380D01*
X143015238Y-75500000D01*
X143062857Y-75547619D01*
X143110476Y-75642857D01*
X143158095Y-75833333D01*
X143158095Y-76071428D01*
X143110476Y-76261904D01*
X143062857Y-76357142D01*
X143015238Y-76404761D01*
X142920000Y-76452380D01*
X142824761Y-76452380D01*
X142729523Y-76404761D01*
X142681904Y-76357142D01*
X142634285Y-76261904D01*
X142586666Y-76071428D01*
X142586666Y-75833333D01*
X142634285Y-75642857D01*
X142681904Y-75547619D01*
X142729523Y-75500000D01*
X142824761Y-75452380D01*
G04 #@! TO.C,R2*
X108291333Y-88674380D02*
X107958000Y-88198190D01*
X107719904Y-88674380D02*
X107719904Y-87674380D01*
X108100857Y-87674380D01*
X108196095Y-87722000D01*
X108243714Y-87769619D01*
X108291333Y-87864857D01*
X108291333Y-88007714D01*
X108243714Y-88102952D01*
X108196095Y-88150571D01*
X108100857Y-88198190D01*
X107719904Y-88198190D01*
X108672285Y-87769619D02*
X108719904Y-87722000D01*
X108815142Y-87674380D01*
X109053238Y-87674380D01*
X109148476Y-87722000D01*
X109196095Y-87769619D01*
X109243714Y-87864857D01*
X109243714Y-87960095D01*
X109196095Y-88102952D01*
X108624666Y-88674380D01*
X109243714Y-88674380D01*
D13*
X108559523Y-86202380D02*
X107988095Y-86202380D01*
X108273809Y-86202380D02*
X108273809Y-85202380D01*
X108178571Y-85345238D01*
X108083333Y-85440476D01*
X107988095Y-85488095D01*
X109178571Y-85202380D02*
X109273809Y-85202380D01*
X109369047Y-85250000D01*
X109416666Y-85297619D01*
X109464285Y-85392857D01*
X109511904Y-85583333D01*
X109511904Y-85821428D01*
X109464285Y-86011904D01*
X109416666Y-86107142D01*
X109369047Y-86154761D01*
X109273809Y-86202380D01*
X109178571Y-86202380D01*
X109083333Y-86154761D01*
X109035714Y-86107142D01*
X108988095Y-86011904D01*
X108940476Y-85821428D01*
X108940476Y-85583333D01*
X108988095Y-85392857D01*
X109035714Y-85297619D01*
X109083333Y-85250000D01*
X109178571Y-85202380D01*
X109940476Y-86202380D02*
X109940476Y-85202380D01*
X110511904Y-86202380D02*
X110083333Y-85630952D01*
X110511904Y-85202380D02*
X109940476Y-85773809D01*
G04 #@! TO.C,R3*
D10*
X108291333Y-92992380D02*
X107958000Y-92516190D01*
X107719904Y-92992380D02*
X107719904Y-91992380D01*
X108100857Y-91992380D01*
X108196095Y-92040000D01*
X108243714Y-92087619D01*
X108291333Y-92182857D01*
X108291333Y-92325714D01*
X108243714Y-92420952D01*
X108196095Y-92468571D01*
X108100857Y-92516190D01*
X107719904Y-92516190D01*
X108624666Y-91992380D02*
X109243714Y-91992380D01*
X108910380Y-92373333D01*
X109053238Y-92373333D01*
X109148476Y-92420952D01*
X109196095Y-92468571D01*
X109243714Y-92563809D01*
X109243714Y-92801904D01*
X109196095Y-92897142D01*
X109148476Y-92944761D01*
X109053238Y-92992380D01*
X108767523Y-92992380D01*
X108672285Y-92944761D01*
X108624666Y-92897142D01*
X108309523Y-90702380D02*
X107738095Y-90702380D01*
X108023809Y-90702380D02*
X108023809Y-89702380D01*
X107928571Y-89845238D01*
X107833333Y-89940476D01*
X107738095Y-89988095D01*
X108928571Y-89702380D02*
X109023809Y-89702380D01*
X109119047Y-89750000D01*
X109166666Y-89797619D01*
X109214285Y-89892857D01*
X109261904Y-90083333D01*
X109261904Y-90321428D01*
X109214285Y-90511904D01*
X109166666Y-90607142D01*
X109119047Y-90654761D01*
X109023809Y-90702380D01*
X108928571Y-90702380D01*
X108833333Y-90654761D01*
X108785714Y-90607142D01*
X108738095Y-90511904D01*
X108690476Y-90321428D01*
X108690476Y-90083333D01*
X108738095Y-89892857D01*
X108785714Y-89797619D01*
X108833333Y-89750000D01*
X108928571Y-89702380D01*
X109690476Y-90702380D02*
X109690476Y-89702380D01*
X110261904Y-90702380D02*
X109833333Y-90130952D01*
X110261904Y-89702380D02*
X109690476Y-90273809D01*
G04 #@! TO.C,ResetButton1*
X112702380Y-101392857D02*
X112226190Y-101726190D01*
X112702380Y-101964285D02*
X111702380Y-101964285D01*
X111702380Y-101583333D01*
X111750000Y-101488095D01*
X111797619Y-101440476D01*
X111892857Y-101392857D01*
X112035714Y-101392857D01*
X112130952Y-101440476D01*
X112178571Y-101488095D01*
X112226190Y-101583333D01*
X112226190Y-101964285D01*
X112654761Y-100583333D02*
X112702380Y-100678571D01*
X112702380Y-100869047D01*
X112654761Y-100964285D01*
X112559523Y-101011904D01*
X112178571Y-101011904D01*
X112083333Y-100964285D01*
X112035714Y-100869047D01*
X112035714Y-100678571D01*
X112083333Y-100583333D01*
X112178571Y-100535714D01*
X112273809Y-100535714D01*
X112369047Y-101011904D01*
X112654761Y-100154761D02*
X112702380Y-100059523D01*
X112702380Y-99869047D01*
X112654761Y-99773809D01*
X112559523Y-99726190D01*
X112511904Y-99726190D01*
X112416666Y-99773809D01*
X112369047Y-99869047D01*
X112369047Y-100011904D01*
X112321428Y-100107142D01*
X112226190Y-100154761D01*
X112178571Y-100154761D01*
X112083333Y-100107142D01*
X112035714Y-100011904D01*
X112035714Y-99869047D01*
X112083333Y-99773809D01*
X112654761Y-98916666D02*
X112702380Y-99011904D01*
X112702380Y-99202380D01*
X112654761Y-99297619D01*
X112559523Y-99345238D01*
X112178571Y-99345238D01*
X112083333Y-99297619D01*
X112035714Y-99202380D01*
X112035714Y-99011904D01*
X112083333Y-98916666D01*
X112178571Y-98869047D01*
X112273809Y-98869047D01*
X112369047Y-99345238D01*
X112035714Y-98583333D02*
X112035714Y-98202380D01*
X111702380Y-98440476D02*
X112559523Y-98440476D01*
X112654761Y-98392857D01*
X112702380Y-98297619D01*
X112702380Y-98202380D01*
X112178571Y-97535714D02*
X112226190Y-97392857D01*
X112273809Y-97345238D01*
X112369047Y-97297619D01*
X112511904Y-97297619D01*
X112607142Y-97345238D01*
X112654761Y-97392857D01*
X112702380Y-97488095D01*
X112702380Y-97869047D01*
X111702380Y-97869047D01*
X111702380Y-97535714D01*
X111750000Y-97440476D01*
X111797619Y-97392857D01*
X111892857Y-97345238D01*
X111988095Y-97345238D01*
X112083333Y-97392857D01*
X112130952Y-97440476D01*
X112178571Y-97535714D01*
X112178571Y-97869047D01*
X112035714Y-96440476D02*
X112702380Y-96440476D01*
X112035714Y-96869047D02*
X112559523Y-96869047D01*
X112654761Y-96821428D01*
X112702380Y-96726190D01*
X112702380Y-96583333D01*
X112654761Y-96488095D01*
X112607142Y-96440476D01*
X112035714Y-96107142D02*
X112035714Y-95726190D01*
X111702380Y-95964285D02*
X112559523Y-95964285D01*
X112654761Y-95916666D01*
X112702380Y-95821428D01*
X112702380Y-95726190D01*
X112035714Y-95535714D02*
X112035714Y-95154761D01*
X111702380Y-95392857D02*
X112559523Y-95392857D01*
X112654761Y-95345238D01*
X112702380Y-95250000D01*
X112702380Y-95154761D01*
X112702380Y-94678571D02*
X112654761Y-94773809D01*
X112607142Y-94821428D01*
X112511904Y-94869047D01*
X112226190Y-94869047D01*
X112130952Y-94821428D01*
X112083333Y-94773809D01*
X112035714Y-94678571D01*
X112035714Y-94535714D01*
X112083333Y-94440476D01*
X112130952Y-94392857D01*
X112226190Y-94345238D01*
X112511904Y-94345238D01*
X112607142Y-94392857D01*
X112654761Y-94440476D01*
X112702380Y-94535714D01*
X112702380Y-94678571D01*
X112035714Y-93916666D02*
X112702380Y-93916666D01*
X112130952Y-93916666D02*
X112083333Y-93869047D01*
X112035714Y-93773809D01*
X112035714Y-93630952D01*
X112083333Y-93535714D01*
X112178571Y-93488095D01*
X112702380Y-93488095D01*
X112702380Y-92488095D02*
X112702380Y-93059523D01*
X112702380Y-92773809D02*
X111702380Y-92773809D01*
X111845238Y-92869047D01*
X111940476Y-92964285D01*
X111988095Y-93059523D01*
G04 #@! TO.C,ToggleSwitch1*
X113702380Y-82964285D02*
X113702380Y-82392857D01*
X114702380Y-82678571D02*
X113702380Y-82678571D01*
X114702380Y-81916666D02*
X114654761Y-82011904D01*
X114607142Y-82059523D01*
X114511904Y-82107142D01*
X114226190Y-82107142D01*
X114130952Y-82059523D01*
X114083333Y-82011904D01*
X114035714Y-81916666D01*
X114035714Y-81773809D01*
X114083333Y-81678571D01*
X114130952Y-81630952D01*
X114226190Y-81583333D01*
X114511904Y-81583333D01*
X114607142Y-81630952D01*
X114654761Y-81678571D01*
X114702380Y-81773809D01*
X114702380Y-81916666D01*
X114035714Y-80726190D02*
X114845238Y-80726190D01*
X114940476Y-80773809D01*
X114988095Y-80821428D01*
X115035714Y-80916666D01*
X115035714Y-81059523D01*
X114988095Y-81154761D01*
X114654761Y-80726190D02*
X114702380Y-80821428D01*
X114702380Y-81011904D01*
X114654761Y-81107142D01*
X114607142Y-81154761D01*
X114511904Y-81202380D01*
X114226190Y-81202380D01*
X114130952Y-81154761D01*
X114083333Y-81107142D01*
X114035714Y-81011904D01*
X114035714Y-80821428D01*
X114083333Y-80726190D01*
X114035714Y-79821428D02*
X114845238Y-79821428D01*
X114940476Y-79869047D01*
X114988095Y-79916666D01*
X115035714Y-80011904D01*
X115035714Y-80154761D01*
X114988095Y-80250000D01*
X114654761Y-79821428D02*
X114702380Y-79916666D01*
X114702380Y-80107142D01*
X114654761Y-80202380D01*
X114607142Y-80250000D01*
X114511904Y-80297619D01*
X114226190Y-80297619D01*
X114130952Y-80250000D01*
X114083333Y-80202380D01*
X114035714Y-80107142D01*
X114035714Y-79916666D01*
X114083333Y-79821428D01*
X114702380Y-79202380D02*
X114654761Y-79297619D01*
X114559523Y-79345238D01*
X113702380Y-79345238D01*
X114654761Y-78440476D02*
X114702380Y-78535714D01*
X114702380Y-78726190D01*
X114654761Y-78821428D01*
X114559523Y-78869047D01*
X114178571Y-78869047D01*
X114083333Y-78821428D01*
X114035714Y-78726190D01*
X114035714Y-78535714D01*
X114083333Y-78440476D01*
X114178571Y-78392857D01*
X114273809Y-78392857D01*
X114369047Y-78869047D01*
X114654761Y-78011904D02*
X114702380Y-77869047D01*
X114702380Y-77630952D01*
X114654761Y-77535714D01*
X114607142Y-77488095D01*
X114511904Y-77440476D01*
X114416666Y-77440476D01*
X114321428Y-77488095D01*
X114273809Y-77535714D01*
X114226190Y-77630952D01*
X114178571Y-77821428D01*
X114130952Y-77916666D01*
X114083333Y-77964285D01*
X113988095Y-78011904D01*
X113892857Y-78011904D01*
X113797619Y-77964285D01*
X113750000Y-77916666D01*
X113702380Y-77821428D01*
X113702380Y-77583333D01*
X113750000Y-77440476D01*
X114035714Y-77107142D02*
X114702380Y-76916666D01*
X114226190Y-76726190D01*
X114702380Y-76535714D01*
X114035714Y-76345238D01*
X114702380Y-75964285D02*
X114035714Y-75964285D01*
X113702380Y-75964285D02*
X113750000Y-76011904D01*
X113797619Y-75964285D01*
X113750000Y-75916666D01*
X113702380Y-75964285D01*
X113797619Y-75964285D01*
X114035714Y-75630952D02*
X114035714Y-75250000D01*
X113702380Y-75488095D02*
X114559523Y-75488095D01*
X114654761Y-75440476D01*
X114702380Y-75345238D01*
X114702380Y-75250000D01*
X114654761Y-74488095D02*
X114702380Y-74583333D01*
X114702380Y-74773809D01*
X114654761Y-74869047D01*
X114607142Y-74916666D01*
X114511904Y-74964285D01*
X114226190Y-74964285D01*
X114130952Y-74916666D01*
X114083333Y-74869047D01*
X114035714Y-74773809D01*
X114035714Y-74583333D01*
X114083333Y-74488095D01*
X114702380Y-74059523D02*
X113702380Y-74059523D01*
X114702380Y-73630952D02*
X114178571Y-73630952D01*
X114083333Y-73678571D01*
X114035714Y-73773809D01*
X114035714Y-73916666D01*
X114083333Y-74011904D01*
X114130952Y-74059523D01*
X114702380Y-72630952D02*
X114702380Y-73202380D01*
X114702380Y-72916666D02*
X113702380Y-72916666D01*
X113845238Y-73011904D01*
X113940476Y-73107142D01*
X113988095Y-73202380D01*
G04 #@! TD*
M02*
