G04 #@! TF.GenerationSoftware,KiCad,Pcbnew,5.1.4-e60b266~84~ubuntu19.04.1*
G04 #@! TF.CreationDate,2019-09-18T16:20:32+02:00*
G04 #@! TF.ProjectId,pro_micro_audio,70726f5f-6d69-4637-926f-5f617564696f,rev?*
G04 #@! TF.SameCoordinates,Original*
G04 #@! TF.FileFunction,Copper,L2,Bot*
G04 #@! TF.FilePolarity,Positive*
%FSLAX46Y46*%
G04 Gerber Fmt 4.6, Leading zero omitted, Abs format (unit mm)*
G04 Created by KiCad (PCBNEW 5.1.4-e60b266~84~ubuntu19.04.1) date 2019-09-18 16:20:32*
%MOMM*%
%LPD*%
G04 APERTURE LIST*
G04 #@! TA.AperFunction,ComponentPad*
%ADD10C,2.000000*%
G04 #@! TD*
G04 #@! TA.AperFunction,ComponentPad*
%ADD11C,5.600000*%
G04 #@! TD*
G04 #@! TA.AperFunction,ComponentPad*
%ADD12C,1.879600*%
G04 #@! TD*
G04 #@! TA.AperFunction,ComponentPad*
%ADD13C,1.600000*%
G04 #@! TD*
G04 #@! TA.AperFunction,ComponentPad*
%ADD14R,1.700000X1.700000*%
G04 #@! TD*
G04 #@! TA.AperFunction,ComponentPad*
%ADD15O,1.700000X1.700000*%
G04 #@! TD*
G04 #@! TA.AperFunction,ComponentPad*
%ADD16O,1.600000X1.600000*%
G04 #@! TD*
G04 #@! TA.AperFunction,ViaPad*
%ADD17C,0.800000*%
G04 #@! TD*
G04 #@! TA.AperFunction,Conductor*
%ADD18C,1.000000*%
G04 #@! TD*
G04 #@! TA.AperFunction,Conductor*
%ADD19C,0.500000*%
G04 #@! TD*
G04 APERTURE END LIST*
D10*
G04 #@! TO.P,C1,1*
G04 #@! TO.N,Net-(C1-Pad1)*
X139820000Y-87376000D03*
G04 #@! TO.P,C1,2*
G04 #@! TO.N,GND*
X147320000Y-87376000D03*
G04 #@! TD*
D11*
G04 #@! TO.P,REF\002A\002A,1*
G04 #@! TO.N,N/C*
X105000000Y-104000000D03*
G04 #@! TD*
G04 #@! TO.P,REF\002A\002A,1*
G04 #@! TO.N,N/C*
X160000000Y-104000000D03*
G04 #@! TD*
G04 #@! TO.P,REF\002A\002A,1*
G04 #@! TO.N,N/C*
X105000000Y-77000000D03*
G04 #@! TD*
G04 #@! TO.P,REF\002A\002A,1*
G04 #@! TO.N,N/C*
X160000000Y-77000000D03*
G04 #@! TD*
D12*
G04 #@! TO.P,CHEAP_PRO_MICRO1,1*
G04 #@! TO.N,Net-(CHEAP_PRO_MICRO1-Pad1)*
X117665501Y-76771501D03*
G04 #@! TO.P,CHEAP_PRO_MICRO1,2*
G04 #@! TO.N,Net-(CHEAP_PRO_MICRO1-Pad2)*
X117665501Y-79311501D03*
G04 #@! TO.P,CHEAP_PRO_MICRO1,3*
G04 #@! TO.N,Net-(CHEAP_PRO_MICRO1-Pad3)*
X117665501Y-81851501D03*
G04 #@! TO.P,CHEAP_PRO_MICRO1,4*
G04 #@! TO.N,GND*
X117665501Y-84391501D03*
G04 #@! TO.P,CHEAP_PRO_MICRO1,5*
G04 #@! TO.N,Net-(CHEAP_PRO_MICRO1-Pad5)*
X117665501Y-86931501D03*
G04 #@! TO.P,CHEAP_PRO_MICRO1,6*
G04 #@! TO.N,Net-(CHEAP_PRO_MICRO1-Pad6)*
X117665501Y-89471501D03*
G04 #@! TO.P,CHEAP_PRO_MICRO1,7*
G04 #@! TO.N,Net-(CHEAP_PRO_MICRO1-Pad7)*
X117665501Y-92011501D03*
G04 #@! TO.P,CHEAP_PRO_MICRO1,8*
G04 #@! TO.N,Net-(CHEAP_PRO_MICRO1-Pad8)*
X117665501Y-94551501D03*
G04 #@! TO.P,CHEAP_PRO_MICRO1,9*
G04 #@! TO.N,Net-(CHEAP_PRO_MICRO1-Pad9)*
X117665501Y-97091501D03*
G04 #@! TO.P,CHEAP_PRO_MICRO1,10*
G04 #@! TO.N,Net-(CHEAP_PRO_MICRO1-Pad10)*
X117665501Y-99631501D03*
G04 #@! TO.P,CHEAP_PRO_MICRO1,11*
G04 #@! TO.N,Net-(CHEAP_PRO_MICRO1-Pad11)*
X117665501Y-102171501D03*
G04 #@! TO.P,CHEAP_PRO_MICRO1,12*
G04 #@! TO.N,Net-(CHEAP_PRO_MICRO1-Pad12)*
X117665501Y-104711501D03*
G04 #@! TO.P,CHEAP_PRO_MICRO1,13*
G04 #@! TO.N,Net-(CHEAP_PRO_MICRO1-Pad13)*
X132905501Y-104711501D03*
G04 #@! TO.P,CHEAP_PRO_MICRO1,14*
G04 #@! TO.N,Net-(CHEAP_PRO_MICRO1-Pad14)*
X132905501Y-102171501D03*
G04 #@! TO.P,CHEAP_PRO_MICRO1,15*
G04 #@! TO.N,Net-(CHEAP_PRO_MICRO1-Pad15)*
X132905501Y-99631501D03*
G04 #@! TO.P,CHEAP_PRO_MICRO1,16*
G04 #@! TO.N,Net-(CHEAP_PRO_MICRO1-Pad16)*
X132905501Y-97091501D03*
G04 #@! TO.P,CHEAP_PRO_MICRO1,17*
G04 #@! TO.N,/SW*
X132905501Y-94551501D03*
G04 #@! TO.P,CHEAP_PRO_MICRO1,18*
G04 #@! TO.N,/DT*
X132905501Y-92011501D03*
G04 #@! TO.P,CHEAP_PRO_MICRO1,19*
G04 #@! TO.N,/CLK*
X132905501Y-89471501D03*
G04 #@! TO.P,CHEAP_PRO_MICRO1,20*
G04 #@! TO.N,Net-(CHEAP_PRO_MICRO1-Pad20)*
X132905501Y-86931501D03*
G04 #@! TO.P,CHEAP_PRO_MICRO1,21*
G04 #@! TO.N,Net-(C1-Pad1)*
X132905501Y-84391501D03*
G04 #@! TO.P,CHEAP_PRO_MICRO1,22*
G04 #@! TO.N,Net-(CHEAP_PRO_MICRO1-Pad22)*
X132905501Y-81851501D03*
G04 #@! TO.P,CHEAP_PRO_MICRO1,23*
G04 #@! TO.N,GND*
X132905501Y-79311501D03*
G04 #@! TO.P,CHEAP_PRO_MICRO1,24*
G04 #@! TO.N,Net-(CHEAP_PRO_MICRO1-Pad24)*
X132905501Y-76771501D03*
G04 #@! TD*
D13*
G04 #@! TO.P,C2,1*
G04 #@! TO.N,Net-(C1-Pad1)*
X154750000Y-87500000D03*
G04 #@! TO.P,C2,2*
G04 #@! TO.N,GND*
X156750000Y-87500000D03*
G04 #@! TD*
D14*
G04 #@! TO.P,KY-40,1*
G04 #@! TO.N,GND*
X149250000Y-105000000D03*
D15*
G04 #@! TO.P,KY-40,2*
G04 #@! TO.N,Net-(C1-Pad1)*
X146710000Y-105000000D03*
G04 #@! TO.P,KY-40,3*
G04 #@! TO.N,/SW*
X149250000Y-102460000D03*
G04 #@! TO.P,KY-40,4*
G04 #@! TO.N,/DT*
X146710000Y-102460000D03*
G04 #@! TO.P,KY-40,5*
G04 #@! TO.N,/CLK*
X149250000Y-99920000D03*
G04 #@! TO.P,KY-40,6*
G04 #@! TO.N,Net-(KY-40-Pad6)*
X146710000Y-99920000D03*
G04 #@! TD*
D14*
G04 #@! TO.P,PinHeader1,1*
G04 #@! TO.N,Net-(PinHeader1-Pad1)*
X154000000Y-75460000D03*
D15*
G04 #@! TO.P,PinHeader1,2*
G04 #@! TO.N,Net-(C1-Pad1)*
X154000000Y-78000000D03*
G04 #@! TO.P,PinHeader1,3*
G04 #@! TO.N,GND*
X154000000Y-80540000D03*
G04 #@! TD*
D13*
G04 #@! TO.P,R1,1*
G04 #@! TO.N,Net-(PinHeader1-Pad1)*
X147000000Y-76000000D03*
D16*
G04 #@! TO.P,R1,2*
G04 #@! TO.N,Net-(CHEAP_PRO_MICRO1-Pad13)*
X136840000Y-76000000D03*
G04 #@! TD*
G04 #@! TO.P,R2,2*
G04 #@! TO.N,Net-(CHEAP_PRO_MICRO1-Pad6)*
X103378000Y-85852000D03*
D13*
G04 #@! TO.P,R2,1*
G04 #@! TO.N,GND*
X113538000Y-85852000D03*
G04 #@! TD*
G04 #@! TO.P,R3,1*
G04 #@! TO.N,Net-(C1-Pad1)*
X113538000Y-90170000D03*
D16*
G04 #@! TO.P,R3,2*
G04 #@! TO.N,Net-(CHEAP_PRO_MICRO1-Pad22)*
X103378000Y-90170000D03*
G04 #@! TD*
D15*
G04 #@! TO.P,ResetButton1,2*
G04 #@! TO.N,Net-(CHEAP_PRO_MICRO1-Pad22)*
X109750000Y-98790000D03*
D14*
G04 #@! TO.P,ResetButton1,1*
G04 #@! TO.N,GND*
X109750000Y-96250000D03*
G04 #@! TD*
G04 #@! TO.P,ToggleSwitch1,1*
G04 #@! TO.N,Net-(CHEAP_PRO_MICRO1-Pad6)*
X111750000Y-76460000D03*
D15*
G04 #@! TO.P,ToggleSwitch1,2*
G04 #@! TO.N,Net-(C1-Pad1)*
X111750000Y-79000000D03*
G04 #@! TD*
D17*
G04 #@! TO.N,GND*
X162750000Y-97250000D03*
X162750000Y-91750000D03*
X162750000Y-84500000D03*
X154750000Y-107250000D03*
X128000000Y-93500000D03*
X121500000Y-91750000D03*
X108750000Y-107000000D03*
X102500000Y-97250000D03*
X102500000Y-81250000D03*
X109750000Y-72750000D03*
X141250000Y-73000000D03*
G04 #@! TD*
D18*
G04 #@! TO.N,Net-(C1-Pad1)*
X112952081Y-79000000D02*
X111750000Y-79000000D01*
X114750000Y-77202081D02*
X112952081Y-79000000D01*
X114750000Y-75000000D02*
X114750000Y-77202081D01*
X132516906Y-73660000D02*
X116090000Y-73660000D01*
X133845300Y-83451702D02*
X134028206Y-83451702D01*
X134745302Y-82734606D02*
X134745302Y-75888396D01*
X134745302Y-75888396D02*
X132516906Y-73660000D01*
X116090000Y-73660000D02*
X114750000Y-75000000D01*
X132905501Y-84391501D02*
X133845300Y-83451702D01*
X134028206Y-83451702D02*
X134745302Y-82734606D01*
X111750000Y-88382000D02*
X111750000Y-79000000D01*
X113538000Y-90170000D02*
X111750000Y-88382000D01*
X132022396Y-106551302D02*
X130000000Y-104528906D01*
X146710000Y-105000000D02*
X145158698Y-106551302D01*
X145158698Y-106551302D02*
X132022396Y-106551302D01*
X131576424Y-84391501D02*
X132905501Y-84391501D01*
X130000000Y-85967925D02*
X131576424Y-84391501D01*
X130000000Y-104528906D02*
X130000000Y-85967925D01*
G04 #@! TO.N,Net-(CHEAP_PRO_MICRO1-Pad13)*
X132905501Y-104711501D02*
X132905501Y-104598407D01*
X136906000Y-102167077D02*
X136840000Y-76000000D01*
X134298077Y-104775000D02*
X136906000Y-102167077D01*
X132905501Y-104711501D02*
X134234578Y-104711501D01*
X134234578Y-104711501D02*
X134298077Y-104775000D01*
G04 #@! TO.N,Net-(CHEAP_PRO_MICRO1-Pad22)*
X125476000Y-106299000D02*
X125020302Y-106351302D01*
X125476000Y-87951925D02*
X125476000Y-106299000D01*
X131576424Y-81851501D02*
X125476000Y-87951925D01*
X132905501Y-81851501D02*
X131576424Y-81851501D01*
X109750000Y-101750000D02*
X109750000Y-98790000D01*
X118548606Y-106551302D02*
X114551302Y-106551302D01*
X114551302Y-106551302D02*
X109750000Y-101750000D01*
X125476000Y-106299000D02*
X125500000Y-106500000D01*
X125500000Y-106500000D02*
X118548606Y-106551302D01*
X105000000Y-91792000D02*
X103378000Y-90170000D01*
X109750000Y-101750000D02*
X105000000Y-97000000D01*
X105000000Y-97000000D02*
X105000000Y-91792000D01*
G04 #@! TD*
D19*
G04 #@! TO.N,GND*
G36*
X128742000Y-104467114D02*
G01*
X128735914Y-104528906D01*
X128742000Y-104590697D01*
X128760203Y-104775516D01*
X128832137Y-105012650D01*
X128948951Y-105231194D01*
X129106156Y-105422750D01*
X129154164Y-105462149D01*
X131089157Y-107397143D01*
X131128552Y-107445146D01*
X131155181Y-107467000D01*
X126312459Y-107467000D01*
X126321948Y-107460372D01*
X126359143Y-107421607D01*
X126400415Y-107387223D01*
X126444718Y-107332420D01*
X126493514Y-107281564D01*
X126522432Y-107236287D01*
X126556202Y-107194513D01*
X126588961Y-107132121D01*
X126626899Y-107072722D01*
X126646429Y-107022671D01*
X126671400Y-106975113D01*
X126691356Y-106907534D01*
X126716979Y-106841870D01*
X126726370Y-106788967D01*
X126741582Y-106737454D01*
X126747972Y-106667274D01*
X126760290Y-106597880D01*
X126759180Y-106544170D01*
X126764051Y-106490672D01*
X126756626Y-106420596D01*
X126756453Y-106412206D01*
X126750103Y-106359024D01*
X126737942Y-106244247D01*
X126735437Y-106236205D01*
X126734000Y-106224167D01*
X126734000Y-88473004D01*
X128742001Y-86465004D01*
X128742000Y-104467114D01*
X128742000Y-104467114D01*
G37*
X128742000Y-104467114D02*
X128735914Y-104528906D01*
X128742000Y-104590697D01*
X128760203Y-104775516D01*
X128832137Y-105012650D01*
X128948951Y-105231194D01*
X129106156Y-105422750D01*
X129154164Y-105462149D01*
X131089157Y-107397143D01*
X131128552Y-107445146D01*
X131155181Y-107467000D01*
X126312459Y-107467000D01*
X126321948Y-107460372D01*
X126359143Y-107421607D01*
X126400415Y-107387223D01*
X126444718Y-107332420D01*
X126493514Y-107281564D01*
X126522432Y-107236287D01*
X126556202Y-107194513D01*
X126588961Y-107132121D01*
X126626899Y-107072722D01*
X126646429Y-107022671D01*
X126671400Y-106975113D01*
X126691356Y-106907534D01*
X126716979Y-106841870D01*
X126726370Y-106788967D01*
X126741582Y-106737454D01*
X126747972Y-106667274D01*
X126760290Y-106597880D01*
X126759180Y-106544170D01*
X126764051Y-106490672D01*
X126756626Y-106420596D01*
X126756453Y-106412206D01*
X126750103Y-106359024D01*
X126737942Y-106244247D01*
X126735437Y-106236205D01*
X126734000Y-106224167D01*
X126734000Y-88473004D01*
X128742001Y-86465004D01*
X128742000Y-104467114D01*
G36*
X102508234Y-91471697D02*
G01*
X102778895Y-91616369D01*
X103072579Y-91705457D01*
X103141129Y-91712208D01*
X103742001Y-92313081D01*
X103742000Y-96938208D01*
X103735914Y-97000000D01*
X103742000Y-97061791D01*
X103760203Y-97246610D01*
X103832137Y-97483744D01*
X103948951Y-97702288D01*
X104106156Y-97893844D01*
X104154164Y-97933243D01*
X108816765Y-102595846D01*
X108856156Y-102643844D01*
X108904164Y-102683243D01*
X113618067Y-107397148D01*
X113657458Y-107445146D01*
X113684087Y-107467000D01*
X105807920Y-107467000D01*
X106037830Y-107421268D01*
X106685345Y-107153059D01*
X107268093Y-106763679D01*
X107763679Y-106268093D01*
X108153059Y-105685345D01*
X108421268Y-105037830D01*
X108558000Y-104350432D01*
X108558000Y-103649568D01*
X108421268Y-102962170D01*
X108153059Y-102314655D01*
X107763679Y-101731907D01*
X107268093Y-101236321D01*
X106685345Y-100846941D01*
X106037830Y-100578732D01*
X105350432Y-100442000D01*
X104649568Y-100442000D01*
X103962170Y-100578732D01*
X103314655Y-100846941D01*
X102731907Y-101236321D01*
X102283000Y-101685228D01*
X102283000Y-91286854D01*
X102508234Y-91471697D01*
X102508234Y-91471697D01*
G37*
X102508234Y-91471697D02*
X102778895Y-91616369D01*
X103072579Y-91705457D01*
X103141129Y-91712208D01*
X103742001Y-92313081D01*
X103742000Y-96938208D01*
X103735914Y-97000000D01*
X103742000Y-97061791D01*
X103760203Y-97246610D01*
X103832137Y-97483744D01*
X103948951Y-97702288D01*
X104106156Y-97893844D01*
X104154164Y-97933243D01*
X108816765Y-102595846D01*
X108856156Y-102643844D01*
X108904164Y-102683243D01*
X113618067Y-107397148D01*
X113657458Y-107445146D01*
X113684087Y-107467000D01*
X105807920Y-107467000D01*
X106037830Y-107421268D01*
X106685345Y-107153059D01*
X107268093Y-106763679D01*
X107763679Y-106268093D01*
X108153059Y-105685345D01*
X108421268Y-105037830D01*
X108558000Y-104350432D01*
X108558000Y-103649568D01*
X108421268Y-102962170D01*
X108153059Y-102314655D01*
X107763679Y-101731907D01*
X107268093Y-101236321D01*
X106685345Y-100846941D01*
X106037830Y-100578732D01*
X105350432Y-100442000D01*
X104649568Y-100442000D01*
X103962170Y-100578732D01*
X103314655Y-100846941D01*
X102731907Y-101236321D01*
X102283000Y-101685228D01*
X102283000Y-91286854D01*
X102508234Y-91471697D01*
G36*
X162967001Y-75036200D02*
G01*
X162763679Y-74731907D01*
X162268093Y-74236321D01*
X161685345Y-73846941D01*
X161037830Y-73578732D01*
X160350432Y-73442000D01*
X159649568Y-73442000D01*
X158962170Y-73578732D01*
X158314655Y-73846941D01*
X157731907Y-74236321D01*
X157236321Y-74731907D01*
X156846941Y-75314655D01*
X156578732Y-75962170D01*
X156442000Y-76649568D01*
X156442000Y-77350432D01*
X156578732Y-78037830D01*
X156846941Y-78685345D01*
X157236321Y-79268093D01*
X157731907Y-79763679D01*
X158314655Y-80153059D01*
X158962170Y-80421268D01*
X159649568Y-80558000D01*
X160350432Y-80558000D01*
X161037830Y-80421268D01*
X161685345Y-80153059D01*
X162268093Y-79763679D01*
X162763679Y-79268093D01*
X162967001Y-78963801D01*
X162967000Y-102036198D01*
X162763679Y-101731907D01*
X162268093Y-101236321D01*
X161685345Y-100846941D01*
X161037830Y-100578732D01*
X160350432Y-100442000D01*
X159649568Y-100442000D01*
X158962170Y-100578732D01*
X158314655Y-100846941D01*
X157731907Y-101236321D01*
X157236321Y-101731907D01*
X156846941Y-102314655D01*
X156578732Y-102962170D01*
X156442000Y-103649568D01*
X156442000Y-104350432D01*
X156578732Y-105037830D01*
X156846941Y-105685345D01*
X157236321Y-106268093D01*
X157731907Y-106763679D01*
X158314655Y-107153059D01*
X158962170Y-107421268D01*
X159192080Y-107467000D01*
X146025913Y-107467000D01*
X146052542Y-107445146D01*
X146091941Y-107397138D01*
X146891141Y-106597939D01*
X147025223Y-106584733D01*
X147328332Y-106492786D01*
X147607679Y-106343472D01*
X147744334Y-106231323D01*
X147766696Y-106273160D01*
X147861419Y-106388581D01*
X147976840Y-106483304D01*
X148108522Y-106553689D01*
X148251406Y-106597033D01*
X148400000Y-106611668D01*
X149056500Y-106608000D01*
X149246000Y-106418500D01*
X149246000Y-105004000D01*
X149254000Y-105004000D01*
X149254000Y-106418500D01*
X149443500Y-106608000D01*
X150100000Y-106611668D01*
X150248594Y-106597033D01*
X150391478Y-106553689D01*
X150523160Y-106483304D01*
X150638581Y-106388581D01*
X150733304Y-106273160D01*
X150803689Y-106141478D01*
X150847033Y-105998594D01*
X150861668Y-105850000D01*
X150858000Y-105193500D01*
X150668500Y-105004000D01*
X149254000Y-105004000D01*
X149246000Y-105004000D01*
X149226000Y-105004000D01*
X149226000Y-104996000D01*
X149246000Y-104996000D01*
X149246000Y-104976000D01*
X149254000Y-104976000D01*
X149254000Y-104996000D01*
X150668500Y-104996000D01*
X150858000Y-104806500D01*
X150861668Y-104150000D01*
X150847033Y-104001406D01*
X150803689Y-103858522D01*
X150733304Y-103726840D01*
X150638581Y-103611419D01*
X150523160Y-103516696D01*
X150481323Y-103494334D01*
X150593472Y-103357679D01*
X150742786Y-103078332D01*
X150834733Y-102775223D01*
X150865780Y-102460000D01*
X150834733Y-102144777D01*
X150742786Y-101841668D01*
X150593472Y-101562321D01*
X150392529Y-101317471D01*
X150237205Y-101190000D01*
X150392529Y-101062529D01*
X150593472Y-100817679D01*
X150742786Y-100538332D01*
X150834733Y-100235223D01*
X150865780Y-99920000D01*
X150834733Y-99604777D01*
X150742786Y-99301668D01*
X150593472Y-99022321D01*
X150392529Y-98777471D01*
X150147679Y-98576528D01*
X149868332Y-98427214D01*
X149565223Y-98335267D01*
X149328991Y-98312000D01*
X149171009Y-98312000D01*
X148934777Y-98335267D01*
X148631668Y-98427214D01*
X148352321Y-98576528D01*
X148107471Y-98777471D01*
X147980000Y-98932795D01*
X147852529Y-98777471D01*
X147607679Y-98576528D01*
X147328332Y-98427214D01*
X147025223Y-98335267D01*
X146788991Y-98312000D01*
X146631009Y-98312000D01*
X146394777Y-98335267D01*
X146091668Y-98427214D01*
X145812321Y-98576528D01*
X145567471Y-98777471D01*
X145366528Y-99022321D01*
X145217214Y-99301668D01*
X145125267Y-99604777D01*
X145094220Y-99920000D01*
X145125267Y-100235223D01*
X145217214Y-100538332D01*
X145366528Y-100817679D01*
X145567471Y-101062529D01*
X145722795Y-101190000D01*
X145567471Y-101317471D01*
X145366528Y-101562321D01*
X145217214Y-101841668D01*
X145125267Y-102144777D01*
X145094220Y-102460000D01*
X145125267Y-102775223D01*
X145217214Y-103078332D01*
X145366528Y-103357679D01*
X145567471Y-103602529D01*
X145722795Y-103730000D01*
X145567471Y-103857471D01*
X145366528Y-104102321D01*
X145217214Y-104381668D01*
X145125267Y-104684777D01*
X145112061Y-104818859D01*
X144637618Y-105293302D01*
X135558854Y-105293302D01*
X137752972Y-103099185D01*
X137802095Y-103058663D01*
X137879415Y-102963963D01*
X137957049Y-102869366D01*
X137957805Y-102867951D01*
X137958817Y-102866712D01*
X138016102Y-102758886D01*
X138073863Y-102650822D01*
X138074329Y-102649286D01*
X138075079Y-102647874D01*
X138110231Y-102530933D01*
X138145797Y-102413688D01*
X138145954Y-102412092D01*
X138146415Y-102410559D01*
X138158068Y-102289096D01*
X138170086Y-102167078D01*
X138163843Y-102103695D01*
X138127970Y-87880801D01*
X138129559Y-87888790D01*
X138262081Y-88208725D01*
X138454472Y-88496660D01*
X138699340Y-88741528D01*
X138987275Y-88933919D01*
X139307210Y-89066441D01*
X139646852Y-89134000D01*
X139993148Y-89134000D01*
X140332790Y-89066441D01*
X140652725Y-88933919D01*
X140940660Y-88741528D01*
X141185528Y-88496660D01*
X141187347Y-88493937D01*
X146207720Y-88493937D01*
X146284912Y-88807480D01*
X146584069Y-88981911D01*
X146911508Y-89094627D01*
X147254645Y-89141296D01*
X147600293Y-89120127D01*
X147935169Y-89031932D01*
X148246405Y-88880100D01*
X148355088Y-88807480D01*
X148432280Y-88493937D01*
X147320000Y-87381657D01*
X146207720Y-88493937D01*
X141187347Y-88493937D01*
X141377919Y-88208725D01*
X141510441Y-87888790D01*
X141578000Y-87549148D01*
X141578000Y-87310645D01*
X145554704Y-87310645D01*
X145575873Y-87656293D01*
X145664068Y-87991169D01*
X145815900Y-88302405D01*
X145888520Y-88411088D01*
X146202063Y-88488280D01*
X147314343Y-87376000D01*
X147325657Y-87376000D01*
X148437937Y-88488280D01*
X148751480Y-88411088D01*
X148925911Y-88111931D01*
X149038627Y-87784492D01*
X149085296Y-87441355D01*
X149079490Y-87346550D01*
X153192000Y-87346550D01*
X153192000Y-87653450D01*
X153251874Y-87954452D01*
X153369319Y-88237990D01*
X153539823Y-88493167D01*
X153756833Y-88710177D01*
X154012010Y-88880681D01*
X154295548Y-88998126D01*
X154596550Y-89058000D01*
X154903450Y-89058000D01*
X155204452Y-88998126D01*
X155487990Y-88880681D01*
X155743167Y-88710177D01*
X155810205Y-88643139D01*
X155833039Y-88768894D01*
X156098207Y-88923402D01*
X156388423Y-89023211D01*
X156692534Y-89064483D01*
X156998854Y-89045633D01*
X157295611Y-88967385D01*
X157571399Y-88832746D01*
X157666961Y-88768894D01*
X157720173Y-88475830D01*
X156750000Y-87505657D01*
X156735858Y-87519799D01*
X156730201Y-87514142D01*
X156744343Y-87500000D01*
X156755657Y-87500000D01*
X157725830Y-88470173D01*
X158018894Y-88416961D01*
X158173402Y-88151793D01*
X158273211Y-87861577D01*
X158314483Y-87557466D01*
X158295633Y-87251146D01*
X158217385Y-86954389D01*
X158082746Y-86678601D01*
X158018894Y-86583039D01*
X157725830Y-86529827D01*
X156755657Y-87500000D01*
X156744343Y-87500000D01*
X156730201Y-87485858D01*
X156735858Y-87480201D01*
X156750000Y-87494343D01*
X157720173Y-86524170D01*
X157666961Y-86231106D01*
X157401793Y-86076598D01*
X157111577Y-85976789D01*
X156807466Y-85935517D01*
X156501146Y-85954367D01*
X156204389Y-86032615D01*
X155928601Y-86167254D01*
X155833039Y-86231106D01*
X155810205Y-86356861D01*
X155743167Y-86289823D01*
X155487990Y-86119319D01*
X155204452Y-86001874D01*
X154903450Y-85942000D01*
X154596550Y-85942000D01*
X154295548Y-86001874D01*
X154012010Y-86119319D01*
X153756833Y-86289823D01*
X153539823Y-86506833D01*
X153369319Y-86762010D01*
X153251874Y-87045548D01*
X153192000Y-87346550D01*
X149079490Y-87346550D01*
X149064127Y-87095707D01*
X148975932Y-86760831D01*
X148824100Y-86449595D01*
X148751480Y-86340912D01*
X148437937Y-86263720D01*
X147325657Y-87376000D01*
X147314343Y-87376000D01*
X146202063Y-86263720D01*
X145888520Y-86340912D01*
X145714089Y-86640069D01*
X145601373Y-86967508D01*
X145554704Y-87310645D01*
X141578000Y-87310645D01*
X141578000Y-87202852D01*
X141510441Y-86863210D01*
X141377919Y-86543275D01*
X141187348Y-86258063D01*
X146207720Y-86258063D01*
X147320000Y-87370343D01*
X148432280Y-86258063D01*
X148355088Y-85944520D01*
X148055931Y-85770089D01*
X147728492Y-85657373D01*
X147385355Y-85610704D01*
X147039707Y-85631873D01*
X146704831Y-85720068D01*
X146393595Y-85871900D01*
X146284912Y-85944520D01*
X146207720Y-86258063D01*
X141187348Y-86258063D01*
X141185528Y-86255340D01*
X140940660Y-86010472D01*
X140652725Y-85818081D01*
X140332790Y-85685559D01*
X139993148Y-85618000D01*
X139646852Y-85618000D01*
X139307210Y-85685559D01*
X138987275Y-85818081D01*
X138699340Y-86010472D01*
X138454472Y-86255340D01*
X138262081Y-86543275D01*
X138129559Y-86863210D01*
X138125455Y-86883840D01*
X138110100Y-80795497D01*
X152412428Y-80795497D01*
X152435500Y-80911488D01*
X152538035Y-81209569D01*
X152696753Y-81481919D01*
X152905554Y-81718071D01*
X153156414Y-81908950D01*
X153439692Y-82047222D01*
X153744503Y-82127572D01*
X153996000Y-81958495D01*
X153996000Y-80544000D01*
X154004000Y-80544000D01*
X154004000Y-81958495D01*
X154255497Y-82127572D01*
X154560308Y-82047222D01*
X154843586Y-81908950D01*
X155094446Y-81718071D01*
X155303247Y-81481919D01*
X155461965Y-81209569D01*
X155564500Y-80911488D01*
X155587572Y-80795497D01*
X155418494Y-80544000D01*
X154004000Y-80544000D01*
X153996000Y-80544000D01*
X152581506Y-80544000D01*
X152412428Y-80795497D01*
X138110100Y-80795497D01*
X138103049Y-78000000D01*
X152384220Y-78000000D01*
X152415267Y-78315223D01*
X152507214Y-78618332D01*
X152656528Y-78897679D01*
X152857471Y-79142529D01*
X153019326Y-79275360D01*
X152905554Y-79361929D01*
X152696753Y-79598081D01*
X152538035Y-79870431D01*
X152435500Y-80168512D01*
X152412428Y-80284503D01*
X152581506Y-80536000D01*
X153996000Y-80536000D01*
X153996000Y-80516000D01*
X154004000Y-80516000D01*
X154004000Y-80536000D01*
X155418494Y-80536000D01*
X155587572Y-80284503D01*
X155564500Y-80168512D01*
X155461965Y-79870431D01*
X155303247Y-79598081D01*
X155094446Y-79361929D01*
X154980674Y-79275360D01*
X155142529Y-79142529D01*
X155343472Y-78897679D01*
X155492786Y-78618332D01*
X155584733Y-78315223D01*
X155615780Y-78000000D01*
X155584733Y-77684777D01*
X155492786Y-77381668D01*
X155343472Y-77102321D01*
X155231322Y-76965666D01*
X155273160Y-76943303D01*
X155388580Y-76848580D01*
X155483303Y-76733160D01*
X155553689Y-76601477D01*
X155597032Y-76458594D01*
X155611667Y-76310000D01*
X155611667Y-74610000D01*
X155597032Y-74461406D01*
X155553689Y-74318523D01*
X155483303Y-74186840D01*
X155388580Y-74071420D01*
X155273160Y-73976697D01*
X155141477Y-73906311D01*
X154998594Y-73862968D01*
X154850000Y-73848333D01*
X153150000Y-73848333D01*
X153001406Y-73862968D01*
X152858523Y-73906311D01*
X152726840Y-73976697D01*
X152611420Y-74071420D01*
X152516697Y-74186840D01*
X152446311Y-74318523D01*
X152402968Y-74461406D01*
X152388333Y-74610000D01*
X152388333Y-76310000D01*
X152402968Y-76458594D01*
X152446311Y-76601477D01*
X152516697Y-76733160D01*
X152611420Y-76848580D01*
X152726840Y-76943303D01*
X152768678Y-76965666D01*
X152656528Y-77102321D01*
X152507214Y-77381668D01*
X152415267Y-77684777D01*
X152384220Y-78000000D01*
X138103049Y-78000000D01*
X138100325Y-76920179D01*
X138141697Y-76869766D01*
X138286369Y-76599105D01*
X138375457Y-76305421D01*
X138405538Y-76000000D01*
X138390425Y-75846550D01*
X145442000Y-75846550D01*
X145442000Y-76153450D01*
X145501874Y-76454452D01*
X145619319Y-76737990D01*
X145789823Y-76993167D01*
X146006833Y-77210177D01*
X146262010Y-77380681D01*
X146545548Y-77498126D01*
X146846550Y-77558000D01*
X147153450Y-77558000D01*
X147454452Y-77498126D01*
X147737990Y-77380681D01*
X147993167Y-77210177D01*
X148210177Y-76993167D01*
X148380681Y-76737990D01*
X148498126Y-76454452D01*
X148558000Y-76153450D01*
X148558000Y-75846550D01*
X148498126Y-75545548D01*
X148380681Y-75262010D01*
X148210177Y-75006833D01*
X147993167Y-74789823D01*
X147737990Y-74619319D01*
X147454452Y-74501874D01*
X147153450Y-74442000D01*
X146846550Y-74442000D01*
X146545548Y-74501874D01*
X146262010Y-74619319D01*
X146006833Y-74789823D01*
X145789823Y-75006833D01*
X145619319Y-75262010D01*
X145501874Y-75545548D01*
X145442000Y-75846550D01*
X138390425Y-75846550D01*
X138375457Y-75694579D01*
X138286369Y-75400895D01*
X138141697Y-75130234D01*
X137947003Y-74892997D01*
X137709766Y-74698303D01*
X137439105Y-74553631D01*
X137145421Y-74464543D01*
X136916535Y-74442000D01*
X136763465Y-74442000D01*
X136534579Y-74464543D01*
X136240895Y-74553631D01*
X135970234Y-74698303D01*
X135732997Y-74892997D01*
X135644400Y-75000954D01*
X135639146Y-74994552D01*
X135591143Y-74955157D01*
X133450149Y-72814164D01*
X133410750Y-72766156D01*
X133219195Y-72608951D01*
X133077100Y-72533000D01*
X162967001Y-72533000D01*
X162967001Y-75036200D01*
X162967001Y-75036200D01*
G37*
X162967001Y-75036200D02*
X162763679Y-74731907D01*
X162268093Y-74236321D01*
X161685345Y-73846941D01*
X161037830Y-73578732D01*
X160350432Y-73442000D01*
X159649568Y-73442000D01*
X158962170Y-73578732D01*
X158314655Y-73846941D01*
X157731907Y-74236321D01*
X157236321Y-74731907D01*
X156846941Y-75314655D01*
X156578732Y-75962170D01*
X156442000Y-76649568D01*
X156442000Y-77350432D01*
X156578732Y-78037830D01*
X156846941Y-78685345D01*
X157236321Y-79268093D01*
X157731907Y-79763679D01*
X158314655Y-80153059D01*
X158962170Y-80421268D01*
X159649568Y-80558000D01*
X160350432Y-80558000D01*
X161037830Y-80421268D01*
X161685345Y-80153059D01*
X162268093Y-79763679D01*
X162763679Y-79268093D01*
X162967001Y-78963801D01*
X162967000Y-102036198D01*
X162763679Y-101731907D01*
X162268093Y-101236321D01*
X161685345Y-100846941D01*
X161037830Y-100578732D01*
X160350432Y-100442000D01*
X159649568Y-100442000D01*
X158962170Y-100578732D01*
X158314655Y-100846941D01*
X157731907Y-101236321D01*
X157236321Y-101731907D01*
X156846941Y-102314655D01*
X156578732Y-102962170D01*
X156442000Y-103649568D01*
X156442000Y-104350432D01*
X156578732Y-105037830D01*
X156846941Y-105685345D01*
X157236321Y-106268093D01*
X157731907Y-106763679D01*
X158314655Y-107153059D01*
X158962170Y-107421268D01*
X159192080Y-107467000D01*
X146025913Y-107467000D01*
X146052542Y-107445146D01*
X146091941Y-107397138D01*
X146891141Y-106597939D01*
X147025223Y-106584733D01*
X147328332Y-106492786D01*
X147607679Y-106343472D01*
X147744334Y-106231323D01*
X147766696Y-106273160D01*
X147861419Y-106388581D01*
X147976840Y-106483304D01*
X148108522Y-106553689D01*
X148251406Y-106597033D01*
X148400000Y-106611668D01*
X149056500Y-106608000D01*
X149246000Y-106418500D01*
X149246000Y-105004000D01*
X149254000Y-105004000D01*
X149254000Y-106418500D01*
X149443500Y-106608000D01*
X150100000Y-106611668D01*
X150248594Y-106597033D01*
X150391478Y-106553689D01*
X150523160Y-106483304D01*
X150638581Y-106388581D01*
X150733304Y-106273160D01*
X150803689Y-106141478D01*
X150847033Y-105998594D01*
X150861668Y-105850000D01*
X150858000Y-105193500D01*
X150668500Y-105004000D01*
X149254000Y-105004000D01*
X149246000Y-105004000D01*
X149226000Y-105004000D01*
X149226000Y-104996000D01*
X149246000Y-104996000D01*
X149246000Y-104976000D01*
X149254000Y-104976000D01*
X149254000Y-104996000D01*
X150668500Y-104996000D01*
X150858000Y-104806500D01*
X150861668Y-104150000D01*
X150847033Y-104001406D01*
X150803689Y-103858522D01*
X150733304Y-103726840D01*
X150638581Y-103611419D01*
X150523160Y-103516696D01*
X150481323Y-103494334D01*
X150593472Y-103357679D01*
X150742786Y-103078332D01*
X150834733Y-102775223D01*
X150865780Y-102460000D01*
X150834733Y-102144777D01*
X150742786Y-101841668D01*
X150593472Y-101562321D01*
X150392529Y-101317471D01*
X150237205Y-101190000D01*
X150392529Y-101062529D01*
X150593472Y-100817679D01*
X150742786Y-100538332D01*
X150834733Y-100235223D01*
X150865780Y-99920000D01*
X150834733Y-99604777D01*
X150742786Y-99301668D01*
X150593472Y-99022321D01*
X150392529Y-98777471D01*
X150147679Y-98576528D01*
X149868332Y-98427214D01*
X149565223Y-98335267D01*
X149328991Y-98312000D01*
X149171009Y-98312000D01*
X148934777Y-98335267D01*
X148631668Y-98427214D01*
X148352321Y-98576528D01*
X148107471Y-98777471D01*
X147980000Y-98932795D01*
X147852529Y-98777471D01*
X147607679Y-98576528D01*
X147328332Y-98427214D01*
X147025223Y-98335267D01*
X146788991Y-98312000D01*
X146631009Y-98312000D01*
X146394777Y-98335267D01*
X146091668Y-98427214D01*
X145812321Y-98576528D01*
X145567471Y-98777471D01*
X145366528Y-99022321D01*
X145217214Y-99301668D01*
X145125267Y-99604777D01*
X145094220Y-99920000D01*
X145125267Y-100235223D01*
X145217214Y-100538332D01*
X145366528Y-100817679D01*
X145567471Y-101062529D01*
X145722795Y-101190000D01*
X145567471Y-101317471D01*
X145366528Y-101562321D01*
X145217214Y-101841668D01*
X145125267Y-102144777D01*
X145094220Y-102460000D01*
X145125267Y-102775223D01*
X145217214Y-103078332D01*
X145366528Y-103357679D01*
X145567471Y-103602529D01*
X145722795Y-103730000D01*
X145567471Y-103857471D01*
X145366528Y-104102321D01*
X145217214Y-104381668D01*
X145125267Y-104684777D01*
X145112061Y-104818859D01*
X144637618Y-105293302D01*
X135558854Y-105293302D01*
X137752972Y-103099185D01*
X137802095Y-103058663D01*
X137879415Y-102963963D01*
X137957049Y-102869366D01*
X137957805Y-102867951D01*
X137958817Y-102866712D01*
X138016102Y-102758886D01*
X138073863Y-102650822D01*
X138074329Y-102649286D01*
X138075079Y-102647874D01*
X138110231Y-102530933D01*
X138145797Y-102413688D01*
X138145954Y-102412092D01*
X138146415Y-102410559D01*
X138158068Y-102289096D01*
X138170086Y-102167078D01*
X138163843Y-102103695D01*
X138127970Y-87880801D01*
X138129559Y-87888790D01*
X138262081Y-88208725D01*
X138454472Y-88496660D01*
X138699340Y-88741528D01*
X138987275Y-88933919D01*
X139307210Y-89066441D01*
X139646852Y-89134000D01*
X139993148Y-89134000D01*
X140332790Y-89066441D01*
X140652725Y-88933919D01*
X140940660Y-88741528D01*
X141185528Y-88496660D01*
X141187347Y-88493937D01*
X146207720Y-88493937D01*
X146284912Y-88807480D01*
X146584069Y-88981911D01*
X146911508Y-89094627D01*
X147254645Y-89141296D01*
X147600293Y-89120127D01*
X147935169Y-89031932D01*
X148246405Y-88880100D01*
X148355088Y-88807480D01*
X148432280Y-88493937D01*
X147320000Y-87381657D01*
X146207720Y-88493937D01*
X141187347Y-88493937D01*
X141377919Y-88208725D01*
X141510441Y-87888790D01*
X141578000Y-87549148D01*
X141578000Y-87310645D01*
X145554704Y-87310645D01*
X145575873Y-87656293D01*
X145664068Y-87991169D01*
X145815900Y-88302405D01*
X145888520Y-88411088D01*
X146202063Y-88488280D01*
X147314343Y-87376000D01*
X147325657Y-87376000D01*
X148437937Y-88488280D01*
X148751480Y-88411088D01*
X148925911Y-88111931D01*
X149038627Y-87784492D01*
X149085296Y-87441355D01*
X149079490Y-87346550D01*
X153192000Y-87346550D01*
X153192000Y-87653450D01*
X153251874Y-87954452D01*
X153369319Y-88237990D01*
X153539823Y-88493167D01*
X153756833Y-88710177D01*
X154012010Y-88880681D01*
X154295548Y-88998126D01*
X154596550Y-89058000D01*
X154903450Y-89058000D01*
X155204452Y-88998126D01*
X155487990Y-88880681D01*
X155743167Y-88710177D01*
X155810205Y-88643139D01*
X155833039Y-88768894D01*
X156098207Y-88923402D01*
X156388423Y-89023211D01*
X156692534Y-89064483D01*
X156998854Y-89045633D01*
X157295611Y-88967385D01*
X157571399Y-88832746D01*
X157666961Y-88768894D01*
X157720173Y-88475830D01*
X156750000Y-87505657D01*
X156735858Y-87519799D01*
X156730201Y-87514142D01*
X156744343Y-87500000D01*
X156755657Y-87500000D01*
X157725830Y-88470173D01*
X158018894Y-88416961D01*
X158173402Y-88151793D01*
X158273211Y-87861577D01*
X158314483Y-87557466D01*
X158295633Y-87251146D01*
X158217385Y-86954389D01*
X158082746Y-86678601D01*
X158018894Y-86583039D01*
X157725830Y-86529827D01*
X156755657Y-87500000D01*
X156744343Y-87500000D01*
X156730201Y-87485858D01*
X156735858Y-87480201D01*
X156750000Y-87494343D01*
X157720173Y-86524170D01*
X157666961Y-86231106D01*
X157401793Y-86076598D01*
X157111577Y-85976789D01*
X156807466Y-85935517D01*
X156501146Y-85954367D01*
X156204389Y-86032615D01*
X155928601Y-86167254D01*
X155833039Y-86231106D01*
X155810205Y-86356861D01*
X155743167Y-86289823D01*
X155487990Y-86119319D01*
X155204452Y-86001874D01*
X154903450Y-85942000D01*
X154596550Y-85942000D01*
X154295548Y-86001874D01*
X154012010Y-86119319D01*
X153756833Y-86289823D01*
X153539823Y-86506833D01*
X153369319Y-86762010D01*
X153251874Y-87045548D01*
X153192000Y-87346550D01*
X149079490Y-87346550D01*
X149064127Y-87095707D01*
X148975932Y-86760831D01*
X148824100Y-86449595D01*
X148751480Y-86340912D01*
X148437937Y-86263720D01*
X147325657Y-87376000D01*
X147314343Y-87376000D01*
X146202063Y-86263720D01*
X145888520Y-86340912D01*
X145714089Y-86640069D01*
X145601373Y-86967508D01*
X145554704Y-87310645D01*
X141578000Y-87310645D01*
X141578000Y-87202852D01*
X141510441Y-86863210D01*
X141377919Y-86543275D01*
X141187348Y-86258063D01*
X146207720Y-86258063D01*
X147320000Y-87370343D01*
X148432280Y-86258063D01*
X148355088Y-85944520D01*
X148055931Y-85770089D01*
X147728492Y-85657373D01*
X147385355Y-85610704D01*
X147039707Y-85631873D01*
X146704831Y-85720068D01*
X146393595Y-85871900D01*
X146284912Y-85944520D01*
X146207720Y-86258063D01*
X141187348Y-86258063D01*
X141185528Y-86255340D01*
X140940660Y-86010472D01*
X140652725Y-85818081D01*
X140332790Y-85685559D01*
X139993148Y-85618000D01*
X139646852Y-85618000D01*
X139307210Y-85685559D01*
X138987275Y-85818081D01*
X138699340Y-86010472D01*
X138454472Y-86255340D01*
X138262081Y-86543275D01*
X138129559Y-86863210D01*
X138125455Y-86883840D01*
X138110100Y-80795497D01*
X152412428Y-80795497D01*
X152435500Y-80911488D01*
X152538035Y-81209569D01*
X152696753Y-81481919D01*
X152905554Y-81718071D01*
X153156414Y-81908950D01*
X153439692Y-82047222D01*
X153744503Y-82127572D01*
X153996000Y-81958495D01*
X153996000Y-80544000D01*
X154004000Y-80544000D01*
X154004000Y-81958495D01*
X154255497Y-82127572D01*
X154560308Y-82047222D01*
X154843586Y-81908950D01*
X155094446Y-81718071D01*
X155303247Y-81481919D01*
X155461965Y-81209569D01*
X155564500Y-80911488D01*
X155587572Y-80795497D01*
X155418494Y-80544000D01*
X154004000Y-80544000D01*
X153996000Y-80544000D01*
X152581506Y-80544000D01*
X152412428Y-80795497D01*
X138110100Y-80795497D01*
X138103049Y-78000000D01*
X152384220Y-78000000D01*
X152415267Y-78315223D01*
X152507214Y-78618332D01*
X152656528Y-78897679D01*
X152857471Y-79142529D01*
X153019326Y-79275360D01*
X152905554Y-79361929D01*
X152696753Y-79598081D01*
X152538035Y-79870431D01*
X152435500Y-80168512D01*
X152412428Y-80284503D01*
X152581506Y-80536000D01*
X153996000Y-80536000D01*
X153996000Y-80516000D01*
X154004000Y-80516000D01*
X154004000Y-80536000D01*
X155418494Y-80536000D01*
X155587572Y-80284503D01*
X155564500Y-80168512D01*
X155461965Y-79870431D01*
X155303247Y-79598081D01*
X155094446Y-79361929D01*
X154980674Y-79275360D01*
X155142529Y-79142529D01*
X155343472Y-78897679D01*
X155492786Y-78618332D01*
X155584733Y-78315223D01*
X155615780Y-78000000D01*
X155584733Y-77684777D01*
X155492786Y-77381668D01*
X155343472Y-77102321D01*
X155231322Y-76965666D01*
X155273160Y-76943303D01*
X155388580Y-76848580D01*
X155483303Y-76733160D01*
X155553689Y-76601477D01*
X155597032Y-76458594D01*
X155611667Y-76310000D01*
X155611667Y-74610000D01*
X155597032Y-74461406D01*
X155553689Y-74318523D01*
X155483303Y-74186840D01*
X155388580Y-74071420D01*
X155273160Y-73976697D01*
X155141477Y-73906311D01*
X154998594Y-73862968D01*
X154850000Y-73848333D01*
X153150000Y-73848333D01*
X153001406Y-73862968D01*
X152858523Y-73906311D01*
X152726840Y-73976697D01*
X152611420Y-74071420D01*
X152516697Y-74186840D01*
X152446311Y-74318523D01*
X152402968Y-74461406D01*
X152388333Y-74610000D01*
X152388333Y-76310000D01*
X152402968Y-76458594D01*
X152446311Y-76601477D01*
X152516697Y-76733160D01*
X152611420Y-76848580D01*
X152726840Y-76943303D01*
X152768678Y-76965666D01*
X152656528Y-77102321D01*
X152507214Y-77381668D01*
X152415267Y-77684777D01*
X152384220Y-78000000D01*
X138103049Y-78000000D01*
X138100325Y-76920179D01*
X138141697Y-76869766D01*
X138286369Y-76599105D01*
X138375457Y-76305421D01*
X138405538Y-76000000D01*
X138390425Y-75846550D01*
X145442000Y-75846550D01*
X145442000Y-76153450D01*
X145501874Y-76454452D01*
X145619319Y-76737990D01*
X145789823Y-76993167D01*
X146006833Y-77210177D01*
X146262010Y-77380681D01*
X146545548Y-77498126D01*
X146846550Y-77558000D01*
X147153450Y-77558000D01*
X147454452Y-77498126D01*
X147737990Y-77380681D01*
X147993167Y-77210177D01*
X148210177Y-76993167D01*
X148380681Y-76737990D01*
X148498126Y-76454452D01*
X148558000Y-76153450D01*
X148558000Y-75846550D01*
X148498126Y-75545548D01*
X148380681Y-75262010D01*
X148210177Y-75006833D01*
X147993167Y-74789823D01*
X147737990Y-74619319D01*
X147454452Y-74501874D01*
X147153450Y-74442000D01*
X146846550Y-74442000D01*
X146545548Y-74501874D01*
X146262010Y-74619319D01*
X146006833Y-74789823D01*
X145789823Y-75006833D01*
X145619319Y-75262010D01*
X145501874Y-75545548D01*
X145442000Y-75846550D01*
X138390425Y-75846550D01*
X138375457Y-75694579D01*
X138286369Y-75400895D01*
X138141697Y-75130234D01*
X137947003Y-74892997D01*
X137709766Y-74698303D01*
X137439105Y-74553631D01*
X137145421Y-74464543D01*
X136916535Y-74442000D01*
X136763465Y-74442000D01*
X136534579Y-74464543D01*
X136240895Y-74553631D01*
X135970234Y-74698303D01*
X135732997Y-74892997D01*
X135644400Y-75000954D01*
X135639146Y-74994552D01*
X135591143Y-74955157D01*
X133450149Y-72814164D01*
X133410750Y-72766156D01*
X133219195Y-72608951D01*
X133077100Y-72533000D01*
X162967001Y-72533000D01*
X162967001Y-75036200D01*
G36*
X115387711Y-72608951D02*
G01*
X115196156Y-72766156D01*
X115156761Y-72814159D01*
X113904164Y-74066757D01*
X113856156Y-74106156D01*
X113698952Y-74297711D01*
X113698951Y-74297712D01*
X113582137Y-74516256D01*
X113510203Y-74753390D01*
X113485914Y-75000000D01*
X113492000Y-75061793D01*
X113492001Y-76681000D01*
X113361667Y-76811334D01*
X113361667Y-75610000D01*
X113347032Y-75461406D01*
X113303689Y-75318523D01*
X113233303Y-75186840D01*
X113138580Y-75071420D01*
X113023160Y-74976697D01*
X112891477Y-74906311D01*
X112748594Y-74862968D01*
X112600000Y-74848333D01*
X110900000Y-74848333D01*
X110751406Y-74862968D01*
X110608523Y-74906311D01*
X110476840Y-74976697D01*
X110361420Y-75071420D01*
X110266697Y-75186840D01*
X110196311Y-75318523D01*
X110152968Y-75461406D01*
X110138333Y-75610000D01*
X110138333Y-77310000D01*
X110152968Y-77458594D01*
X110196311Y-77601477D01*
X110266697Y-77733160D01*
X110361420Y-77848580D01*
X110476840Y-77943303D01*
X110518678Y-77965666D01*
X110406528Y-78102321D01*
X110257214Y-78381668D01*
X110165267Y-78684777D01*
X110134220Y-79000000D01*
X110165267Y-79315223D01*
X110257214Y-79618332D01*
X110406528Y-79897679D01*
X110492001Y-80001828D01*
X110492000Y-88320208D01*
X110485914Y-88382000D01*
X110496382Y-88488280D01*
X110510203Y-88628610D01*
X110582137Y-88865744D01*
X110698951Y-89084288D01*
X110856156Y-89275844D01*
X110904164Y-89315243D01*
X111996793Y-90407873D01*
X112039874Y-90624452D01*
X112157319Y-90907990D01*
X112327823Y-91163167D01*
X112544833Y-91380177D01*
X112800010Y-91550681D01*
X113083548Y-91668126D01*
X113384550Y-91728000D01*
X113691450Y-91728000D01*
X113992452Y-91668126D01*
X114275990Y-91550681D01*
X114531167Y-91380177D01*
X114748177Y-91163167D01*
X114918681Y-90907990D01*
X115036126Y-90624452D01*
X115096000Y-90323450D01*
X115096000Y-90016550D01*
X115036126Y-89715548D01*
X114918681Y-89432010D01*
X114748177Y-89176833D01*
X114531167Y-88959823D01*
X114275990Y-88789319D01*
X113992452Y-88671874D01*
X113775873Y-88628793D01*
X113008000Y-87860921D01*
X113008000Y-87317288D01*
X113176423Y-87375211D01*
X113480534Y-87416483D01*
X113786854Y-87397633D01*
X114083611Y-87319385D01*
X114359399Y-87184746D01*
X114454961Y-87120894D01*
X114508173Y-86827830D01*
X113538000Y-85857657D01*
X113523858Y-85871799D01*
X113518201Y-85866142D01*
X113532343Y-85852000D01*
X113543657Y-85852000D01*
X114513830Y-86822173D01*
X114806894Y-86768961D01*
X114961402Y-86503793D01*
X115061211Y-86213577D01*
X115102483Y-85909466D01*
X115083633Y-85603146D01*
X115005385Y-85306389D01*
X114870746Y-85030601D01*
X114806894Y-84935039D01*
X114513830Y-84881827D01*
X113543657Y-85852000D01*
X113532343Y-85852000D01*
X113518201Y-85837858D01*
X113523858Y-85832201D01*
X113538000Y-85846343D01*
X114508173Y-84876170D01*
X114454961Y-84583106D01*
X114189793Y-84428598D01*
X113899577Y-84328789D01*
X113897595Y-84328520D01*
X115960650Y-84328520D01*
X115981121Y-84662331D01*
X116066322Y-84985733D01*
X116212978Y-85286299D01*
X116282959Y-85391032D01*
X116590338Y-85461007D01*
X117659844Y-84391501D01*
X117671158Y-84391501D01*
X118740664Y-85461007D01*
X119048043Y-85391032D01*
X119216477Y-85102106D01*
X119325307Y-84785871D01*
X119370352Y-84454482D01*
X119349881Y-84120671D01*
X119264680Y-83797269D01*
X119118024Y-83496703D01*
X119048043Y-83391970D01*
X118740664Y-83321995D01*
X117671158Y-84391501D01*
X117659844Y-84391501D01*
X116590338Y-83321995D01*
X116282959Y-83391970D01*
X116114525Y-83680896D01*
X116005695Y-83997131D01*
X115960650Y-84328520D01*
X113897595Y-84328520D01*
X113595466Y-84287517D01*
X113289146Y-84306367D01*
X113008000Y-84380499D01*
X113008000Y-80258578D01*
X113013873Y-80258000D01*
X113198692Y-80239797D01*
X113435826Y-80167863D01*
X113654370Y-80051049D01*
X113845925Y-79893844D01*
X113885324Y-79845836D01*
X115595846Y-78135316D01*
X115643844Y-78095925D01*
X115801049Y-77904370D01*
X115917863Y-77685826D01*
X115989797Y-77448692D01*
X116008000Y-77263873D01*
X116008000Y-77263872D01*
X116014086Y-77202082D01*
X116008200Y-77142324D01*
X116032946Y-77266731D01*
X116160930Y-77575711D01*
X116346734Y-77853785D01*
X116534450Y-78041501D01*
X116346734Y-78229217D01*
X116160930Y-78507291D01*
X116032946Y-78816271D01*
X115967701Y-79144282D01*
X115967701Y-79478720D01*
X116032946Y-79806731D01*
X116160930Y-80115711D01*
X116346734Y-80393785D01*
X116534450Y-80581501D01*
X116346734Y-80769217D01*
X116160930Y-81047291D01*
X116032946Y-81356271D01*
X115967701Y-81684282D01*
X115967701Y-82018720D01*
X116032946Y-82346731D01*
X116160930Y-82655711D01*
X116346734Y-82933785D01*
X116583217Y-83170268D01*
X116623171Y-83196964D01*
X116595995Y-83316338D01*
X117665501Y-84385844D01*
X118735007Y-83316338D01*
X118707831Y-83196964D01*
X118747785Y-83170268D01*
X118984268Y-82933785D01*
X119170072Y-82655711D01*
X119298056Y-82346731D01*
X119363301Y-82018720D01*
X119363301Y-81684282D01*
X119298056Y-81356271D01*
X119170072Y-81047291D01*
X118984268Y-80769217D01*
X118796552Y-80581501D01*
X118984268Y-80393785D01*
X119170072Y-80115711D01*
X119298056Y-79806731D01*
X119363301Y-79478720D01*
X119363301Y-79248520D01*
X131200650Y-79248520D01*
X131221121Y-79582331D01*
X131306322Y-79905733D01*
X131452978Y-80206299D01*
X131522959Y-80311032D01*
X131830338Y-80381007D01*
X132899844Y-79311501D01*
X131830338Y-78241995D01*
X131522959Y-78311970D01*
X131354525Y-78600896D01*
X131245695Y-78917131D01*
X131200650Y-79248520D01*
X119363301Y-79248520D01*
X119363301Y-79144282D01*
X119298056Y-78816271D01*
X119170072Y-78507291D01*
X118984268Y-78229217D01*
X118796552Y-78041501D01*
X118984268Y-77853785D01*
X119170072Y-77575711D01*
X119298056Y-77266731D01*
X119363301Y-76938720D01*
X119363301Y-76604282D01*
X119298056Y-76276271D01*
X119170072Y-75967291D01*
X118984268Y-75689217D01*
X118747785Y-75452734D01*
X118469711Y-75266930D01*
X118160731Y-75138946D01*
X117832720Y-75073701D01*
X117498282Y-75073701D01*
X117170271Y-75138946D01*
X116861291Y-75266930D01*
X116583217Y-75452734D01*
X116346734Y-75689217D01*
X116160930Y-75967291D01*
X116032946Y-76276271D01*
X116008000Y-76401684D01*
X116008000Y-75521079D01*
X116611080Y-74918000D01*
X131995827Y-74918000D01*
X132273447Y-75195620D01*
X132101291Y-75266930D01*
X131823217Y-75452734D01*
X131586734Y-75689217D01*
X131400930Y-75967291D01*
X131272946Y-76276271D01*
X131207701Y-76604282D01*
X131207701Y-76938720D01*
X131272946Y-77266731D01*
X131400930Y-77575711D01*
X131586734Y-77853785D01*
X131823217Y-78090268D01*
X131863171Y-78116964D01*
X131835995Y-78236338D01*
X132905501Y-79305844D01*
X132919643Y-79291702D01*
X132925300Y-79297359D01*
X132911158Y-79311501D01*
X132925300Y-79325643D01*
X132919643Y-79331300D01*
X132905501Y-79317158D01*
X131835995Y-80386664D01*
X131863171Y-80506038D01*
X131823217Y-80532734D01*
X131762450Y-80593501D01*
X131638213Y-80593501D01*
X131576423Y-80587415D01*
X131514633Y-80593501D01*
X131514632Y-80593501D01*
X131329813Y-80611704D01*
X131092679Y-80683638D01*
X130874135Y-80800452D01*
X130682580Y-80957657D01*
X130643189Y-81005655D01*
X124630164Y-87018681D01*
X124582156Y-87058081D01*
X124459350Y-87207722D01*
X124424951Y-87249637D01*
X124308137Y-87468181D01*
X124236203Y-87705315D01*
X124211914Y-87951925D01*
X124218000Y-88013717D01*
X124218001Y-105251428D01*
X119264399Y-105287986D01*
X119298056Y-105206731D01*
X119363301Y-104878720D01*
X119363301Y-104544282D01*
X119298056Y-104216271D01*
X119170072Y-103907291D01*
X118984268Y-103629217D01*
X118796552Y-103441501D01*
X118984268Y-103253785D01*
X119170072Y-102975711D01*
X119298056Y-102666731D01*
X119363301Y-102338720D01*
X119363301Y-102004282D01*
X119298056Y-101676271D01*
X119170072Y-101367291D01*
X118984268Y-101089217D01*
X118796552Y-100901501D01*
X118984268Y-100713785D01*
X119170072Y-100435711D01*
X119298056Y-100126731D01*
X119363301Y-99798720D01*
X119363301Y-99464282D01*
X119298056Y-99136271D01*
X119170072Y-98827291D01*
X118984268Y-98549217D01*
X118796552Y-98361501D01*
X118984268Y-98173785D01*
X119170072Y-97895711D01*
X119298056Y-97586731D01*
X119363301Y-97258720D01*
X119363301Y-96924282D01*
X119298056Y-96596271D01*
X119170072Y-96287291D01*
X118984268Y-96009217D01*
X118796552Y-95821501D01*
X118984268Y-95633785D01*
X119170072Y-95355711D01*
X119298056Y-95046731D01*
X119363301Y-94718720D01*
X119363301Y-94384282D01*
X119298056Y-94056271D01*
X119170072Y-93747291D01*
X118984268Y-93469217D01*
X118796552Y-93281501D01*
X118984268Y-93093785D01*
X119170072Y-92815711D01*
X119298056Y-92506731D01*
X119363301Y-92178720D01*
X119363301Y-91844282D01*
X119298056Y-91516271D01*
X119170072Y-91207291D01*
X118984268Y-90929217D01*
X118796552Y-90741501D01*
X118984268Y-90553785D01*
X119170072Y-90275711D01*
X119298056Y-89966731D01*
X119363301Y-89638720D01*
X119363301Y-89304282D01*
X119298056Y-88976271D01*
X119170072Y-88667291D01*
X118984268Y-88389217D01*
X118796552Y-88201501D01*
X118984268Y-88013785D01*
X119170072Y-87735711D01*
X119298056Y-87426731D01*
X119363301Y-87098720D01*
X119363301Y-86764282D01*
X119298056Y-86436271D01*
X119170072Y-86127291D01*
X118984268Y-85849217D01*
X118747785Y-85612734D01*
X118707831Y-85586038D01*
X118735007Y-85466664D01*
X117665501Y-84397158D01*
X116595995Y-85466664D01*
X116623171Y-85586038D01*
X116583217Y-85612734D01*
X116346734Y-85849217D01*
X116160930Y-86127291D01*
X116032946Y-86436271D01*
X115967701Y-86764282D01*
X115967701Y-87098720D01*
X116032946Y-87426731D01*
X116160930Y-87735711D01*
X116346734Y-88013785D01*
X116534450Y-88201501D01*
X116346734Y-88389217D01*
X116160930Y-88667291D01*
X116032946Y-88976271D01*
X115967701Y-89304282D01*
X115967701Y-89638720D01*
X116032946Y-89966731D01*
X116160930Y-90275711D01*
X116346734Y-90553785D01*
X116534450Y-90741501D01*
X116346734Y-90929217D01*
X116160930Y-91207291D01*
X116032946Y-91516271D01*
X115967701Y-91844282D01*
X115967701Y-92178720D01*
X116032946Y-92506731D01*
X116160930Y-92815711D01*
X116346734Y-93093785D01*
X116534450Y-93281501D01*
X116346734Y-93469217D01*
X116160930Y-93747291D01*
X116032946Y-94056271D01*
X115967701Y-94384282D01*
X115967701Y-94718720D01*
X116032946Y-95046731D01*
X116160930Y-95355711D01*
X116346734Y-95633785D01*
X116534450Y-95821501D01*
X116346734Y-96009217D01*
X116160930Y-96287291D01*
X116032946Y-96596271D01*
X115967701Y-96924282D01*
X115967701Y-97258720D01*
X116032946Y-97586731D01*
X116160930Y-97895711D01*
X116346734Y-98173785D01*
X116534450Y-98361501D01*
X116346734Y-98549217D01*
X116160930Y-98827291D01*
X116032946Y-99136271D01*
X115967701Y-99464282D01*
X115967701Y-99798720D01*
X116032946Y-100126731D01*
X116160930Y-100435711D01*
X116346734Y-100713785D01*
X116534450Y-100901501D01*
X116346734Y-101089217D01*
X116160930Y-101367291D01*
X116032946Y-101676271D01*
X115967701Y-102004282D01*
X115967701Y-102338720D01*
X116032946Y-102666731D01*
X116160930Y-102975711D01*
X116346734Y-103253785D01*
X116534450Y-103441501D01*
X116346734Y-103629217D01*
X116160930Y-103907291D01*
X116032946Y-104216271D01*
X115967701Y-104544282D01*
X115967701Y-104878720D01*
X116032946Y-105206731D01*
X116068805Y-105293302D01*
X115072383Y-105293302D01*
X111008000Y-101228921D01*
X111008000Y-99791827D01*
X111093472Y-99687679D01*
X111242786Y-99408332D01*
X111334733Y-99105223D01*
X111365780Y-98790000D01*
X111334733Y-98474777D01*
X111242786Y-98171668D01*
X111093472Y-97892321D01*
X110981323Y-97755666D01*
X111023160Y-97733304D01*
X111138581Y-97638581D01*
X111233304Y-97523160D01*
X111303689Y-97391478D01*
X111347033Y-97248594D01*
X111361668Y-97100000D01*
X111358000Y-96443500D01*
X111168500Y-96254000D01*
X109754000Y-96254000D01*
X109754000Y-96274000D01*
X109746000Y-96274000D01*
X109746000Y-96254000D01*
X108331500Y-96254000D01*
X108142000Y-96443500D01*
X108138332Y-97100000D01*
X108152967Y-97248594D01*
X108196311Y-97391478D01*
X108266696Y-97523160D01*
X108361419Y-97638581D01*
X108476840Y-97733304D01*
X108518677Y-97755666D01*
X108406528Y-97892321D01*
X108257214Y-98171668D01*
X108185886Y-98406806D01*
X106258000Y-96478921D01*
X106258000Y-95400000D01*
X108138332Y-95400000D01*
X108142000Y-96056500D01*
X108331500Y-96246000D01*
X109746000Y-96246000D01*
X109746000Y-94831500D01*
X109754000Y-94831500D01*
X109754000Y-96246000D01*
X111168500Y-96246000D01*
X111358000Y-96056500D01*
X111361668Y-95400000D01*
X111347033Y-95251406D01*
X111303689Y-95108522D01*
X111233304Y-94976840D01*
X111138581Y-94861419D01*
X111023160Y-94766696D01*
X110891478Y-94696311D01*
X110748594Y-94652967D01*
X110600000Y-94638332D01*
X109943500Y-94642000D01*
X109754000Y-94831500D01*
X109746000Y-94831500D01*
X109556500Y-94642000D01*
X108900000Y-94638332D01*
X108751406Y-94652967D01*
X108608522Y-94696311D01*
X108476840Y-94766696D01*
X108361419Y-94861419D01*
X108266696Y-94976840D01*
X108196311Y-95108522D01*
X108152967Y-95251406D01*
X108138332Y-95400000D01*
X106258000Y-95400000D01*
X106258000Y-91853789D01*
X106264086Y-91791999D01*
X106258000Y-91730208D01*
X106239797Y-91545389D01*
X106167863Y-91308255D01*
X106051049Y-91089711D01*
X105893844Y-90898156D01*
X105845846Y-90858765D01*
X104920208Y-89933129D01*
X104913457Y-89864579D01*
X104824369Y-89570895D01*
X104679697Y-89300234D01*
X104485003Y-89062997D01*
X104247766Y-88868303D01*
X103977105Y-88723631D01*
X103683421Y-88634543D01*
X103454535Y-88612000D01*
X103301465Y-88612000D01*
X103072579Y-88634543D01*
X102778895Y-88723631D01*
X102508234Y-88868303D01*
X102283000Y-89053146D01*
X102283000Y-86968854D01*
X102508234Y-87153697D01*
X102778895Y-87298369D01*
X103072579Y-87387457D01*
X103301465Y-87410000D01*
X103454535Y-87410000D01*
X103683421Y-87387457D01*
X103977105Y-87298369D01*
X104247766Y-87153697D01*
X104485003Y-86959003D01*
X104679697Y-86721766D01*
X104824369Y-86451105D01*
X104913457Y-86157421D01*
X104943538Y-85852000D01*
X104913457Y-85546579D01*
X104824369Y-85252895D01*
X104679697Y-84982234D01*
X104485003Y-84744997D01*
X104247766Y-84550303D01*
X103977105Y-84405631D01*
X103683421Y-84316543D01*
X103454535Y-84294000D01*
X103301465Y-84294000D01*
X103072579Y-84316543D01*
X102778895Y-84405631D01*
X102508234Y-84550303D01*
X102283000Y-84735146D01*
X102283000Y-79314772D01*
X102731907Y-79763679D01*
X103314655Y-80153059D01*
X103962170Y-80421268D01*
X104649568Y-80558000D01*
X105350432Y-80558000D01*
X106037830Y-80421268D01*
X106685345Y-80153059D01*
X107268093Y-79763679D01*
X107763679Y-79268093D01*
X108153059Y-78685345D01*
X108421268Y-78037830D01*
X108558000Y-77350432D01*
X108558000Y-76649568D01*
X108421268Y-75962170D01*
X108153059Y-75314655D01*
X107763679Y-74731907D01*
X107268093Y-74236321D01*
X106685345Y-73846941D01*
X106037830Y-73578732D01*
X105350432Y-73442000D01*
X104649568Y-73442000D01*
X103962170Y-73578732D01*
X103314655Y-73846941D01*
X102731907Y-74236321D01*
X102283000Y-74685228D01*
X102283000Y-72533000D01*
X115529806Y-72533000D01*
X115387711Y-72608951D01*
X115387711Y-72608951D01*
G37*
X115387711Y-72608951D02*
X115196156Y-72766156D01*
X115156761Y-72814159D01*
X113904164Y-74066757D01*
X113856156Y-74106156D01*
X113698952Y-74297711D01*
X113698951Y-74297712D01*
X113582137Y-74516256D01*
X113510203Y-74753390D01*
X113485914Y-75000000D01*
X113492000Y-75061793D01*
X113492001Y-76681000D01*
X113361667Y-76811334D01*
X113361667Y-75610000D01*
X113347032Y-75461406D01*
X113303689Y-75318523D01*
X113233303Y-75186840D01*
X113138580Y-75071420D01*
X113023160Y-74976697D01*
X112891477Y-74906311D01*
X112748594Y-74862968D01*
X112600000Y-74848333D01*
X110900000Y-74848333D01*
X110751406Y-74862968D01*
X110608523Y-74906311D01*
X110476840Y-74976697D01*
X110361420Y-75071420D01*
X110266697Y-75186840D01*
X110196311Y-75318523D01*
X110152968Y-75461406D01*
X110138333Y-75610000D01*
X110138333Y-77310000D01*
X110152968Y-77458594D01*
X110196311Y-77601477D01*
X110266697Y-77733160D01*
X110361420Y-77848580D01*
X110476840Y-77943303D01*
X110518678Y-77965666D01*
X110406528Y-78102321D01*
X110257214Y-78381668D01*
X110165267Y-78684777D01*
X110134220Y-79000000D01*
X110165267Y-79315223D01*
X110257214Y-79618332D01*
X110406528Y-79897679D01*
X110492001Y-80001828D01*
X110492000Y-88320208D01*
X110485914Y-88382000D01*
X110496382Y-88488280D01*
X110510203Y-88628610D01*
X110582137Y-88865744D01*
X110698951Y-89084288D01*
X110856156Y-89275844D01*
X110904164Y-89315243D01*
X111996793Y-90407873D01*
X112039874Y-90624452D01*
X112157319Y-90907990D01*
X112327823Y-91163167D01*
X112544833Y-91380177D01*
X112800010Y-91550681D01*
X113083548Y-91668126D01*
X113384550Y-91728000D01*
X113691450Y-91728000D01*
X113992452Y-91668126D01*
X114275990Y-91550681D01*
X114531167Y-91380177D01*
X114748177Y-91163167D01*
X114918681Y-90907990D01*
X115036126Y-90624452D01*
X115096000Y-90323450D01*
X115096000Y-90016550D01*
X115036126Y-89715548D01*
X114918681Y-89432010D01*
X114748177Y-89176833D01*
X114531167Y-88959823D01*
X114275990Y-88789319D01*
X113992452Y-88671874D01*
X113775873Y-88628793D01*
X113008000Y-87860921D01*
X113008000Y-87317288D01*
X113176423Y-87375211D01*
X113480534Y-87416483D01*
X113786854Y-87397633D01*
X114083611Y-87319385D01*
X114359399Y-87184746D01*
X114454961Y-87120894D01*
X114508173Y-86827830D01*
X113538000Y-85857657D01*
X113523858Y-85871799D01*
X113518201Y-85866142D01*
X113532343Y-85852000D01*
X113543657Y-85852000D01*
X114513830Y-86822173D01*
X114806894Y-86768961D01*
X114961402Y-86503793D01*
X115061211Y-86213577D01*
X115102483Y-85909466D01*
X115083633Y-85603146D01*
X115005385Y-85306389D01*
X114870746Y-85030601D01*
X114806894Y-84935039D01*
X114513830Y-84881827D01*
X113543657Y-85852000D01*
X113532343Y-85852000D01*
X113518201Y-85837858D01*
X113523858Y-85832201D01*
X113538000Y-85846343D01*
X114508173Y-84876170D01*
X114454961Y-84583106D01*
X114189793Y-84428598D01*
X113899577Y-84328789D01*
X113897595Y-84328520D01*
X115960650Y-84328520D01*
X115981121Y-84662331D01*
X116066322Y-84985733D01*
X116212978Y-85286299D01*
X116282959Y-85391032D01*
X116590338Y-85461007D01*
X117659844Y-84391501D01*
X117671158Y-84391501D01*
X118740664Y-85461007D01*
X119048043Y-85391032D01*
X119216477Y-85102106D01*
X119325307Y-84785871D01*
X119370352Y-84454482D01*
X119349881Y-84120671D01*
X119264680Y-83797269D01*
X119118024Y-83496703D01*
X119048043Y-83391970D01*
X118740664Y-83321995D01*
X117671158Y-84391501D01*
X117659844Y-84391501D01*
X116590338Y-83321995D01*
X116282959Y-83391970D01*
X116114525Y-83680896D01*
X116005695Y-83997131D01*
X115960650Y-84328520D01*
X113897595Y-84328520D01*
X113595466Y-84287517D01*
X113289146Y-84306367D01*
X113008000Y-84380499D01*
X113008000Y-80258578D01*
X113013873Y-80258000D01*
X113198692Y-80239797D01*
X113435826Y-80167863D01*
X113654370Y-80051049D01*
X113845925Y-79893844D01*
X113885324Y-79845836D01*
X115595846Y-78135316D01*
X115643844Y-78095925D01*
X115801049Y-77904370D01*
X115917863Y-77685826D01*
X115989797Y-77448692D01*
X116008000Y-77263873D01*
X116008000Y-77263872D01*
X116014086Y-77202082D01*
X116008200Y-77142324D01*
X116032946Y-77266731D01*
X116160930Y-77575711D01*
X116346734Y-77853785D01*
X116534450Y-78041501D01*
X116346734Y-78229217D01*
X116160930Y-78507291D01*
X116032946Y-78816271D01*
X115967701Y-79144282D01*
X115967701Y-79478720D01*
X116032946Y-79806731D01*
X116160930Y-80115711D01*
X116346734Y-80393785D01*
X116534450Y-80581501D01*
X116346734Y-80769217D01*
X116160930Y-81047291D01*
X116032946Y-81356271D01*
X115967701Y-81684282D01*
X115967701Y-82018720D01*
X116032946Y-82346731D01*
X116160930Y-82655711D01*
X116346734Y-82933785D01*
X116583217Y-83170268D01*
X116623171Y-83196964D01*
X116595995Y-83316338D01*
X117665501Y-84385844D01*
X118735007Y-83316338D01*
X118707831Y-83196964D01*
X118747785Y-83170268D01*
X118984268Y-82933785D01*
X119170072Y-82655711D01*
X119298056Y-82346731D01*
X119363301Y-82018720D01*
X119363301Y-81684282D01*
X119298056Y-81356271D01*
X119170072Y-81047291D01*
X118984268Y-80769217D01*
X118796552Y-80581501D01*
X118984268Y-80393785D01*
X119170072Y-80115711D01*
X119298056Y-79806731D01*
X119363301Y-79478720D01*
X119363301Y-79248520D01*
X131200650Y-79248520D01*
X131221121Y-79582331D01*
X131306322Y-79905733D01*
X131452978Y-80206299D01*
X131522959Y-80311032D01*
X131830338Y-80381007D01*
X132899844Y-79311501D01*
X131830338Y-78241995D01*
X131522959Y-78311970D01*
X131354525Y-78600896D01*
X131245695Y-78917131D01*
X131200650Y-79248520D01*
X119363301Y-79248520D01*
X119363301Y-79144282D01*
X119298056Y-78816271D01*
X119170072Y-78507291D01*
X118984268Y-78229217D01*
X118796552Y-78041501D01*
X118984268Y-77853785D01*
X119170072Y-77575711D01*
X119298056Y-77266731D01*
X119363301Y-76938720D01*
X119363301Y-76604282D01*
X119298056Y-76276271D01*
X119170072Y-75967291D01*
X118984268Y-75689217D01*
X118747785Y-75452734D01*
X118469711Y-75266930D01*
X118160731Y-75138946D01*
X117832720Y-75073701D01*
X117498282Y-75073701D01*
X117170271Y-75138946D01*
X116861291Y-75266930D01*
X116583217Y-75452734D01*
X116346734Y-75689217D01*
X116160930Y-75967291D01*
X116032946Y-76276271D01*
X116008000Y-76401684D01*
X116008000Y-75521079D01*
X116611080Y-74918000D01*
X131995827Y-74918000D01*
X132273447Y-75195620D01*
X132101291Y-75266930D01*
X131823217Y-75452734D01*
X131586734Y-75689217D01*
X131400930Y-75967291D01*
X131272946Y-76276271D01*
X131207701Y-76604282D01*
X131207701Y-76938720D01*
X131272946Y-77266731D01*
X131400930Y-77575711D01*
X131586734Y-77853785D01*
X131823217Y-78090268D01*
X131863171Y-78116964D01*
X131835995Y-78236338D01*
X132905501Y-79305844D01*
X132919643Y-79291702D01*
X132925300Y-79297359D01*
X132911158Y-79311501D01*
X132925300Y-79325643D01*
X132919643Y-79331300D01*
X132905501Y-79317158D01*
X131835995Y-80386664D01*
X131863171Y-80506038D01*
X131823217Y-80532734D01*
X131762450Y-80593501D01*
X131638213Y-80593501D01*
X131576423Y-80587415D01*
X131514633Y-80593501D01*
X131514632Y-80593501D01*
X131329813Y-80611704D01*
X131092679Y-80683638D01*
X130874135Y-80800452D01*
X130682580Y-80957657D01*
X130643189Y-81005655D01*
X124630164Y-87018681D01*
X124582156Y-87058081D01*
X124459350Y-87207722D01*
X124424951Y-87249637D01*
X124308137Y-87468181D01*
X124236203Y-87705315D01*
X124211914Y-87951925D01*
X124218000Y-88013717D01*
X124218001Y-105251428D01*
X119264399Y-105287986D01*
X119298056Y-105206731D01*
X119363301Y-104878720D01*
X119363301Y-104544282D01*
X119298056Y-104216271D01*
X119170072Y-103907291D01*
X118984268Y-103629217D01*
X118796552Y-103441501D01*
X118984268Y-103253785D01*
X119170072Y-102975711D01*
X119298056Y-102666731D01*
X119363301Y-102338720D01*
X119363301Y-102004282D01*
X119298056Y-101676271D01*
X119170072Y-101367291D01*
X118984268Y-101089217D01*
X118796552Y-100901501D01*
X118984268Y-100713785D01*
X119170072Y-100435711D01*
X119298056Y-100126731D01*
X119363301Y-99798720D01*
X119363301Y-99464282D01*
X119298056Y-99136271D01*
X119170072Y-98827291D01*
X118984268Y-98549217D01*
X118796552Y-98361501D01*
X118984268Y-98173785D01*
X119170072Y-97895711D01*
X119298056Y-97586731D01*
X119363301Y-97258720D01*
X119363301Y-96924282D01*
X119298056Y-96596271D01*
X119170072Y-96287291D01*
X118984268Y-96009217D01*
X118796552Y-95821501D01*
X118984268Y-95633785D01*
X119170072Y-95355711D01*
X119298056Y-95046731D01*
X119363301Y-94718720D01*
X119363301Y-94384282D01*
X119298056Y-94056271D01*
X119170072Y-93747291D01*
X118984268Y-93469217D01*
X118796552Y-93281501D01*
X118984268Y-93093785D01*
X119170072Y-92815711D01*
X119298056Y-92506731D01*
X119363301Y-92178720D01*
X119363301Y-91844282D01*
X119298056Y-91516271D01*
X119170072Y-91207291D01*
X118984268Y-90929217D01*
X118796552Y-90741501D01*
X118984268Y-90553785D01*
X119170072Y-90275711D01*
X119298056Y-89966731D01*
X119363301Y-89638720D01*
X119363301Y-89304282D01*
X119298056Y-88976271D01*
X119170072Y-88667291D01*
X118984268Y-88389217D01*
X118796552Y-88201501D01*
X118984268Y-88013785D01*
X119170072Y-87735711D01*
X119298056Y-87426731D01*
X119363301Y-87098720D01*
X119363301Y-86764282D01*
X119298056Y-86436271D01*
X119170072Y-86127291D01*
X118984268Y-85849217D01*
X118747785Y-85612734D01*
X118707831Y-85586038D01*
X118735007Y-85466664D01*
X117665501Y-84397158D01*
X116595995Y-85466664D01*
X116623171Y-85586038D01*
X116583217Y-85612734D01*
X116346734Y-85849217D01*
X116160930Y-86127291D01*
X116032946Y-86436271D01*
X115967701Y-86764282D01*
X115967701Y-87098720D01*
X116032946Y-87426731D01*
X116160930Y-87735711D01*
X116346734Y-88013785D01*
X116534450Y-88201501D01*
X116346734Y-88389217D01*
X116160930Y-88667291D01*
X116032946Y-88976271D01*
X115967701Y-89304282D01*
X115967701Y-89638720D01*
X116032946Y-89966731D01*
X116160930Y-90275711D01*
X116346734Y-90553785D01*
X116534450Y-90741501D01*
X116346734Y-90929217D01*
X116160930Y-91207291D01*
X116032946Y-91516271D01*
X115967701Y-91844282D01*
X115967701Y-92178720D01*
X116032946Y-92506731D01*
X116160930Y-92815711D01*
X116346734Y-93093785D01*
X116534450Y-93281501D01*
X116346734Y-93469217D01*
X116160930Y-93747291D01*
X116032946Y-94056271D01*
X115967701Y-94384282D01*
X115967701Y-94718720D01*
X116032946Y-95046731D01*
X116160930Y-95355711D01*
X116346734Y-95633785D01*
X116534450Y-95821501D01*
X116346734Y-96009217D01*
X116160930Y-96287291D01*
X116032946Y-96596271D01*
X115967701Y-96924282D01*
X115967701Y-97258720D01*
X116032946Y-97586731D01*
X116160930Y-97895711D01*
X116346734Y-98173785D01*
X116534450Y-98361501D01*
X116346734Y-98549217D01*
X116160930Y-98827291D01*
X116032946Y-99136271D01*
X115967701Y-99464282D01*
X115967701Y-99798720D01*
X116032946Y-100126731D01*
X116160930Y-100435711D01*
X116346734Y-100713785D01*
X116534450Y-100901501D01*
X116346734Y-101089217D01*
X116160930Y-101367291D01*
X116032946Y-101676271D01*
X115967701Y-102004282D01*
X115967701Y-102338720D01*
X116032946Y-102666731D01*
X116160930Y-102975711D01*
X116346734Y-103253785D01*
X116534450Y-103441501D01*
X116346734Y-103629217D01*
X116160930Y-103907291D01*
X116032946Y-104216271D01*
X115967701Y-104544282D01*
X115967701Y-104878720D01*
X116032946Y-105206731D01*
X116068805Y-105293302D01*
X115072383Y-105293302D01*
X111008000Y-101228921D01*
X111008000Y-99791827D01*
X111093472Y-99687679D01*
X111242786Y-99408332D01*
X111334733Y-99105223D01*
X111365780Y-98790000D01*
X111334733Y-98474777D01*
X111242786Y-98171668D01*
X111093472Y-97892321D01*
X110981323Y-97755666D01*
X111023160Y-97733304D01*
X111138581Y-97638581D01*
X111233304Y-97523160D01*
X111303689Y-97391478D01*
X111347033Y-97248594D01*
X111361668Y-97100000D01*
X111358000Y-96443500D01*
X111168500Y-96254000D01*
X109754000Y-96254000D01*
X109754000Y-96274000D01*
X109746000Y-96274000D01*
X109746000Y-96254000D01*
X108331500Y-96254000D01*
X108142000Y-96443500D01*
X108138332Y-97100000D01*
X108152967Y-97248594D01*
X108196311Y-97391478D01*
X108266696Y-97523160D01*
X108361419Y-97638581D01*
X108476840Y-97733304D01*
X108518677Y-97755666D01*
X108406528Y-97892321D01*
X108257214Y-98171668D01*
X108185886Y-98406806D01*
X106258000Y-96478921D01*
X106258000Y-95400000D01*
X108138332Y-95400000D01*
X108142000Y-96056500D01*
X108331500Y-96246000D01*
X109746000Y-96246000D01*
X109746000Y-94831500D01*
X109754000Y-94831500D01*
X109754000Y-96246000D01*
X111168500Y-96246000D01*
X111358000Y-96056500D01*
X111361668Y-95400000D01*
X111347033Y-95251406D01*
X111303689Y-95108522D01*
X111233304Y-94976840D01*
X111138581Y-94861419D01*
X111023160Y-94766696D01*
X110891478Y-94696311D01*
X110748594Y-94652967D01*
X110600000Y-94638332D01*
X109943500Y-94642000D01*
X109754000Y-94831500D01*
X109746000Y-94831500D01*
X109556500Y-94642000D01*
X108900000Y-94638332D01*
X108751406Y-94652967D01*
X108608522Y-94696311D01*
X108476840Y-94766696D01*
X108361419Y-94861419D01*
X108266696Y-94976840D01*
X108196311Y-95108522D01*
X108152967Y-95251406D01*
X108138332Y-95400000D01*
X106258000Y-95400000D01*
X106258000Y-91853789D01*
X106264086Y-91791999D01*
X106258000Y-91730208D01*
X106239797Y-91545389D01*
X106167863Y-91308255D01*
X106051049Y-91089711D01*
X105893844Y-90898156D01*
X105845846Y-90858765D01*
X104920208Y-89933129D01*
X104913457Y-89864579D01*
X104824369Y-89570895D01*
X104679697Y-89300234D01*
X104485003Y-89062997D01*
X104247766Y-88868303D01*
X103977105Y-88723631D01*
X103683421Y-88634543D01*
X103454535Y-88612000D01*
X103301465Y-88612000D01*
X103072579Y-88634543D01*
X102778895Y-88723631D01*
X102508234Y-88868303D01*
X102283000Y-89053146D01*
X102283000Y-86968854D01*
X102508234Y-87153697D01*
X102778895Y-87298369D01*
X103072579Y-87387457D01*
X103301465Y-87410000D01*
X103454535Y-87410000D01*
X103683421Y-87387457D01*
X103977105Y-87298369D01*
X104247766Y-87153697D01*
X104485003Y-86959003D01*
X104679697Y-86721766D01*
X104824369Y-86451105D01*
X104913457Y-86157421D01*
X104943538Y-85852000D01*
X104913457Y-85546579D01*
X104824369Y-85252895D01*
X104679697Y-84982234D01*
X104485003Y-84744997D01*
X104247766Y-84550303D01*
X103977105Y-84405631D01*
X103683421Y-84316543D01*
X103454535Y-84294000D01*
X103301465Y-84294000D01*
X103072579Y-84316543D01*
X102778895Y-84405631D01*
X102508234Y-84550303D01*
X102283000Y-84735146D01*
X102283000Y-79314772D01*
X102731907Y-79763679D01*
X103314655Y-80153059D01*
X103962170Y-80421268D01*
X104649568Y-80558000D01*
X105350432Y-80558000D01*
X106037830Y-80421268D01*
X106685345Y-80153059D01*
X107268093Y-79763679D01*
X107763679Y-79268093D01*
X108153059Y-78685345D01*
X108421268Y-78037830D01*
X108558000Y-77350432D01*
X108558000Y-76649568D01*
X108421268Y-75962170D01*
X108153059Y-75314655D01*
X107763679Y-74731907D01*
X107268093Y-74236321D01*
X106685345Y-73846941D01*
X106037830Y-73578732D01*
X105350432Y-73442000D01*
X104649568Y-73442000D01*
X103962170Y-73578732D01*
X103314655Y-73846941D01*
X102731907Y-74236321D01*
X102283000Y-74685228D01*
X102283000Y-72533000D01*
X115529806Y-72533000D01*
X115387711Y-72608951D01*
G04 #@! TD*
M02*
