M48
; DRILL file {KiCad 5.1.4-e60b266~84~ubuntu19.04.1} date Mi 18 Sep 2019 16:20:36 CEST
; FORMAT={-:-/ absolute / inch / decimal}
; #@! TF.CreationDate,2019-09-18T16:20:36+02:00
; #@! TF.GenerationSoftware,Kicad,Pcbnew,5.1.4-e60b266~84~ubuntu19.04.1
; #@! TF.FileFunction,Plated,1,2,PTH
FMAT,2
INCH
T1C0.0177
T2C0.0315
T3C0.0394
T4C0.0400
T5C0.1260
%
G90
G05
T1
X4.0354Y-3.1988
X4.0354Y-3.8287
X4.2815Y-4.2126
X4.3209Y-2.8642
X4.7835Y-3.6122
X5.0394Y-3.6811
X5.561Y-2.874
X6.0925Y-4.2224
X6.4075Y-3.3268
X6.4075Y-3.6122
X6.4075Y-3.8287
T2
X4.07Y-3.38
X4.47Y-3.38
X4.07Y-3.55
X4.47Y-3.55
X5.3874Y-2.9921
X5.7874Y-2.9921
X6.0925Y-3.4449
X6.1713Y-3.4449
T3
X6.063Y-2.9709
X6.063Y-3.0709
X6.063Y-3.1709
X4.3209Y-3.7894
X4.3209Y-3.8894
X5.776Y-3.9339
X5.776Y-4.0339
X5.776Y-4.1339
X5.876Y-3.9339
X5.876Y-4.0339
X5.876Y-4.1339
X4.3996Y-3.0102
X4.3996Y-3.1102
X5.5047Y-3.44
X5.8Y-3.44
T4
X4.6325Y-3.0225
X4.6325Y-3.1225
X4.6325Y-3.2225
X4.6325Y-3.3225
X4.6325Y-3.4225
X4.6325Y-3.5225
X4.6325Y-3.6225
X4.6325Y-3.7225
X4.6325Y-3.8225
X4.6325Y-3.9225
X4.6325Y-4.0225
X4.6325Y-4.1225
X5.2325Y-3.0225
X5.2325Y-3.1225
X5.2325Y-3.2225
X5.2325Y-3.3225
X5.2325Y-3.4225
X5.2325Y-3.5225
X5.2325Y-3.6225
X5.2325Y-3.7225
X5.2325Y-3.8225
X5.2325Y-3.9225
X5.2325Y-4.0225
X5.2325Y-4.1225
T5
X4.1339Y-3.0315
X6.2992Y-4.0945
X6.2992Y-3.0315
X4.1339Y-4.0945
T0
M30
