G04 #@! TF.GenerationSoftware,KiCad,Pcbnew,5.1.4-e60b266~84~ubuntu19.04.1*
G04 #@! TF.CreationDate,2019-09-18T16:20:32+02:00*
G04 #@! TF.ProjectId,pro_micro_audio,70726f5f-6d69-4637-926f-5f617564696f,rev?*
G04 #@! TF.SameCoordinates,Original*
G04 #@! TF.FileFunction,Soldermask,Top*
G04 #@! TF.FilePolarity,Negative*
%FSLAX46Y46*%
G04 Gerber Fmt 4.6, Leading zero omitted, Abs format (unit mm)*
G04 Created by KiCad (PCBNEW 5.1.4-e60b266~84~ubuntu19.04.1) date 2019-09-18 16:20:32*
%MOMM*%
%LPD*%
G04 APERTURE LIST*
%ADD10C,0.150000*%
G04 APERTURE END LIST*
D10*
G36*
X160386982Y-101170121D02*
G01*
X160831606Y-101258562D01*
X161350455Y-101473476D01*
X161817407Y-101785484D01*
X162214516Y-102182593D01*
X162526524Y-102649545D01*
X162741438Y-103168394D01*
X162750267Y-103212779D01*
X162841234Y-103670101D01*
X162851000Y-103719201D01*
X162851000Y-104280799D01*
X162741438Y-104831606D01*
X162526524Y-105350455D01*
X162214516Y-105817407D01*
X161817407Y-106214516D01*
X161350455Y-106526524D01*
X160831606Y-106741438D01*
X160280800Y-106851000D01*
X159719200Y-106851000D01*
X159168394Y-106741438D01*
X158649545Y-106526524D01*
X158182593Y-106214516D01*
X157785484Y-105817407D01*
X157473476Y-105350455D01*
X157258562Y-104831606D01*
X157149000Y-104280799D01*
X157149000Y-103719201D01*
X157158767Y-103670101D01*
X157249733Y-103212779D01*
X157258562Y-103168394D01*
X157473476Y-102649545D01*
X157785484Y-102182593D01*
X158182593Y-101785484D01*
X158649545Y-101473476D01*
X159168394Y-101258562D01*
X159613018Y-101170121D01*
X159719200Y-101149000D01*
X160280800Y-101149000D01*
X160386982Y-101170121D01*
X160386982Y-101170121D01*
G37*
G36*
X105386982Y-101170121D02*
G01*
X105831606Y-101258562D01*
X106350455Y-101473476D01*
X106817407Y-101785484D01*
X107214516Y-102182593D01*
X107526524Y-102649545D01*
X107741438Y-103168394D01*
X107750267Y-103212779D01*
X107841234Y-103670101D01*
X107851000Y-103719201D01*
X107851000Y-104280799D01*
X107741438Y-104831606D01*
X107526524Y-105350455D01*
X107214516Y-105817407D01*
X106817407Y-106214516D01*
X106350455Y-106526524D01*
X105831606Y-106741438D01*
X105280800Y-106851000D01*
X104719200Y-106851000D01*
X104168394Y-106741438D01*
X103649545Y-106526524D01*
X103182593Y-106214516D01*
X102785484Y-105817407D01*
X102473476Y-105350455D01*
X102258562Y-104831606D01*
X102149000Y-104280799D01*
X102149000Y-103719201D01*
X102158767Y-103670101D01*
X102249733Y-103212779D01*
X102258562Y-103168394D01*
X102473476Y-102649545D01*
X102785484Y-102182593D01*
X103182593Y-101785484D01*
X103649545Y-101473476D01*
X104168394Y-101258562D01*
X104613018Y-101170121D01*
X104719200Y-101149000D01*
X105280800Y-101149000D01*
X105386982Y-101170121D01*
X105386982Y-101170121D01*
G37*
G36*
X146820442Y-104105518D02*
G01*
X146886627Y-104112037D01*
X147056466Y-104163557D01*
X147212991Y-104247222D01*
X147248729Y-104276552D01*
X147350186Y-104359814D01*
X147433448Y-104461271D01*
X147462778Y-104497009D01*
X147546443Y-104653534D01*
X147597963Y-104823373D01*
X147615359Y-105000000D01*
X147597963Y-105176627D01*
X147589420Y-105204789D01*
X147546442Y-105346468D01*
X147531001Y-105375355D01*
X147462778Y-105502991D01*
X147448483Y-105520409D01*
X147350186Y-105640186D01*
X147248729Y-105723448D01*
X147212991Y-105752778D01*
X147212989Y-105752779D01*
X147092082Y-105817406D01*
X147056466Y-105836443D01*
X146886627Y-105887963D01*
X146820442Y-105894482D01*
X146754260Y-105901000D01*
X146665740Y-105901000D01*
X146599558Y-105894482D01*
X146533373Y-105887963D01*
X146363534Y-105836443D01*
X146327919Y-105817406D01*
X146207011Y-105752779D01*
X146207009Y-105752778D01*
X146171271Y-105723448D01*
X146069814Y-105640186D01*
X145971517Y-105520409D01*
X145957222Y-105502991D01*
X145888999Y-105375355D01*
X145873558Y-105346468D01*
X145830580Y-105204789D01*
X145822037Y-105176627D01*
X145804641Y-105000000D01*
X145822037Y-104823373D01*
X145873557Y-104653534D01*
X145957222Y-104497009D01*
X145986552Y-104461271D01*
X146069814Y-104359814D01*
X146171271Y-104276552D01*
X146207009Y-104247222D01*
X146363534Y-104163557D01*
X146533373Y-104112037D01*
X146599558Y-104105518D01*
X146665740Y-104099000D01*
X146754260Y-104099000D01*
X146820442Y-104105518D01*
X146820442Y-104105518D01*
G37*
G36*
X150151000Y-105901000D02*
G01*
X148349000Y-105901000D01*
X148349000Y-104099000D01*
X150151000Y-104099000D01*
X150151000Y-105901000D01*
X150151000Y-105901000D01*
G37*
G36*
X117969266Y-103710121D02*
G01*
X118158789Y-103788624D01*
X118329355Y-103902593D01*
X118474409Y-104047647D01*
X118588378Y-104218213D01*
X118588379Y-104218215D01*
X118666881Y-104407736D01*
X118706901Y-104608932D01*
X118706901Y-104814070D01*
X118666881Y-105015266D01*
X118588378Y-105204789D01*
X118474409Y-105375355D01*
X118329355Y-105520409D01*
X118158789Y-105634378D01*
X118158788Y-105634379D01*
X118158787Y-105634379D01*
X117969266Y-105712881D01*
X117768071Y-105752901D01*
X117562931Y-105752901D01*
X117361736Y-105712881D01*
X117172215Y-105634379D01*
X117172214Y-105634379D01*
X117172213Y-105634378D01*
X117001647Y-105520409D01*
X116856593Y-105375355D01*
X116742624Y-105204789D01*
X116664121Y-105015266D01*
X116624101Y-104814070D01*
X116624101Y-104608932D01*
X116664121Y-104407736D01*
X116742623Y-104218215D01*
X116742624Y-104218213D01*
X116856593Y-104047647D01*
X117001647Y-103902593D01*
X117172213Y-103788624D01*
X117361736Y-103710121D01*
X117562931Y-103670101D01*
X117768071Y-103670101D01*
X117969266Y-103710121D01*
X117969266Y-103710121D01*
G37*
G36*
X133209266Y-103710121D02*
G01*
X133398789Y-103788624D01*
X133569355Y-103902593D01*
X133714409Y-104047647D01*
X133828378Y-104218213D01*
X133828379Y-104218215D01*
X133906881Y-104407736D01*
X133946901Y-104608932D01*
X133946901Y-104814070D01*
X133906881Y-105015266D01*
X133828378Y-105204789D01*
X133714409Y-105375355D01*
X133569355Y-105520409D01*
X133398789Y-105634378D01*
X133398788Y-105634379D01*
X133398787Y-105634379D01*
X133209266Y-105712881D01*
X133008071Y-105752901D01*
X132802931Y-105752901D01*
X132601736Y-105712881D01*
X132412215Y-105634379D01*
X132412214Y-105634379D01*
X132412213Y-105634378D01*
X132241647Y-105520409D01*
X132096593Y-105375355D01*
X131982624Y-105204789D01*
X131904121Y-105015266D01*
X131864101Y-104814070D01*
X131864101Y-104608932D01*
X131904121Y-104407736D01*
X131982623Y-104218215D01*
X131982624Y-104218213D01*
X132096593Y-104047647D01*
X132241647Y-103902593D01*
X132412213Y-103788624D01*
X132601736Y-103710121D01*
X132802931Y-103670101D01*
X133008071Y-103670101D01*
X133209266Y-103710121D01*
X133209266Y-103710121D01*
G37*
G36*
X149360443Y-101565519D02*
G01*
X149426627Y-101572037D01*
X149596466Y-101623557D01*
X149752991Y-101707222D01*
X149788729Y-101736552D01*
X149890186Y-101819814D01*
X149973448Y-101921271D01*
X150002778Y-101957009D01*
X150086443Y-102113534D01*
X150137963Y-102283373D01*
X150155359Y-102460000D01*
X150137963Y-102636627D01*
X150129420Y-102664789D01*
X150086442Y-102806468D01*
X150071001Y-102835355D01*
X150002778Y-102962991D01*
X149988483Y-102980409D01*
X149890186Y-103100186D01*
X149788729Y-103183448D01*
X149752991Y-103212778D01*
X149596466Y-103296443D01*
X149426627Y-103347963D01*
X149360443Y-103354481D01*
X149294260Y-103361000D01*
X149205740Y-103361000D01*
X149139557Y-103354481D01*
X149073373Y-103347963D01*
X148903534Y-103296443D01*
X148747009Y-103212778D01*
X148711271Y-103183448D01*
X148609814Y-103100186D01*
X148511517Y-102980409D01*
X148497222Y-102962991D01*
X148428999Y-102835355D01*
X148413558Y-102806468D01*
X148370580Y-102664789D01*
X148362037Y-102636627D01*
X148344641Y-102460000D01*
X148362037Y-102283373D01*
X148413557Y-102113534D01*
X148497222Y-101957009D01*
X148526552Y-101921271D01*
X148609814Y-101819814D01*
X148711271Y-101736552D01*
X148747009Y-101707222D01*
X148903534Y-101623557D01*
X149073373Y-101572037D01*
X149139558Y-101565518D01*
X149205740Y-101559000D01*
X149294260Y-101559000D01*
X149360443Y-101565519D01*
X149360443Y-101565519D01*
G37*
G36*
X146820443Y-101565519D02*
G01*
X146886627Y-101572037D01*
X147056466Y-101623557D01*
X147212991Y-101707222D01*
X147248729Y-101736552D01*
X147350186Y-101819814D01*
X147433448Y-101921271D01*
X147462778Y-101957009D01*
X147546443Y-102113534D01*
X147597963Y-102283373D01*
X147615359Y-102460000D01*
X147597963Y-102636627D01*
X147589420Y-102664789D01*
X147546442Y-102806468D01*
X147531001Y-102835355D01*
X147462778Y-102962991D01*
X147448483Y-102980409D01*
X147350186Y-103100186D01*
X147248729Y-103183448D01*
X147212991Y-103212778D01*
X147056466Y-103296443D01*
X146886627Y-103347963D01*
X146820443Y-103354481D01*
X146754260Y-103361000D01*
X146665740Y-103361000D01*
X146599557Y-103354481D01*
X146533373Y-103347963D01*
X146363534Y-103296443D01*
X146207009Y-103212778D01*
X146171271Y-103183448D01*
X146069814Y-103100186D01*
X145971517Y-102980409D01*
X145957222Y-102962991D01*
X145888999Y-102835355D01*
X145873558Y-102806468D01*
X145830580Y-102664789D01*
X145822037Y-102636627D01*
X145804641Y-102460000D01*
X145822037Y-102283373D01*
X145873557Y-102113534D01*
X145957222Y-101957009D01*
X145986552Y-101921271D01*
X146069814Y-101819814D01*
X146171271Y-101736552D01*
X146207009Y-101707222D01*
X146363534Y-101623557D01*
X146533373Y-101572037D01*
X146599558Y-101565518D01*
X146665740Y-101559000D01*
X146754260Y-101559000D01*
X146820443Y-101565519D01*
X146820443Y-101565519D01*
G37*
G36*
X117863083Y-101149000D02*
G01*
X117969266Y-101170121D01*
X118158789Y-101248624D01*
X118329355Y-101362593D01*
X118474409Y-101507647D01*
X118588378Y-101678213D01*
X118588379Y-101678215D01*
X118666881Y-101867736D01*
X118706901Y-102068931D01*
X118706901Y-102274071D01*
X118666881Y-102475266D01*
X118594692Y-102649547D01*
X118588378Y-102664789D01*
X118474409Y-102835355D01*
X118329355Y-102980409D01*
X118158789Y-103094378D01*
X118158788Y-103094379D01*
X118158787Y-103094379D01*
X117969266Y-103172881D01*
X117768071Y-103212901D01*
X117562931Y-103212901D01*
X117361736Y-103172881D01*
X117172215Y-103094379D01*
X117172214Y-103094379D01*
X117172213Y-103094378D01*
X117001647Y-102980409D01*
X116856593Y-102835355D01*
X116742624Y-102664789D01*
X116736311Y-102649547D01*
X116664121Y-102475266D01*
X116624101Y-102274071D01*
X116624101Y-102068931D01*
X116664121Y-101867736D01*
X116742623Y-101678215D01*
X116742624Y-101678213D01*
X116856593Y-101507647D01*
X117001647Y-101362593D01*
X117172213Y-101248624D01*
X117361736Y-101170121D01*
X117467919Y-101149000D01*
X117562931Y-101130101D01*
X117768071Y-101130101D01*
X117863083Y-101149000D01*
X117863083Y-101149000D01*
G37*
G36*
X133103083Y-101149000D02*
G01*
X133209266Y-101170121D01*
X133398789Y-101248624D01*
X133569355Y-101362593D01*
X133714409Y-101507647D01*
X133828378Y-101678213D01*
X133828379Y-101678215D01*
X133906881Y-101867736D01*
X133946901Y-102068931D01*
X133946901Y-102274071D01*
X133906881Y-102475266D01*
X133834692Y-102649547D01*
X133828378Y-102664789D01*
X133714409Y-102835355D01*
X133569355Y-102980409D01*
X133398789Y-103094378D01*
X133398788Y-103094379D01*
X133398787Y-103094379D01*
X133209266Y-103172881D01*
X133008071Y-103212901D01*
X132802931Y-103212901D01*
X132601736Y-103172881D01*
X132412215Y-103094379D01*
X132412214Y-103094379D01*
X132412213Y-103094378D01*
X132241647Y-102980409D01*
X132096593Y-102835355D01*
X131982624Y-102664789D01*
X131976311Y-102649547D01*
X131904121Y-102475266D01*
X131864101Y-102274071D01*
X131864101Y-102068931D01*
X131904121Y-101867736D01*
X131982623Y-101678215D01*
X131982624Y-101678213D01*
X132096593Y-101507647D01*
X132241647Y-101362593D01*
X132412213Y-101248624D01*
X132601736Y-101170121D01*
X132707919Y-101149000D01*
X132802931Y-101130101D01*
X133008071Y-101130101D01*
X133103083Y-101149000D01*
X133103083Y-101149000D01*
G37*
G36*
X149360442Y-99025518D02*
G01*
X149426627Y-99032037D01*
X149596466Y-99083557D01*
X149752991Y-99167222D01*
X149788729Y-99196552D01*
X149890186Y-99279814D01*
X149973448Y-99381271D01*
X150002778Y-99417009D01*
X150086443Y-99573534D01*
X150137963Y-99743373D01*
X150155359Y-99920000D01*
X150137963Y-100096627D01*
X150129420Y-100124789D01*
X150086442Y-100266468D01*
X150071001Y-100295355D01*
X150002778Y-100422991D01*
X149988483Y-100440409D01*
X149890186Y-100560186D01*
X149788729Y-100643448D01*
X149752991Y-100672778D01*
X149596466Y-100756443D01*
X149426627Y-100807963D01*
X149360442Y-100814482D01*
X149294260Y-100821000D01*
X149205740Y-100821000D01*
X149139557Y-100814481D01*
X149073373Y-100807963D01*
X148903534Y-100756443D01*
X148747009Y-100672778D01*
X148711271Y-100643448D01*
X148609814Y-100560186D01*
X148511517Y-100440409D01*
X148497222Y-100422991D01*
X148428999Y-100295355D01*
X148413558Y-100266468D01*
X148370580Y-100124789D01*
X148362037Y-100096627D01*
X148344641Y-99920000D01*
X148362037Y-99743373D01*
X148413557Y-99573534D01*
X148497222Y-99417009D01*
X148526552Y-99381271D01*
X148609814Y-99279814D01*
X148711271Y-99196552D01*
X148747009Y-99167222D01*
X148903534Y-99083557D01*
X149073373Y-99032037D01*
X149139558Y-99025518D01*
X149205740Y-99019000D01*
X149294260Y-99019000D01*
X149360442Y-99025518D01*
X149360442Y-99025518D01*
G37*
G36*
X146820442Y-99025518D02*
G01*
X146886627Y-99032037D01*
X147056466Y-99083557D01*
X147212991Y-99167222D01*
X147248729Y-99196552D01*
X147350186Y-99279814D01*
X147433448Y-99381271D01*
X147462778Y-99417009D01*
X147546443Y-99573534D01*
X147597963Y-99743373D01*
X147615359Y-99920000D01*
X147597963Y-100096627D01*
X147589420Y-100124789D01*
X147546442Y-100266468D01*
X147531001Y-100295355D01*
X147462778Y-100422991D01*
X147448483Y-100440409D01*
X147350186Y-100560186D01*
X147248729Y-100643448D01*
X147212991Y-100672778D01*
X147056466Y-100756443D01*
X146886627Y-100807963D01*
X146820442Y-100814482D01*
X146754260Y-100821000D01*
X146665740Y-100821000D01*
X146599557Y-100814481D01*
X146533373Y-100807963D01*
X146363534Y-100756443D01*
X146207009Y-100672778D01*
X146171271Y-100643448D01*
X146069814Y-100560186D01*
X145971517Y-100440409D01*
X145957222Y-100422991D01*
X145888999Y-100295355D01*
X145873558Y-100266468D01*
X145830580Y-100124789D01*
X145822037Y-100096627D01*
X145804641Y-99920000D01*
X145822037Y-99743373D01*
X145873557Y-99573534D01*
X145957222Y-99417009D01*
X145986552Y-99381271D01*
X146069814Y-99279814D01*
X146171271Y-99196552D01*
X146207009Y-99167222D01*
X146363534Y-99083557D01*
X146533373Y-99032037D01*
X146599558Y-99025518D01*
X146665740Y-99019000D01*
X146754260Y-99019000D01*
X146820442Y-99025518D01*
X146820442Y-99025518D01*
G37*
G36*
X133209266Y-98630121D02*
G01*
X133398789Y-98708624D01*
X133569355Y-98822593D01*
X133714409Y-98967647D01*
X133827212Y-99136468D01*
X133828379Y-99138215D01*
X133892488Y-99292989D01*
X133906881Y-99327736D01*
X133946901Y-99528932D01*
X133946901Y-99734070D01*
X133906881Y-99935266D01*
X133828378Y-100124789D01*
X133714409Y-100295355D01*
X133569355Y-100440409D01*
X133398789Y-100554378D01*
X133398788Y-100554379D01*
X133398787Y-100554379D01*
X133209266Y-100632881D01*
X133008071Y-100672901D01*
X132802931Y-100672901D01*
X132601736Y-100632881D01*
X132412215Y-100554379D01*
X132412214Y-100554379D01*
X132412213Y-100554378D01*
X132241647Y-100440409D01*
X132096593Y-100295355D01*
X131982624Y-100124789D01*
X131904121Y-99935266D01*
X131864101Y-99734070D01*
X131864101Y-99528932D01*
X131904121Y-99327736D01*
X131918514Y-99292989D01*
X131982623Y-99138215D01*
X131983790Y-99136468D01*
X132096593Y-98967647D01*
X132241647Y-98822593D01*
X132412213Y-98708624D01*
X132601736Y-98630121D01*
X132802931Y-98590101D01*
X133008071Y-98590101D01*
X133209266Y-98630121D01*
X133209266Y-98630121D01*
G37*
G36*
X117969266Y-98630121D02*
G01*
X118158789Y-98708624D01*
X118329355Y-98822593D01*
X118474409Y-98967647D01*
X118587212Y-99136468D01*
X118588379Y-99138215D01*
X118652488Y-99292989D01*
X118666881Y-99327736D01*
X118706901Y-99528932D01*
X118706901Y-99734070D01*
X118666881Y-99935266D01*
X118588378Y-100124789D01*
X118474409Y-100295355D01*
X118329355Y-100440409D01*
X118158789Y-100554378D01*
X118158788Y-100554379D01*
X118158787Y-100554379D01*
X117969266Y-100632881D01*
X117768071Y-100672901D01*
X117562931Y-100672901D01*
X117361736Y-100632881D01*
X117172215Y-100554379D01*
X117172214Y-100554379D01*
X117172213Y-100554378D01*
X117001647Y-100440409D01*
X116856593Y-100295355D01*
X116742624Y-100124789D01*
X116664121Y-99935266D01*
X116624101Y-99734070D01*
X116624101Y-99528932D01*
X116664121Y-99327736D01*
X116678514Y-99292989D01*
X116742623Y-99138215D01*
X116743790Y-99136468D01*
X116856593Y-98967647D01*
X117001647Y-98822593D01*
X117172213Y-98708624D01*
X117361736Y-98630121D01*
X117562931Y-98590101D01*
X117768071Y-98590101D01*
X117969266Y-98630121D01*
X117969266Y-98630121D01*
G37*
G36*
X109860442Y-97895518D02*
G01*
X109926627Y-97902037D01*
X110096466Y-97953557D01*
X110252991Y-98037222D01*
X110288729Y-98066552D01*
X110390186Y-98149814D01*
X110473448Y-98251271D01*
X110502778Y-98287009D01*
X110586443Y-98443534D01*
X110637963Y-98613373D01*
X110655359Y-98790000D01*
X110637963Y-98966627D01*
X110586443Y-99136466D01*
X110502778Y-99292991D01*
X110474263Y-99327736D01*
X110390186Y-99430186D01*
X110288729Y-99513448D01*
X110252991Y-99542778D01*
X110096466Y-99626443D01*
X109926627Y-99677963D01*
X109860443Y-99684481D01*
X109794260Y-99691000D01*
X109705740Y-99691000D01*
X109639557Y-99684481D01*
X109573373Y-99677963D01*
X109403534Y-99626443D01*
X109247009Y-99542778D01*
X109211271Y-99513448D01*
X109109814Y-99430186D01*
X109025737Y-99327736D01*
X108997222Y-99292991D01*
X108913557Y-99136466D01*
X108862037Y-98966627D01*
X108844641Y-98790000D01*
X108862037Y-98613373D01*
X108913557Y-98443534D01*
X108997222Y-98287009D01*
X109026552Y-98251271D01*
X109109814Y-98149814D01*
X109211271Y-98066552D01*
X109247009Y-98037222D01*
X109403534Y-97953557D01*
X109573373Y-97902037D01*
X109639558Y-97895518D01*
X109705740Y-97889000D01*
X109794260Y-97889000D01*
X109860442Y-97895518D01*
X109860442Y-97895518D01*
G37*
G36*
X133209266Y-96090121D02*
G01*
X133398789Y-96168624D01*
X133569355Y-96282593D01*
X133714409Y-96427647D01*
X133828378Y-96598213D01*
X133906881Y-96787736D01*
X133946901Y-96988932D01*
X133946901Y-97194070D01*
X133906881Y-97395266D01*
X133828378Y-97584789D01*
X133714409Y-97755355D01*
X133569355Y-97900409D01*
X133398789Y-98014378D01*
X133398788Y-98014379D01*
X133398787Y-98014379D01*
X133209266Y-98092881D01*
X133008071Y-98132901D01*
X132802931Y-98132901D01*
X132601736Y-98092881D01*
X132412215Y-98014379D01*
X132412214Y-98014379D01*
X132412213Y-98014378D01*
X132241647Y-97900409D01*
X132096593Y-97755355D01*
X131982624Y-97584789D01*
X131904121Y-97395266D01*
X131864101Y-97194070D01*
X131864101Y-96988932D01*
X131904121Y-96787736D01*
X131982624Y-96598213D01*
X132096593Y-96427647D01*
X132241647Y-96282593D01*
X132412213Y-96168624D01*
X132601736Y-96090121D01*
X132802931Y-96050101D01*
X133008071Y-96050101D01*
X133209266Y-96090121D01*
X133209266Y-96090121D01*
G37*
G36*
X117969266Y-96090121D02*
G01*
X118158789Y-96168624D01*
X118329355Y-96282593D01*
X118474409Y-96427647D01*
X118588378Y-96598213D01*
X118666881Y-96787736D01*
X118706901Y-96988932D01*
X118706901Y-97194070D01*
X118666881Y-97395266D01*
X118588378Y-97584789D01*
X118474409Y-97755355D01*
X118329355Y-97900409D01*
X118158789Y-98014378D01*
X118158788Y-98014379D01*
X118158787Y-98014379D01*
X117969266Y-98092881D01*
X117768071Y-98132901D01*
X117562931Y-98132901D01*
X117361736Y-98092881D01*
X117172215Y-98014379D01*
X117172214Y-98014379D01*
X117172213Y-98014378D01*
X117001647Y-97900409D01*
X116856593Y-97755355D01*
X116742624Y-97584789D01*
X116664121Y-97395266D01*
X116624101Y-97194070D01*
X116624101Y-96988932D01*
X116664121Y-96787736D01*
X116742624Y-96598213D01*
X116856593Y-96427647D01*
X117001647Y-96282593D01*
X117172213Y-96168624D01*
X117361736Y-96090121D01*
X117562931Y-96050101D01*
X117768071Y-96050101D01*
X117969266Y-96090121D01*
X117969266Y-96090121D01*
G37*
G36*
X110651000Y-97151000D02*
G01*
X108849000Y-97151000D01*
X108849000Y-95349000D01*
X110651000Y-95349000D01*
X110651000Y-97151000D01*
X110651000Y-97151000D01*
G37*
G36*
X117969266Y-93550121D02*
G01*
X118158789Y-93628624D01*
X118329355Y-93742593D01*
X118474409Y-93887647D01*
X118588378Y-94058213D01*
X118666881Y-94247736D01*
X118706901Y-94448932D01*
X118706901Y-94654070D01*
X118666881Y-94855266D01*
X118588378Y-95044789D01*
X118474409Y-95215355D01*
X118329355Y-95360409D01*
X118158789Y-95474378D01*
X118158788Y-95474379D01*
X118158787Y-95474379D01*
X117969266Y-95552881D01*
X117768071Y-95592901D01*
X117562931Y-95592901D01*
X117361736Y-95552881D01*
X117172215Y-95474379D01*
X117172214Y-95474379D01*
X117172213Y-95474378D01*
X117001647Y-95360409D01*
X116856593Y-95215355D01*
X116742624Y-95044789D01*
X116664121Y-94855266D01*
X116624101Y-94654070D01*
X116624101Y-94448932D01*
X116664121Y-94247736D01*
X116742624Y-94058213D01*
X116856593Y-93887647D01*
X117001647Y-93742593D01*
X117172213Y-93628624D01*
X117361736Y-93550121D01*
X117562931Y-93510101D01*
X117768071Y-93510101D01*
X117969266Y-93550121D01*
X117969266Y-93550121D01*
G37*
G36*
X133209266Y-93550121D02*
G01*
X133398789Y-93628624D01*
X133569355Y-93742593D01*
X133714409Y-93887647D01*
X133828378Y-94058213D01*
X133906881Y-94247736D01*
X133946901Y-94448932D01*
X133946901Y-94654070D01*
X133906881Y-94855266D01*
X133828378Y-95044789D01*
X133714409Y-95215355D01*
X133569355Y-95360409D01*
X133398789Y-95474378D01*
X133398788Y-95474379D01*
X133398787Y-95474379D01*
X133209266Y-95552881D01*
X133008071Y-95592901D01*
X132802931Y-95592901D01*
X132601736Y-95552881D01*
X132412215Y-95474379D01*
X132412214Y-95474379D01*
X132412213Y-95474378D01*
X132241647Y-95360409D01*
X132096593Y-95215355D01*
X131982624Y-95044789D01*
X131904121Y-94855266D01*
X131864101Y-94654070D01*
X131864101Y-94448932D01*
X131904121Y-94247736D01*
X131982624Y-94058213D01*
X132096593Y-93887647D01*
X132241647Y-93742593D01*
X132412213Y-93628624D01*
X132601736Y-93550121D01*
X132802931Y-93510101D01*
X133008071Y-93510101D01*
X133209266Y-93550121D01*
X133209266Y-93550121D01*
G37*
G36*
X133202052Y-91008686D02*
G01*
X133209266Y-91010121D01*
X133398789Y-91088624D01*
X133569355Y-91202593D01*
X133714409Y-91347647D01*
X133828378Y-91518213D01*
X133906881Y-91707736D01*
X133946901Y-91908932D01*
X133946901Y-92114070D01*
X133906881Y-92315266D01*
X133828378Y-92504789D01*
X133714409Y-92675355D01*
X133569355Y-92820409D01*
X133398789Y-92934378D01*
X133398788Y-92934379D01*
X133398787Y-92934379D01*
X133209266Y-93012881D01*
X133008071Y-93052901D01*
X132802931Y-93052901D01*
X132601736Y-93012881D01*
X132412215Y-92934379D01*
X132412214Y-92934379D01*
X132412213Y-92934378D01*
X132241647Y-92820409D01*
X132096593Y-92675355D01*
X131982624Y-92504789D01*
X131904121Y-92315266D01*
X131864101Y-92114070D01*
X131864101Y-91908932D01*
X131904121Y-91707736D01*
X131982624Y-91518213D01*
X132096593Y-91347647D01*
X132241647Y-91202593D01*
X132412213Y-91088624D01*
X132601736Y-91010121D01*
X132608950Y-91008686D01*
X132802931Y-90970101D01*
X133008071Y-90970101D01*
X133202052Y-91008686D01*
X133202052Y-91008686D01*
G37*
G36*
X117962052Y-91008686D02*
G01*
X117969266Y-91010121D01*
X118158789Y-91088624D01*
X118329355Y-91202593D01*
X118474409Y-91347647D01*
X118588378Y-91518213D01*
X118666881Y-91707736D01*
X118706901Y-91908932D01*
X118706901Y-92114070D01*
X118666881Y-92315266D01*
X118588378Y-92504789D01*
X118474409Y-92675355D01*
X118329355Y-92820409D01*
X118158789Y-92934378D01*
X118158788Y-92934379D01*
X118158787Y-92934379D01*
X117969266Y-93012881D01*
X117768071Y-93052901D01*
X117562931Y-93052901D01*
X117361736Y-93012881D01*
X117172215Y-92934379D01*
X117172214Y-92934379D01*
X117172213Y-92934378D01*
X117001647Y-92820409D01*
X116856593Y-92675355D01*
X116742624Y-92504789D01*
X116664121Y-92315266D01*
X116624101Y-92114070D01*
X116624101Y-91908932D01*
X116664121Y-91707736D01*
X116742624Y-91518213D01*
X116856593Y-91347647D01*
X117001647Y-91202593D01*
X117172213Y-91088624D01*
X117361736Y-91010121D01*
X117368950Y-91008686D01*
X117562931Y-90970101D01*
X117768071Y-90970101D01*
X117962052Y-91008686D01*
X117962052Y-91008686D01*
G37*
G36*
X103544823Y-89331313D02*
G01*
X103705242Y-89379976D01*
X103772361Y-89415852D01*
X103853078Y-89458996D01*
X103982659Y-89565341D01*
X104089004Y-89694922D01*
X104089005Y-89694924D01*
X104168024Y-89842758D01*
X104216687Y-90003177D01*
X104233117Y-90170000D01*
X104216687Y-90336823D01*
X104168024Y-90497242D01*
X104127477Y-90573100D01*
X104089004Y-90645078D01*
X103982659Y-90774659D01*
X103853078Y-90881004D01*
X103853076Y-90881005D01*
X103705242Y-90960024D01*
X103544823Y-91008687D01*
X103419804Y-91021000D01*
X103336196Y-91021000D01*
X103211177Y-91008687D01*
X103050758Y-90960024D01*
X102902924Y-90881005D01*
X102902922Y-90881004D01*
X102773341Y-90774659D01*
X102666996Y-90645078D01*
X102628523Y-90573100D01*
X102587976Y-90497242D01*
X102539313Y-90336823D01*
X102522883Y-90170000D01*
X102539313Y-90003177D01*
X102587976Y-89842758D01*
X102666995Y-89694924D01*
X102666996Y-89694922D01*
X102773341Y-89565341D01*
X102902922Y-89458996D01*
X102983639Y-89415852D01*
X103050758Y-89379976D01*
X103211177Y-89331313D01*
X103336196Y-89319000D01*
X103419804Y-89319000D01*
X103544823Y-89331313D01*
X103544823Y-89331313D01*
G37*
G36*
X113786228Y-89351703D02*
G01*
X113941100Y-89415853D01*
X114080481Y-89508985D01*
X114199015Y-89627519D01*
X114292147Y-89766900D01*
X114356297Y-89921772D01*
X114389000Y-90086184D01*
X114389000Y-90253816D01*
X114356297Y-90418228D01*
X114292147Y-90573100D01*
X114199015Y-90712481D01*
X114080481Y-90831015D01*
X113941100Y-90924147D01*
X113786228Y-90988297D01*
X113621816Y-91021000D01*
X113454184Y-91021000D01*
X113289772Y-90988297D01*
X113134900Y-90924147D01*
X112995519Y-90831015D01*
X112876985Y-90712481D01*
X112783853Y-90573100D01*
X112719703Y-90418228D01*
X112687000Y-90253816D01*
X112687000Y-90086184D01*
X112719703Y-89921772D01*
X112783853Y-89766900D01*
X112876985Y-89627519D01*
X112995519Y-89508985D01*
X113134900Y-89415853D01*
X113289772Y-89351703D01*
X113454184Y-89319000D01*
X113621816Y-89319000D01*
X113786228Y-89351703D01*
X113786228Y-89351703D01*
G37*
G36*
X117969266Y-88470121D02*
G01*
X118158789Y-88548624D01*
X118329355Y-88662593D01*
X118474409Y-88807647D01*
X118474410Y-88807649D01*
X118588379Y-88978215D01*
X118666881Y-89167736D01*
X118706901Y-89368931D01*
X118706901Y-89574071D01*
X118696269Y-89627520D01*
X118666881Y-89775266D01*
X118588378Y-89964789D01*
X118474409Y-90135355D01*
X118329355Y-90280409D01*
X118158789Y-90394378D01*
X118158788Y-90394379D01*
X118158787Y-90394379D01*
X117969266Y-90472881D01*
X117768071Y-90512901D01*
X117562931Y-90512901D01*
X117361736Y-90472881D01*
X117172215Y-90394379D01*
X117172214Y-90394379D01*
X117172213Y-90394378D01*
X117001647Y-90280409D01*
X116856593Y-90135355D01*
X116742624Y-89964789D01*
X116664121Y-89775266D01*
X116634733Y-89627520D01*
X116624101Y-89574071D01*
X116624101Y-89368931D01*
X116664121Y-89167736D01*
X116742623Y-88978215D01*
X116856592Y-88807649D01*
X116856593Y-88807647D01*
X117001647Y-88662593D01*
X117172213Y-88548624D01*
X117361736Y-88470121D01*
X117562931Y-88430101D01*
X117768071Y-88430101D01*
X117969266Y-88470121D01*
X117969266Y-88470121D01*
G37*
G36*
X133209266Y-88470121D02*
G01*
X133398789Y-88548624D01*
X133569355Y-88662593D01*
X133714409Y-88807647D01*
X133714410Y-88807649D01*
X133828379Y-88978215D01*
X133906881Y-89167736D01*
X133946901Y-89368931D01*
X133946901Y-89574071D01*
X133936269Y-89627520D01*
X133906881Y-89775266D01*
X133828378Y-89964789D01*
X133714409Y-90135355D01*
X133569355Y-90280409D01*
X133398789Y-90394378D01*
X133398788Y-90394379D01*
X133398787Y-90394379D01*
X133209266Y-90472881D01*
X133008071Y-90512901D01*
X132802931Y-90512901D01*
X132601736Y-90472881D01*
X132412215Y-90394379D01*
X132412214Y-90394379D01*
X132412213Y-90394378D01*
X132241647Y-90280409D01*
X132096593Y-90135355D01*
X131982624Y-89964789D01*
X131904121Y-89775266D01*
X131874733Y-89627520D01*
X131864101Y-89574071D01*
X131864101Y-89368931D01*
X131904121Y-89167736D01*
X131982623Y-88978215D01*
X132096592Y-88807649D01*
X132096593Y-88807647D01*
X132241647Y-88662593D01*
X132412213Y-88548624D01*
X132601736Y-88470121D01*
X132802931Y-88430101D01*
X133008071Y-88430101D01*
X133209266Y-88470121D01*
X133209266Y-88470121D01*
G37*
G36*
X140126564Y-86365389D02*
G01*
X140317833Y-86444615D01*
X140317835Y-86444616D01*
X140489973Y-86559635D01*
X140636365Y-86706027D01*
X140725205Y-86838985D01*
X140751385Y-86878167D01*
X140830611Y-87069436D01*
X140871000Y-87272484D01*
X140871000Y-87479516D01*
X140830611Y-87682564D01*
X140759443Y-87854379D01*
X140751384Y-87873835D01*
X140636365Y-88045973D01*
X140489973Y-88192365D01*
X140317835Y-88307384D01*
X140317834Y-88307385D01*
X140317833Y-88307385D01*
X140126564Y-88386611D01*
X139923516Y-88427000D01*
X139716484Y-88427000D01*
X139513436Y-88386611D01*
X139322167Y-88307385D01*
X139322166Y-88307385D01*
X139322165Y-88307384D01*
X139150027Y-88192365D01*
X139003635Y-88045973D01*
X138888616Y-87873835D01*
X138880557Y-87854379D01*
X138809389Y-87682564D01*
X138769000Y-87479516D01*
X138769000Y-87272484D01*
X138809389Y-87069436D01*
X138888615Y-86878167D01*
X138914796Y-86838985D01*
X139003635Y-86706027D01*
X139150027Y-86559635D01*
X139322165Y-86444616D01*
X139322167Y-86444615D01*
X139513436Y-86365389D01*
X139716484Y-86325000D01*
X139923516Y-86325000D01*
X140126564Y-86365389D01*
X140126564Y-86365389D01*
G37*
G36*
X147626564Y-86365389D02*
G01*
X147817833Y-86444615D01*
X147817835Y-86444616D01*
X147989973Y-86559635D01*
X148136365Y-86706027D01*
X148225205Y-86838985D01*
X148251385Y-86878167D01*
X148330611Y-87069436D01*
X148371000Y-87272484D01*
X148371000Y-87479516D01*
X148330611Y-87682564D01*
X148259443Y-87854379D01*
X148251384Y-87873835D01*
X148136365Y-88045973D01*
X147989973Y-88192365D01*
X147817835Y-88307384D01*
X147817834Y-88307385D01*
X147817833Y-88307385D01*
X147626564Y-88386611D01*
X147423516Y-88427000D01*
X147216484Y-88427000D01*
X147013436Y-88386611D01*
X146822167Y-88307385D01*
X146822166Y-88307385D01*
X146822165Y-88307384D01*
X146650027Y-88192365D01*
X146503635Y-88045973D01*
X146388616Y-87873835D01*
X146380557Y-87854379D01*
X146309389Y-87682564D01*
X146269000Y-87479516D01*
X146269000Y-87272484D01*
X146309389Y-87069436D01*
X146388615Y-86878167D01*
X146414796Y-86838985D01*
X146503635Y-86706027D01*
X146650027Y-86559635D01*
X146822165Y-86444616D01*
X146822167Y-86444615D01*
X147013436Y-86365389D01*
X147216484Y-86325000D01*
X147423516Y-86325000D01*
X147626564Y-86365389D01*
X147626564Y-86365389D01*
G37*
G36*
X156998228Y-86681703D02*
G01*
X157153100Y-86745853D01*
X157292481Y-86838985D01*
X157411015Y-86957519D01*
X157504147Y-87096900D01*
X157568297Y-87251772D01*
X157601000Y-87416184D01*
X157601000Y-87583816D01*
X157568297Y-87748228D01*
X157504147Y-87903100D01*
X157411015Y-88042481D01*
X157292481Y-88161015D01*
X157153100Y-88254147D01*
X156998228Y-88318297D01*
X156833816Y-88351000D01*
X156666184Y-88351000D01*
X156501772Y-88318297D01*
X156346900Y-88254147D01*
X156207519Y-88161015D01*
X156088985Y-88042481D01*
X155995853Y-87903100D01*
X155931703Y-87748228D01*
X155899000Y-87583816D01*
X155899000Y-87416184D01*
X155931703Y-87251772D01*
X155995853Y-87096900D01*
X156088985Y-86957519D01*
X156207519Y-86838985D01*
X156346900Y-86745853D01*
X156501772Y-86681703D01*
X156666184Y-86649000D01*
X156833816Y-86649000D01*
X156998228Y-86681703D01*
X156998228Y-86681703D01*
G37*
G36*
X154998228Y-86681703D02*
G01*
X155153100Y-86745853D01*
X155292481Y-86838985D01*
X155411015Y-86957519D01*
X155504147Y-87096900D01*
X155568297Y-87251772D01*
X155601000Y-87416184D01*
X155601000Y-87583816D01*
X155568297Y-87748228D01*
X155504147Y-87903100D01*
X155411015Y-88042481D01*
X155292481Y-88161015D01*
X155153100Y-88254147D01*
X154998228Y-88318297D01*
X154833816Y-88351000D01*
X154666184Y-88351000D01*
X154501772Y-88318297D01*
X154346900Y-88254147D01*
X154207519Y-88161015D01*
X154088985Y-88042481D01*
X153995853Y-87903100D01*
X153931703Y-87748228D01*
X153899000Y-87583816D01*
X153899000Y-87416184D01*
X153931703Y-87251772D01*
X153995853Y-87096900D01*
X154088985Y-86957519D01*
X154207519Y-86838985D01*
X154346900Y-86745853D01*
X154501772Y-86681703D01*
X154666184Y-86649000D01*
X154833816Y-86649000D01*
X154998228Y-86681703D01*
X154998228Y-86681703D01*
G37*
G36*
X117969266Y-85930121D02*
G01*
X118158789Y-86008624D01*
X118329355Y-86122593D01*
X118474409Y-86267647D01*
X118539718Y-86365389D01*
X118588379Y-86438215D01*
X118666881Y-86627736D01*
X118706901Y-86828931D01*
X118706901Y-87034071D01*
X118694403Y-87096903D01*
X118666881Y-87235266D01*
X118588378Y-87424789D01*
X118474409Y-87595355D01*
X118329355Y-87740409D01*
X118158789Y-87854378D01*
X118158788Y-87854379D01*
X118158787Y-87854379D01*
X117969266Y-87932881D01*
X117768071Y-87972901D01*
X117562931Y-87972901D01*
X117361736Y-87932881D01*
X117172215Y-87854379D01*
X117172214Y-87854379D01*
X117172213Y-87854378D01*
X117001647Y-87740409D01*
X116856593Y-87595355D01*
X116742624Y-87424789D01*
X116664121Y-87235266D01*
X116636599Y-87096903D01*
X116624101Y-87034071D01*
X116624101Y-86828931D01*
X116664121Y-86627736D01*
X116742623Y-86438215D01*
X116791284Y-86365389D01*
X116856593Y-86267647D01*
X117001647Y-86122593D01*
X117172213Y-86008624D01*
X117361736Y-85930121D01*
X117562931Y-85890101D01*
X117768071Y-85890101D01*
X117969266Y-85930121D01*
X117969266Y-85930121D01*
G37*
G36*
X133209266Y-85930121D02*
G01*
X133398789Y-86008624D01*
X133569355Y-86122593D01*
X133714409Y-86267647D01*
X133779718Y-86365389D01*
X133828379Y-86438215D01*
X133906881Y-86627736D01*
X133946901Y-86828931D01*
X133946901Y-87034071D01*
X133934403Y-87096903D01*
X133906881Y-87235266D01*
X133828378Y-87424789D01*
X133714409Y-87595355D01*
X133569355Y-87740409D01*
X133398789Y-87854378D01*
X133398788Y-87854379D01*
X133398787Y-87854379D01*
X133209266Y-87932881D01*
X133008071Y-87972901D01*
X132802931Y-87972901D01*
X132601736Y-87932881D01*
X132412215Y-87854379D01*
X132412214Y-87854379D01*
X132412213Y-87854378D01*
X132241647Y-87740409D01*
X132096593Y-87595355D01*
X131982624Y-87424789D01*
X131904121Y-87235266D01*
X131876599Y-87096903D01*
X131864101Y-87034071D01*
X131864101Y-86828931D01*
X131904121Y-86627736D01*
X131982623Y-86438215D01*
X132031284Y-86365389D01*
X132096593Y-86267647D01*
X132241647Y-86122593D01*
X132412213Y-86008624D01*
X132601736Y-85930121D01*
X132802931Y-85890101D01*
X133008071Y-85890101D01*
X133209266Y-85930121D01*
X133209266Y-85930121D01*
G37*
G36*
X113786228Y-85033703D02*
G01*
X113941100Y-85097853D01*
X114080481Y-85190985D01*
X114199015Y-85309519D01*
X114292147Y-85448900D01*
X114356297Y-85603772D01*
X114389000Y-85768184D01*
X114389000Y-85935816D01*
X114356297Y-86100228D01*
X114292147Y-86255100D01*
X114199015Y-86394481D01*
X114080481Y-86513015D01*
X113941100Y-86606147D01*
X113786228Y-86670297D01*
X113621816Y-86703000D01*
X113454184Y-86703000D01*
X113289772Y-86670297D01*
X113134900Y-86606147D01*
X112995519Y-86513015D01*
X112876985Y-86394481D01*
X112783853Y-86255100D01*
X112719703Y-86100228D01*
X112687000Y-85935816D01*
X112687000Y-85768184D01*
X112719703Y-85603772D01*
X112783853Y-85448900D01*
X112876985Y-85309519D01*
X112995519Y-85190985D01*
X113134900Y-85097853D01*
X113289772Y-85033703D01*
X113454184Y-85001000D01*
X113621816Y-85001000D01*
X113786228Y-85033703D01*
X113786228Y-85033703D01*
G37*
G36*
X103544823Y-85013313D02*
G01*
X103705242Y-85061976D01*
X103772361Y-85097852D01*
X103853078Y-85140996D01*
X103982659Y-85247341D01*
X104089004Y-85376922D01*
X104089005Y-85376924D01*
X104168024Y-85524758D01*
X104216687Y-85685177D01*
X104233117Y-85852000D01*
X104216687Y-86018823D01*
X104168024Y-86179242D01*
X104127477Y-86255100D01*
X104089004Y-86327078D01*
X103982659Y-86456659D01*
X103853078Y-86563004D01*
X103853076Y-86563005D01*
X103705242Y-86642024D01*
X103544823Y-86690687D01*
X103419804Y-86703000D01*
X103336196Y-86703000D01*
X103211177Y-86690687D01*
X103050758Y-86642024D01*
X102902924Y-86563005D01*
X102902922Y-86563004D01*
X102773341Y-86456659D01*
X102666996Y-86327078D01*
X102628523Y-86255100D01*
X102587976Y-86179242D01*
X102539313Y-86018823D01*
X102522883Y-85852000D01*
X102539313Y-85685177D01*
X102587976Y-85524758D01*
X102666995Y-85376924D01*
X102666996Y-85376922D01*
X102773341Y-85247341D01*
X102902922Y-85140996D01*
X102983639Y-85097852D01*
X103050758Y-85061976D01*
X103211177Y-85013313D01*
X103336196Y-85001000D01*
X103419804Y-85001000D01*
X103544823Y-85013313D01*
X103544823Y-85013313D01*
G37*
G36*
X117969266Y-83390121D02*
G01*
X118158789Y-83468624D01*
X118329355Y-83582593D01*
X118474409Y-83727647D01*
X118588378Y-83898213D01*
X118666881Y-84087736D01*
X118706901Y-84288932D01*
X118706901Y-84494070D01*
X118666881Y-84695266D01*
X118588378Y-84884789D01*
X118474409Y-85055355D01*
X118329355Y-85200409D01*
X118158789Y-85314378D01*
X118158788Y-85314379D01*
X118158787Y-85314379D01*
X117969266Y-85392881D01*
X117768071Y-85432901D01*
X117562931Y-85432901D01*
X117361736Y-85392881D01*
X117172215Y-85314379D01*
X117172214Y-85314379D01*
X117172213Y-85314378D01*
X117001647Y-85200409D01*
X116856593Y-85055355D01*
X116742624Y-84884789D01*
X116664121Y-84695266D01*
X116624101Y-84494070D01*
X116624101Y-84288932D01*
X116664121Y-84087736D01*
X116742624Y-83898213D01*
X116856593Y-83727647D01*
X117001647Y-83582593D01*
X117172213Y-83468624D01*
X117361736Y-83390121D01*
X117562931Y-83350101D01*
X117768071Y-83350101D01*
X117969266Y-83390121D01*
X117969266Y-83390121D01*
G37*
G36*
X133209266Y-83390121D02*
G01*
X133398789Y-83468624D01*
X133569355Y-83582593D01*
X133714409Y-83727647D01*
X133828378Y-83898213D01*
X133906881Y-84087736D01*
X133946901Y-84288932D01*
X133946901Y-84494070D01*
X133906881Y-84695266D01*
X133828378Y-84884789D01*
X133714409Y-85055355D01*
X133569355Y-85200409D01*
X133398789Y-85314378D01*
X133398788Y-85314379D01*
X133398787Y-85314379D01*
X133209266Y-85392881D01*
X133008071Y-85432901D01*
X132802931Y-85432901D01*
X132601736Y-85392881D01*
X132412215Y-85314379D01*
X132412214Y-85314379D01*
X132412213Y-85314378D01*
X132241647Y-85200409D01*
X132096593Y-85055355D01*
X131982624Y-84884789D01*
X131904121Y-84695266D01*
X131864101Y-84494070D01*
X131864101Y-84288932D01*
X131904121Y-84087736D01*
X131982624Y-83898213D01*
X132096593Y-83727647D01*
X132241647Y-83582593D01*
X132412213Y-83468624D01*
X132601736Y-83390121D01*
X132802931Y-83350101D01*
X133008071Y-83350101D01*
X133209266Y-83390121D01*
X133209266Y-83390121D01*
G37*
G36*
X117969266Y-80850121D02*
G01*
X118057016Y-80886468D01*
X118158789Y-80928624D01*
X118329355Y-81042593D01*
X118474409Y-81187647D01*
X118544656Y-81292779D01*
X118588379Y-81358215D01*
X118666881Y-81547736D01*
X118706901Y-81748932D01*
X118706901Y-81954070D01*
X118666881Y-82155266D01*
X118588378Y-82344789D01*
X118474409Y-82515355D01*
X118329355Y-82660409D01*
X118158789Y-82774378D01*
X118158788Y-82774379D01*
X118158787Y-82774379D01*
X117969266Y-82852881D01*
X117768071Y-82892901D01*
X117562931Y-82892901D01*
X117361736Y-82852881D01*
X117172215Y-82774379D01*
X117172214Y-82774379D01*
X117172213Y-82774378D01*
X117001647Y-82660409D01*
X116856593Y-82515355D01*
X116742624Y-82344789D01*
X116664121Y-82155266D01*
X116624101Y-81954070D01*
X116624101Y-81748932D01*
X116664121Y-81547736D01*
X116742623Y-81358215D01*
X116786346Y-81292779D01*
X116856593Y-81187647D01*
X117001647Y-81042593D01*
X117172213Y-80928624D01*
X117273987Y-80886468D01*
X117361736Y-80850121D01*
X117562931Y-80810101D01*
X117768071Y-80810101D01*
X117969266Y-80850121D01*
X117969266Y-80850121D01*
G37*
G36*
X133209266Y-80850121D02*
G01*
X133297016Y-80886468D01*
X133398789Y-80928624D01*
X133569355Y-81042593D01*
X133714409Y-81187647D01*
X133784656Y-81292779D01*
X133828379Y-81358215D01*
X133906881Y-81547736D01*
X133946901Y-81748932D01*
X133946901Y-81954070D01*
X133906881Y-82155266D01*
X133828378Y-82344789D01*
X133714409Y-82515355D01*
X133569355Y-82660409D01*
X133398789Y-82774378D01*
X133398788Y-82774379D01*
X133398787Y-82774379D01*
X133209266Y-82852881D01*
X133008071Y-82892901D01*
X132802931Y-82892901D01*
X132601736Y-82852881D01*
X132412215Y-82774379D01*
X132412214Y-82774379D01*
X132412213Y-82774378D01*
X132241647Y-82660409D01*
X132096593Y-82515355D01*
X131982624Y-82344789D01*
X131904121Y-82155266D01*
X131864101Y-81954070D01*
X131864101Y-81748932D01*
X131904121Y-81547736D01*
X131982623Y-81358215D01*
X132026346Y-81292779D01*
X132096593Y-81187647D01*
X132241647Y-81042593D01*
X132412213Y-80928624D01*
X132513987Y-80886468D01*
X132601736Y-80850121D01*
X132802931Y-80810101D01*
X133008071Y-80810101D01*
X133209266Y-80850121D01*
X133209266Y-80850121D01*
G37*
G36*
X154110442Y-79645518D02*
G01*
X154176627Y-79652037D01*
X154346466Y-79703557D01*
X154502991Y-79787222D01*
X154524394Y-79804787D01*
X154640186Y-79899814D01*
X154702178Y-79975353D01*
X154752778Y-80037009D01*
X154836443Y-80193534D01*
X154887963Y-80363373D01*
X154905359Y-80540000D01*
X154887963Y-80716627D01*
X154836443Y-80886466D01*
X154752778Y-81042991D01*
X154723448Y-81078729D01*
X154640186Y-81180186D01*
X154538729Y-81263448D01*
X154502991Y-81292778D01*
X154346466Y-81376443D01*
X154176627Y-81427963D01*
X154110443Y-81434481D01*
X154044260Y-81441000D01*
X153955740Y-81441000D01*
X153889557Y-81434481D01*
X153823373Y-81427963D01*
X153653534Y-81376443D01*
X153497009Y-81292778D01*
X153461271Y-81263448D01*
X153359814Y-81180186D01*
X153276552Y-81078729D01*
X153247222Y-81042991D01*
X153163557Y-80886466D01*
X153112037Y-80716627D01*
X153094641Y-80540000D01*
X153112037Y-80363373D01*
X153163557Y-80193534D01*
X153247222Y-80037009D01*
X153297822Y-79975353D01*
X153359814Y-79899814D01*
X153475606Y-79804787D01*
X153497009Y-79787222D01*
X153653534Y-79703557D01*
X153823373Y-79652037D01*
X153889558Y-79645518D01*
X153955740Y-79639000D01*
X154044260Y-79639000D01*
X154110442Y-79645518D01*
X154110442Y-79645518D01*
G37*
G36*
X117969266Y-78310121D02*
G01*
X118057016Y-78346468D01*
X118158789Y-78388624D01*
X118329355Y-78502593D01*
X118474409Y-78647647D01*
X118587839Y-78817407D01*
X118588379Y-78818215D01*
X118666881Y-79007736D01*
X118706901Y-79208931D01*
X118706901Y-79414071D01*
X118666881Y-79615266D01*
X118595655Y-79787222D01*
X118588378Y-79804789D01*
X118474409Y-79975355D01*
X118329355Y-80120409D01*
X118158789Y-80234378D01*
X118158788Y-80234379D01*
X118158787Y-80234379D01*
X117969266Y-80312881D01*
X117768071Y-80352901D01*
X117562931Y-80352901D01*
X117361736Y-80312881D01*
X117172215Y-80234379D01*
X117172214Y-80234379D01*
X117172213Y-80234378D01*
X117001647Y-80120409D01*
X116856593Y-79975355D01*
X116742624Y-79804789D01*
X116735348Y-79787222D01*
X116664121Y-79615266D01*
X116624101Y-79414071D01*
X116624101Y-79208931D01*
X116664121Y-79007736D01*
X116742623Y-78818215D01*
X116743163Y-78817407D01*
X116856593Y-78647647D01*
X117001647Y-78502593D01*
X117172213Y-78388624D01*
X117273987Y-78346468D01*
X117361736Y-78310121D01*
X117562931Y-78270101D01*
X117768071Y-78270101D01*
X117969266Y-78310121D01*
X117969266Y-78310121D01*
G37*
G36*
X133209266Y-78310121D02*
G01*
X133297016Y-78346468D01*
X133398789Y-78388624D01*
X133569355Y-78502593D01*
X133714409Y-78647647D01*
X133827839Y-78817407D01*
X133828379Y-78818215D01*
X133906881Y-79007736D01*
X133946901Y-79208931D01*
X133946901Y-79414071D01*
X133906881Y-79615266D01*
X133835655Y-79787222D01*
X133828378Y-79804789D01*
X133714409Y-79975355D01*
X133569355Y-80120409D01*
X133398789Y-80234378D01*
X133398788Y-80234379D01*
X133398787Y-80234379D01*
X133209266Y-80312881D01*
X133008071Y-80352901D01*
X132802931Y-80352901D01*
X132601736Y-80312881D01*
X132412215Y-80234379D01*
X132412214Y-80234379D01*
X132412213Y-80234378D01*
X132241647Y-80120409D01*
X132096593Y-79975355D01*
X131982624Y-79804789D01*
X131975348Y-79787222D01*
X131904121Y-79615266D01*
X131864101Y-79414071D01*
X131864101Y-79208931D01*
X131904121Y-79007736D01*
X131982623Y-78818215D01*
X131983163Y-78817407D01*
X132096593Y-78647647D01*
X132241647Y-78502593D01*
X132412213Y-78388624D01*
X132513987Y-78346468D01*
X132601736Y-78310121D01*
X132802931Y-78270101D01*
X133008071Y-78270101D01*
X133209266Y-78310121D01*
X133209266Y-78310121D01*
G37*
G36*
X111860442Y-78105518D02*
G01*
X111926627Y-78112037D01*
X112096466Y-78163557D01*
X112252991Y-78247222D01*
X112280869Y-78270101D01*
X112390186Y-78359814D01*
X112473448Y-78461271D01*
X112502778Y-78497009D01*
X112586443Y-78653534D01*
X112637963Y-78823373D01*
X112655359Y-79000000D01*
X112637963Y-79176627D01*
X112586443Y-79346466D01*
X112502778Y-79502991D01*
X112483465Y-79526524D01*
X112390186Y-79640186D01*
X112288729Y-79723448D01*
X112252991Y-79752778D01*
X112096466Y-79836443D01*
X111926627Y-79887963D01*
X111860442Y-79894482D01*
X111794260Y-79901000D01*
X111705740Y-79901000D01*
X111639558Y-79894482D01*
X111573373Y-79887963D01*
X111403534Y-79836443D01*
X111247009Y-79752778D01*
X111211271Y-79723448D01*
X111109814Y-79640186D01*
X111016535Y-79526524D01*
X110997222Y-79502991D01*
X110913557Y-79346466D01*
X110862037Y-79176627D01*
X110844641Y-79000000D01*
X110862037Y-78823373D01*
X110913557Y-78653534D01*
X110997222Y-78497009D01*
X111026552Y-78461271D01*
X111109814Y-78359814D01*
X111219131Y-78270101D01*
X111247009Y-78247222D01*
X111403534Y-78163557D01*
X111573373Y-78112037D01*
X111639558Y-78105518D01*
X111705740Y-78099000D01*
X111794260Y-78099000D01*
X111860442Y-78105518D01*
X111860442Y-78105518D01*
G37*
G36*
X160556202Y-74203781D02*
G01*
X160831606Y-74258562D01*
X161350455Y-74473476D01*
X161724524Y-74723421D01*
X161817406Y-74785483D01*
X162214517Y-75182594D01*
X162256785Y-75245853D01*
X162526524Y-75649545D01*
X162741438Y-76168394D01*
X162851000Y-76719201D01*
X162851000Y-77280799D01*
X162741438Y-77831606D01*
X162526524Y-78350455D01*
X162214516Y-78817407D01*
X161817407Y-79214516D01*
X161350455Y-79526524D01*
X160831606Y-79741438D01*
X160556202Y-79796219D01*
X160280800Y-79851000D01*
X159719200Y-79851000D01*
X159443798Y-79796219D01*
X159168394Y-79741438D01*
X158649545Y-79526524D01*
X158182593Y-79214516D01*
X157785484Y-78817407D01*
X157473476Y-78350455D01*
X157258562Y-77831606D01*
X157149000Y-77280799D01*
X157149000Y-76719201D01*
X157258562Y-76168394D01*
X157473476Y-75649545D01*
X157743215Y-75245853D01*
X157785483Y-75182594D01*
X158182594Y-74785483D01*
X158275476Y-74723421D01*
X158649545Y-74473476D01*
X159168394Y-74258562D01*
X159443798Y-74203781D01*
X159719200Y-74149000D01*
X160280800Y-74149000D01*
X160556202Y-74203781D01*
X160556202Y-74203781D01*
G37*
G36*
X105556202Y-74203781D02*
G01*
X105831606Y-74258562D01*
X106350455Y-74473476D01*
X106724524Y-74723421D01*
X106817406Y-74785483D01*
X107214517Y-75182594D01*
X107256785Y-75245853D01*
X107526524Y-75649545D01*
X107741438Y-76168394D01*
X107851000Y-76719201D01*
X107851000Y-77280799D01*
X107741438Y-77831606D01*
X107526524Y-78350455D01*
X107214516Y-78817407D01*
X106817407Y-79214516D01*
X106350455Y-79526524D01*
X105831606Y-79741438D01*
X105556202Y-79796219D01*
X105280800Y-79851000D01*
X104719200Y-79851000D01*
X104443798Y-79796219D01*
X104168394Y-79741438D01*
X103649545Y-79526524D01*
X103182593Y-79214516D01*
X102785484Y-78817407D01*
X102473476Y-78350455D01*
X102258562Y-77831606D01*
X102149000Y-77280799D01*
X102149000Y-76719201D01*
X102258562Y-76168394D01*
X102473476Y-75649545D01*
X102743215Y-75245853D01*
X102785483Y-75182594D01*
X103182594Y-74785483D01*
X103275476Y-74723421D01*
X103649545Y-74473476D01*
X104168394Y-74258562D01*
X104443798Y-74203781D01*
X104719200Y-74149000D01*
X105280800Y-74149000D01*
X105556202Y-74203781D01*
X105556202Y-74203781D01*
G37*
G36*
X154110442Y-77105518D02*
G01*
X154176627Y-77112037D01*
X154346466Y-77163557D01*
X154502991Y-77247222D01*
X154524394Y-77264787D01*
X154640186Y-77359814D01*
X154702178Y-77435353D01*
X154752778Y-77497009D01*
X154836443Y-77653534D01*
X154887963Y-77823373D01*
X154905359Y-78000000D01*
X154887963Y-78176627D01*
X154836443Y-78346466D01*
X154752778Y-78502991D01*
X154723448Y-78538729D01*
X154640186Y-78640186D01*
X154538729Y-78723448D01*
X154502991Y-78752778D01*
X154502989Y-78752779D01*
X154382082Y-78817406D01*
X154346466Y-78836443D01*
X154176627Y-78887963D01*
X154110442Y-78894482D01*
X154044260Y-78901000D01*
X153955740Y-78901000D01*
X153889558Y-78894482D01*
X153823373Y-78887963D01*
X153653534Y-78836443D01*
X153617919Y-78817406D01*
X153497011Y-78752779D01*
X153497009Y-78752778D01*
X153461271Y-78723448D01*
X153359814Y-78640186D01*
X153276552Y-78538729D01*
X153247222Y-78502991D01*
X153163557Y-78346466D01*
X153112037Y-78176627D01*
X153094641Y-78000000D01*
X153112037Y-77823373D01*
X153163557Y-77653534D01*
X153247222Y-77497009D01*
X153297822Y-77435353D01*
X153359814Y-77359814D01*
X153475606Y-77264787D01*
X153497009Y-77247222D01*
X153653534Y-77163557D01*
X153823373Y-77112037D01*
X153889558Y-77105518D01*
X153955740Y-77099000D01*
X154044260Y-77099000D01*
X154110442Y-77105518D01*
X154110442Y-77105518D01*
G37*
G36*
X133209266Y-75770121D02*
G01*
X133398789Y-75848624D01*
X133569355Y-75962593D01*
X133714409Y-76107647D01*
X133808343Y-76248229D01*
X133828379Y-76278215D01*
X133906881Y-76467736D01*
X133946901Y-76668931D01*
X133946901Y-76874071D01*
X133906881Y-77075266D01*
X133835655Y-77247222D01*
X133828378Y-77264789D01*
X133714409Y-77435355D01*
X133569355Y-77580409D01*
X133398789Y-77694378D01*
X133398788Y-77694379D01*
X133398787Y-77694379D01*
X133209266Y-77772881D01*
X133008071Y-77812901D01*
X132802931Y-77812901D01*
X132601736Y-77772881D01*
X132412215Y-77694379D01*
X132412214Y-77694379D01*
X132412213Y-77694378D01*
X132241647Y-77580409D01*
X132096593Y-77435355D01*
X131982624Y-77264789D01*
X131975348Y-77247222D01*
X131904121Y-77075266D01*
X131864101Y-76874071D01*
X131864101Y-76668931D01*
X131904121Y-76467736D01*
X131982623Y-76278215D01*
X132002659Y-76248229D01*
X132096593Y-76107647D01*
X132241647Y-75962593D01*
X132412213Y-75848624D01*
X132601736Y-75770121D01*
X132802931Y-75730101D01*
X133008071Y-75730101D01*
X133209266Y-75770121D01*
X133209266Y-75770121D01*
G37*
G36*
X117969266Y-75770121D02*
G01*
X118158789Y-75848624D01*
X118329355Y-75962593D01*
X118474409Y-76107647D01*
X118568343Y-76248229D01*
X118588379Y-76278215D01*
X118666881Y-76467736D01*
X118706901Y-76668931D01*
X118706901Y-76874071D01*
X118666881Y-77075266D01*
X118595655Y-77247222D01*
X118588378Y-77264789D01*
X118474409Y-77435355D01*
X118329355Y-77580409D01*
X118158789Y-77694378D01*
X118158788Y-77694379D01*
X118158787Y-77694379D01*
X117969266Y-77772881D01*
X117768071Y-77812901D01*
X117562931Y-77812901D01*
X117361736Y-77772881D01*
X117172215Y-77694379D01*
X117172214Y-77694379D01*
X117172213Y-77694378D01*
X117001647Y-77580409D01*
X116856593Y-77435355D01*
X116742624Y-77264789D01*
X116735348Y-77247222D01*
X116664121Y-77075266D01*
X116624101Y-76874071D01*
X116624101Y-76668931D01*
X116664121Y-76467736D01*
X116742623Y-76278215D01*
X116762659Y-76248229D01*
X116856593Y-76107647D01*
X117001647Y-75962593D01*
X117172213Y-75848624D01*
X117361736Y-75770121D01*
X117562931Y-75730101D01*
X117768071Y-75730101D01*
X117969266Y-75770121D01*
X117969266Y-75770121D01*
G37*
G36*
X112651000Y-77361000D02*
G01*
X110849000Y-77361000D01*
X110849000Y-75559000D01*
X112651000Y-75559000D01*
X112651000Y-77361000D01*
X112651000Y-77361000D01*
G37*
G36*
X147248228Y-75181703D02*
G01*
X147403100Y-75245853D01*
X147542481Y-75338985D01*
X147661015Y-75457519D01*
X147754147Y-75596900D01*
X147818297Y-75751772D01*
X147851000Y-75916184D01*
X147851000Y-76083816D01*
X147818297Y-76248228D01*
X147754147Y-76403100D01*
X147661015Y-76542481D01*
X147542481Y-76661015D01*
X147403100Y-76754147D01*
X147248228Y-76818297D01*
X147083816Y-76851000D01*
X146916184Y-76851000D01*
X146751772Y-76818297D01*
X146596900Y-76754147D01*
X146457519Y-76661015D01*
X146338985Y-76542481D01*
X146245853Y-76403100D01*
X146181703Y-76248228D01*
X146149000Y-76083816D01*
X146149000Y-75916184D01*
X146181703Y-75751772D01*
X146245853Y-75596900D01*
X146338985Y-75457519D01*
X146457519Y-75338985D01*
X146596900Y-75245853D01*
X146751772Y-75181703D01*
X146916184Y-75149000D01*
X147083816Y-75149000D01*
X147248228Y-75181703D01*
X147248228Y-75181703D01*
G37*
G36*
X137006823Y-75161313D02*
G01*
X137167242Y-75209976D01*
X137234361Y-75245852D01*
X137315078Y-75288996D01*
X137444659Y-75395341D01*
X137551004Y-75524922D01*
X137551005Y-75524924D01*
X137630024Y-75672758D01*
X137678687Y-75833177D01*
X137695117Y-76000000D01*
X137678687Y-76166823D01*
X137630024Y-76327242D01*
X137589477Y-76403100D01*
X137551004Y-76475078D01*
X137444659Y-76604659D01*
X137315078Y-76711004D01*
X137315076Y-76711005D01*
X137167242Y-76790024D01*
X137006823Y-76838687D01*
X136881804Y-76851000D01*
X136798196Y-76851000D01*
X136673177Y-76838687D01*
X136512758Y-76790024D01*
X136364924Y-76711005D01*
X136364922Y-76711004D01*
X136235341Y-76604659D01*
X136128996Y-76475078D01*
X136090523Y-76403100D01*
X136049976Y-76327242D01*
X136001313Y-76166823D01*
X135984883Y-76000000D01*
X136001313Y-75833177D01*
X136049976Y-75672758D01*
X136128995Y-75524924D01*
X136128996Y-75524922D01*
X136235341Y-75395341D01*
X136364922Y-75288996D01*
X136445639Y-75245852D01*
X136512758Y-75209976D01*
X136673177Y-75161313D01*
X136798196Y-75149000D01*
X136881804Y-75149000D01*
X137006823Y-75161313D01*
X137006823Y-75161313D01*
G37*
G36*
X154901000Y-76361000D02*
G01*
X153099000Y-76361000D01*
X153099000Y-74559000D01*
X154901000Y-74559000D01*
X154901000Y-76361000D01*
X154901000Y-76361000D01*
G37*
M02*
